<?xml version="1.0"?><svg width="1112.8571" height="381.42856" xmlns="http://www.w3.org/2000/svg">
 <title>Blue quotation marks</title>

 <metadata id="metadata7">image/svg+xml</metadata>
 <g>
  <title>Layer 1</title>
  <g id="layer1">
   <path fill="#00007f" id="path3598" d="m-0.004761,0l232.859985,0l0,222.856995l-110,0c0,0 0,52.856995 15.719971,81.428986c15.709961,28.571198 34.280029,44.285492 34.280029,44.285492l-27.140015,32.857117c0,0 -77.140015,-45.714294 -108.569946,-94.285583c-31.430054,-48.572021 -36.730103,-95.184021 -36.810059,-132.989014l-0.339966,-154.153992l0,0z"/>
   <path fill="#00007f" d="m262.855225,0l232.859009,0l0,222.856995l-109.999023,0c0,0 0,52.856995 15.709961,81.428986c15.720093,28.571198 34.290039,44.285492 34.290039,44.285492l-27.140015,32.857117c0,0 -77.150024,-45.714294 -108.579956,-94.285583c-31.420044,-48.572021 -36.72998,-95.184021 -36.810059,-132.989014l-0.329956,-154.153992l0,0z" id="path3642"/>
   <g id="g3658">
    <path fill="#00007f" id="path3646" d="m1112.857178,0l-232.856934,0l0,222.856995l110,0c0,0 0,52.856995 -15.715027,81.428986c-15.713989,28.571198 -34.284973,44.285492 -34.284973,44.285492l27.142944,32.857117c0,0 77.141968,-45.714294 108.571045,-94.285583c31.428955,-48.572021 36.72998,-95.184021 36.810913,-132.989014l0.332031,-154.153992l0,0z"/>
    <path fill="#00007f" d="m850.000244,0l-232.857056,0l0,222.856995l110,0c0,0 0,52.856995 -15.714966,81.428986c-15.713989,28.571198 -34.285034,44.285492 -34.285034,44.285492l27.143005,32.857117c0,0 77.142029,-45.714294 108.571045,-94.285583c31.428955,-48.572021 36.72998,-95.184021 36.810974,-132.989014l0.332031,-154.153992l0,0z" id="path3648"/>
   </g>
  </g>
 </g>
</svg>