<?xml version="1.0" encoding="utf-8"?>
<!-- Generator: Adobe Illustrator 16.0.0, SVG Export Plug-In . SVG Version: 6.00 Build 0)  -->
<!DOCTYPE svg PUBLIC "-//W3C//DTD SVG 1.1//EN" "http://www.w3.org/Graphics/SVG/1.1/DTD/svg11.dtd">
<svg version="1.1" id="Capa_1" xmlns="http://www.w3.org/2000/svg" xmlns:xlink="http://www.w3.org/1999/xlink" x="0px" y="0px"
	 width="291.873px" height="250.346px" viewBox="0 0 291.873 250.346" enable-background="new 0 0 291.873 250.346"
	 xml:space="preserve">
<g>
	<path fill="#C5C5C5" d="M164.277,196.458c0,2.172-1.76,3.932-3.932,3.932h-25.803c-2.171,0-3.931-1.76-3.931-3.932l0,0
		c0-2.171,1.76-3.932,3.931-3.932h25.803C162.518,192.526,164.277,194.287,164.277,196.458L164.277,196.458z"/>
	<path fill="#C5C5C5" d="M164.277,205.42c0,2.171-1.76,3.932-3.932,3.932h-25.803c-2.171,0-3.931-1.76-3.931-3.932l0,0
		c0-2.17,1.76-3.93,3.931-3.93h25.803C162.518,201.49,164.277,203.25,164.277,205.42L164.277,205.42z"/>
	<path fill="#C5C5C5" d="M164.277,215.301c0,2.171-1.76,3.932-3.932,3.932h-25.803c-2.171,0-3.931-1.76-3.931-3.932l0,0
		c0-2.171,1.76-3.931,3.931-3.931h25.803C162.518,211.371,164.277,213.13,164.277,215.301L164.277,215.301z"/>
	<g>
		<path fill="#C5C5C5" d="M160.707,220.64h-25.802c-0.734,0-1.415-0.215-2.003-0.566c2.482,5.614,8.091,9.537,14.623,9.537
			c6.401,0,11.908-3.77,14.463-9.202C161.585,220.547,161.158,220.64,160.707,220.64z"/>
	</g>
	<path fill="#C5C5C5" d="M154.739,35.677c0,2.014-1.633,3.647-3.647,3.647l0,0c-2.015,0-3.647-1.633-3.647-3.647V18.283
		c0-2.015,1.633-3.647,3.647-3.647l0,0c2.015,0,3.647,1.632,3.647,3.647V35.677z"/>
	<path fill="#C5C5C5" d="M198.028,58.362c-1.33,1.512-3.635,1.66-5.147,0.33l0,0c-1.512-1.331-1.66-3.635-0.33-5.148l11.489-13.058
		c1.33-1.513,3.637-1.66,5.147-0.33l0,0c1.512,1.331,1.66,3.635,0.331,5.148L198.028,58.362z"/>
	<path fill="#C5C5C5" d="M217.6,107.453c-2.006,0.185-3.781-1.293-3.966-3.299l0,0c-0.185-2.005,1.292-3.782,3.297-3.966
		l17.32-1.592c2.008-0.186,3.783,1.292,3.967,3.298l0,0c0.186,2.005-1.291,3.782-3.298,3.966L217.6,107.453z"/>
	<path fill="#C5C5C5" d="M195.029,159.796c-1.506-1.339-1.639-3.644-0.301-5.148l0,0c1.341-1.503,3.646-1.64,5.149-0.3
		l12.993,11.563c1.505,1.341,1.64,3.648,0.299,5.151l0,0c-1.338,1.503-3.644,1.64-5.149,0.299L195.029,159.796z"/>
	<path fill="#C5C5C5" d="M93.844,54.544c1.331,1.512,3.636,1.659,5.147,0.329l0,0c1.513-1.33,1.66-3.635,0.33-5.147l-11.489-13.06
		c-1.331-1.512-3.636-1.659-5.147-0.328l0,0c-1.513,1.33-1.66,3.635-0.329,5.147L93.844,54.544z"/>
	<path fill="#C5C5C5" d="M74.272,103.633c2.006,0.184,3.78-1.292,3.967-3.298l0,0c0.184-2.006-1.292-3.782-3.298-3.966L57.62,94.775
		c-2.006-0.184-3.782,1.293-3.965,3.298l0,0c-0.186,2.006,1.291,3.781,3.298,3.967L74.272,103.633z"/>
	<path fill="#C5C5C5" d="M96.844,155.978c1.504-1.339,1.638-3.645,0.3-5.149l0,0c-1.34-1.504-3.646-1.639-5.149-0.3l-12.992,11.564
		c-1.505,1.34-1.64,3.646-0.3,5.149l0,0c1.338,1.505,3.645,1.64,5.149,0.3L96.844,155.978z"/>
	<g>
		<path fill="#C5C5C5" d="M110.381,155.694c0.046-0.141,0.096-0.285,0.143-0.426l0.067-0.201c1.933-5.844,3.102-9.37,7.532-9.37
			c0.081,0,0.166,0.007,0.248,0.01c-1.841-2.339-1.067-4.91,1.661-10.056l0.18-0.339c13.383-25.252,26.733-50.521,40.084-75.788
			c-4.118-1.016-8.419-1.563-12.85-1.563c-29.597,0-53.59,23.993-53.59,53.589c0,9.865,2.678,19.1,7.327,27.039
			C103.211,142.339,106.768,148.927,110.381,155.694z"/>
		<path fill="#C5C5C5" d="M176.791,66.72c-11.987,25.407-23.974,50.814-35.976,76.214c-2.549,5.395-4.047,8.549-7.665,9.004
			c0.664,0.616,1.128,1.306,1.366,2.205c0.6,2.273-0.581,4.094-2.939,7.721c-0.567,0.875-1.223,1.883-1.96,3.057
			c-1.446,2.304-3.022,4.538-4.544,6.7c-1.271,1.801-2.488,3.546-3.638,5.307c0.069,0.146,0.14,0.293,0.199,0.423
			c1.122,1.123,5.05,13.466,16.832,12.905c0.562-0.562,19.078,0.019,19.078,0.019s8.977,0.556,13.466-8.997
			c1.006-1.509,13.762-26.67,21.836-41.271c0.898-1.43,1.73-2.906,2.493-4.423c0.031-0.054,0.066-0.114,0.097-0.168
			c0.041-0.07,0.061-0.135,0.094-0.204c3.52-7.137,5.504-15.166,5.504-23.661C201.034,92.792,191.388,76.294,176.791,66.72z"/>
	</g>
	<g>
		<path fill-rule="evenodd" clip-rule="evenodd" fill="#C5C5C5" d="M125.76,147.324c-6.189-3.47-6.087-3.416-2.635-9.927
			c17.735-33.466,35.408-66.963,53.11-100.447c3.573-6.759,4.892-7.007,11.083-2.175c-0.36,3.138-2.01,5.789-3.313,8.556
			c-15.516,32.922-31.059,65.836-46.608,98.743C133.662,149.973,133.637,149.96,125.76,147.324z"/>
		<path fill-rule="evenodd" clip-rule="evenodd" fill="#C5C5C5" d="M83.44,219.656c3.868-5.177,4.252-11.256,4.628-17.382
			c0.753-12.299,6.814-19.138,18.942-21.577c7.226,3.475,10.046,14.367,4.578,21.917c-6.766,9.337-17.02,14.111-27.696,17.812
			C83.838,220.445,83.595,219.926,83.44,219.656z"/>
		<path fill-rule="evenodd" clip-rule="evenodd" fill="#C5C5C5" d="M107.886,178.957c-0.976-1.818-0.559-3.52,0.125-5.37
			c2.234-6.07,4.376-12.176,6.412-18.317c2.648-8,2.589-8.021,10.155-5.578c8.854,4.891,8.632,2.819,2.712,12.244
			c-3.059,4.868-6.74,9.366-9.557,14.36C115.142,180.899,112.152,181.706,107.886,178.957z"/>
	</g>
</g>
</svg>
