<?xml version="1.0" encoding="utf-8"?>
<!-- Generator: Adobe Illustrator 16.0.0, SVG Export Plug-In . SVG Version: 6.00 Build 0)  -->
<!DOCTYPE svg PUBLIC "-//W3C//DTD SVG 1.1//EN" "http://www.w3.org/Graphics/SVG/1.1/DTD/svg11.dtd">
<svg version="1.1" id="Capa_1" xmlns="http://www.w3.org/2000/svg" xmlns:xlink="http://www.w3.org/1999/xlink" x="0px" y="0px"
	 width="291.873px" height="250.346px" viewBox="0 0 291.873 250.346" enable-background="new 0 0 291.873 250.346"
	 xml:space="preserve">
<g>
	<path fill="#C5C5C5" d="M285.873,159.817c0-36.785-35.066-66.736-78.834-67.863c2.207,4.52,3.846,9.28,4.846,14.224
		c32.264,3.063,57.33,25.904,57.33,53.64c0,29.822-28.98,54.003-64.732,54.003c-25.195,0-47.012-12.019-57.708-29.549
		c-4.906,0.77-9.964,1.178-15.138,1.178c-0.856,0-1.708-0.02-2.559-0.042c12.111,24.816,41.307,42.31,75.404,42.31
		c17.117,0,32.996-4.411,46.102-11.939l29.879,16.276l-13.717-28.513C278.678,191.728,285.873,176.474,285.873,159.817z"/>
	<path fill="#C5C5C5" d="M118.365,177.292c43.328-6.8,76.111-38.529,76.111-76.65c0-4.452-0.455-8.815-1.313-13.063
		c-1.148-5.679-3.031-11.148-5.566-16.339c-13.916-28.504-47.453-48.601-86.622-48.601c-51.638,0-93.5,34.923-93.5,78.003
		c0,19.136,8.265,36.658,21.973,50.229l-15.757,32.755l34.325-18.699c14.303,8.217,31.481,13.191,50.021,13.67
		c0.978,0.025,1.954,0.048,2.939,0.048C106.919,178.645,112.73,178.176,118.365,177.292z M26.613,100.642
		c0-34.263,33.293-62.038,74.362-62.038c28.945,0,54.008,13.805,66.296,33.945c2.912,4.774,5.117,9.897,6.473,15.285
		c1.041,4.134,1.596,8.416,1.596,12.808c0,31.166-27.553,56.959-63.447,61.365c-3.564,0.438-7.207,0.672-10.917,0.672
		c-2.877,0-5.71-0.15-8.503-0.416C55.41,158.743,26.613,132.502,26.613,100.642z"/>
</g>
</svg>
