<?xml version="1.0" encoding="utf-8"?>
<!-- Generator: Adobe Illustrator 16.0.0, SVG Export Plug-In . SVG Version: 6.00 Build 0)  -->
<!DOCTYPE svg PUBLIC "-//W3C//DTD SVG 1.1//EN" "http://www.w3.org/Graphics/SVG/1.1/DTD/svg11.dtd">
<svg version="1.1" id="Capa_1" xmlns="http://www.w3.org/2000/svg" xmlns:xlink="http://www.w3.org/1999/xlink" x="0px" y="0px"
	 width="291.873px" height="250.346px" viewBox="0 0 291.873 250.346" enable-background="new 0 0 291.873 250.346"
	 xml:space="preserve">
<g>
	<path fill="#C5C5C5" d="M6.266,182.884c0,0,0.432,10.854,0,10.854c-0.412,3.822,2.604,3.822,2.604,3.822s273.477-0.35,273.477,0
		c2.6-0.52,3.473-3.396,3.473-3.396v-11.281H6.266z M165.285,192h-43.84c-1.086,0-1.953-0.881-1.953-1.959
		c0-1.078,0.867-1.95,1.953-1.95h43.84c1.084,0,1.957,0.872,1.957,1.95C167.242,191.12,166.369,192,165.285,192z"/>
	<path fill="#C5C5C5" d="M146.924,62.638c0,0.959-0.711,1.736-1.584,1.736c-0.871,0-1.572-0.777-1.572-1.736
		c0-0.956,0.701-1.736,1.572-1.736C146.213,60.902,146.924,61.682,146.924,62.638z"/>
	<rect x="50.934" y="81.025" fill="#C5C5C5" width="3.182" height="5.713"/>
	<rect x="57.389" y="81.025" fill="#C5C5C5" width="41.961" height="5.713"/>
	<rect x="50.934" y="90.815" fill="#C5C5C5" width="3.182" height="5.715"/>
	<rect x="57.389" y="90.815" fill="#C5C5C5" width="50.779" height="5.715"/>
	<rect x="51.346" y="109.661" fill="#C5C5C5" width="3.184" height="5.714"/>
	<rect x="57.803" y="109.661" fill="#C5C5C5" width="50.779" height="5.714"/>
	<rect x="51.262" y="119.2" fill="#C5C5C5" width="3.184" height="5.714"/>
	<rect x="57.717" y="119.2" fill="#C5C5C5" width="50.779" height="5.714"/>
	<rect x="51.262" y="128.335" fill="#C5C5C5" width="3.184" height="5.714"/>
	<rect x="57.717" y="128.335" fill="#C5C5C5" width="25.477" height="5.714"/>
	<rect x="51.346" y="137.147" fill="#C5C5C5" width="3.184" height="5.715"/>
	<rect x="57.803" y="137.147" fill="#C5C5C5" width="65.307" height="5.715"/>
	<rect x="51.346" y="100.116" fill="#C5C5C5" width="3.184" height="5.714"/>
	<rect x="57.803" y="100.116" fill="#C5C5C5" width="70.527" height="5.714"/>
	<rect x="51.346" y="146.449" fill="#C5C5C5" width="3.184" height="5.712"/>
	<rect x="57.803" y="146.449" fill="#C5C5C5" width="65.307" height="5.712"/>
	<rect x="125.275" y="146.449" fill="#C5C5C5" width="40.629" height="5.712"/>
	<rect x="51.301" y="155.633" fill="#C5C5C5" width="3.182" height="5.715"/>
	<rect x="57.756" y="155.633" fill="#C5C5C5" width="27.734" height="5.715"/>
	<rect x="51.346" y="164.774" fill="#C5C5C5" width="3.184" height="5.715"/>
	<rect x="57.803" y="164.774" fill="#C5C5C5" width="48.746" height="5.715"/>
	<rect x="86.881" y="155.633" fill="#C5C5C5" width="27.734" height="5.715"/>
	<rect x="116.367" y="155.633" fill="#C5C5C5" width="27.732" height="5.715"/>
	<path fill="#C5C5C5" d="M172.438,78.544v95.944h75.387V78.544H172.438z M208.018,168.921h-29.314v-24.476h29.314V168.921z
		 M178.27,140.004v-37.032h29.318v37.032H178.27z M241.361,168.921h-29.309v-24.476h29.309V168.921z M241.373,140.004h-29.334
		v-37.032h29.334V140.004z M241.373,96.53h-63.965V83.882h63.965V96.53z"/>
	<path fill="#C5C5C5" d="M255.574,57.429H36.465c-2.809,0-5.092,2.285-5.092,5.095v117.2c0,2.814,2.283,5.094,5.092,5.094h219.109
		c2.814,0,5.094-2.28,5.094-5.094v-117.2C260.668,59.713,258.389,57.429,255.574,57.429z M250.547,177.912H43.301V70.12h207.246
		V177.912z"/>
</g>
</svg>
