<?xml version="1.0" encoding="utf-8"?>
<!-- Generator: Adobe Illustrator 16.0.0, SVG Export Plug-In . SVG Version: 6.00 Build 0)  -->
<!DOCTYPE svg PUBLIC "-//W3C//DTD SVG 1.1//EN" "http://www.w3.org/Graphics/SVG/1.1/DTD/svg11.dtd">
<svg version="1.1" id="Capa_1" xmlns="http://www.w3.org/2000/svg" xmlns:xlink="http://www.w3.org/1999/xlink" x="0px" y="0px"
	 width="527.975px" height="533.982px" viewBox="0 0 527.975 533.982" enable-background="new 0 0 527.975 533.982"
	 xml:space="preserve">
<path fill="#FF4466" d="M112.284,344.847c-11.878-23.356-18.579-49.82-18.579-77.854c0-13.621,1.59-26.867,4.578-39.569
	l-84.851-15.806c-3.882,17.84-5.945,36.363-5.945,55.375c0,42.03,10.004,81.709,27.737,116.771L112.284,344.847z"/>
<path fill="#FF4466" d="M369.593,132.663c27.03,21.52,47.405,51.114,57.539,85.161l84.075-19.769
	c-14.497-52.688-45.2-98.597-86.379-131.974L369.593,132.663z"/>
<path fill="#FF4466" d="M104.069,208.03c16.251-44.562,50.395-80.439,93.68-98.836l-20.977-84.832
	C101.082,51.88,41.959,114.189,18.486,192.089L104.069,208.03z"/>
<path fill="#FF4466" d="M216.705,102.451c15.013-4.354,30.875-6.694,47.282-6.694c32.686,0,63.217,9.269,89.15,25.324l55.608-67.031
	c-41.2-28.379-91.049-44.992-144.76-44.992c-23.58,0-46.41,3.217-68.099,9.208L216.705,102.451z"/>
<path fill="#FF4466" d="M196.076,424.052c-30.035-13.149-55.563-34.748-73.616-61.82L45,401.347
	c28.501,46.877,71.471,83.877,122.659,104.752L196.076,424.052z"/>
<path fill="#FF4466" d="M431.731,237.412c1.664,9.608,2.537,19.489,2.537,29.579c0,28.57-6.967,55.502-19.273,79.184l78.013,37.064
	c17.569-34.934,27.479-74.424,27.479-116.248c0-16.879-1.631-33.369-4.709-49.343L431.731,237.412z"/>
<path fill="#FF4466" d="M317.696,429.524c-16.885,5.639-34.94,8.7-53.709,8.7c-17.077,0-33.563-2.539-49.117-7.243l-28.382,81.946
	c24.452,7.783,50.485,11.996,77.499,11.996c27.375,0,53.74-4.33,78.479-12.313L317.696,429.524z"/>
<path fill="#FF4466" d="M404.645,363.517c-17.086,25.129-40.656,45.439-68.291,58.509l24.943,83.67
	c50.93-21.019,93.653-58.021,121.973-104.822L404.645,363.517z"/>
<circle fill="none" stroke="#FF4466" stroke-width="5" stroke-miterlimit="10" cx="261.838" cy="267.468" r="139.501"/>
<g>
	<path fill="#FF4466" d="M220.995,237.806c2.2,1.993,3.301,4.765,3.301,8.315c0,3.55-1.066,6.361-3.201,8.431
		c-2.137,2.069-5.403,3.104-9.804,3.104h-7.581v-22.84h7.844C215.647,234.815,218.794,235.813,220.995,237.806z M220.407,246.219
		c0-5.228-2.995-7.842-8.985-7.842h-3.854v15.651h4.28c2.766,0,4.885-0.658,6.354-1.977
		C219.671,250.734,220.407,248.79,220.407,246.219z"/>
	<path fill="#FF4466" d="M228.968,236.809c-0.457-0.457-0.687-1.002-0.687-1.634c0-0.632,0.229-1.176,0.687-1.634
		c0.457-0.457,1.002-0.687,1.635-0.687c0.631,0,1.176,0.229,1.634,0.687c0.457,0.458,0.686,1.002,0.686,1.634
		c0,0.632-0.229,1.177-0.686,1.634c-0.458,0.457-1.003,0.687-1.634,0.687C229.969,237.495,229.425,237.266,228.968,236.809z
		 M232.399,257.655h-3.66v-17.383h3.66V257.655z"/>
	<path fill="#FF4466" d="M250.076,252.46c0,1.656-0.6,2.979-1.797,3.971c-1.198,0.991-2.734,1.486-4.607,1.486
		c-1.264,0-2.575-0.229-3.938-0.687c-1.361-0.457-2.564-1.1-3.61-1.928l1.766-2.843c2.024,1.525,3.985,2.287,5.881,2.287
		c0.828,0,1.48-0.19,1.961-0.571c0.479-0.381,0.719-0.866,0.719-1.454c0-0.871-1.154-1.655-3.464-2.353
		c-0.174-0.065-0.305-0.109-0.392-0.131c-3.616-0.98-5.425-2.614-5.425-4.901c0-1.612,0.626-2.902,1.879-3.872
		c1.252-0.969,2.881-1.454,4.886-1.454c2.004,0,3.897,0.588,5.686,1.765l-1.373,2.712c-1.416-0.937-2.951-1.405-4.605-1.405
		c-0.872,0-1.58,0.158-2.124,0.474c-0.545,0.316-0.817,0.79-0.817,1.422c0,0.566,0.283,0.98,0.85,1.241
		c0.394,0.196,0.942,0.382,1.65,0.556c0.708,0.175,1.334,0.349,1.879,0.523c0.544,0.174,1.072,0.37,1.585,0.588
		c0.511,0.218,1.063,0.522,1.649,0.915C249.488,249.585,250.076,250.805,250.076,252.46z"/>
	<path fill="#FF4466" d="M270.399,250.565h-13.625c0.087,1.263,0.664,2.281,1.73,3.055c1.067,0.774,2.287,1.16,3.66,1.16
		c2.178,0,3.833-0.688,4.967-2.059l2.092,2.287c-1.874,1.939-4.313,2.908-7.319,2.908c-2.44,0-4.515-0.812-6.225-2.435
		c-1.711-1.622-2.565-3.801-2.565-6.535c0-2.733,0.871-4.906,2.614-6.519c1.742-1.611,3.796-2.418,6.159-2.418
		c2.362,0,4.372,0.714,6.028,2.141c1.654,1.427,2.482,3.393,2.482,5.897L270.399,250.565L270.399,250.565z M256.774,247.689h9.966
		c0-1.459-0.457-2.581-1.372-3.365c-0.915-0.784-2.043-1.177-3.382-1.177c-1.34,0-2.544,0.408-3.611,1.226
		C257.307,245.189,256.774,246.296,256.774,247.689z"/>
	<path fill="#FF4466" d="M278.078,248.245v9.41h-3.659v-17.383h3.659v3.169c0.589-1.066,1.399-1.905,2.436-2.516
		c1.033-0.609,2.15-0.915,3.35-0.915c1.96,0,3.545,0.6,4.754,1.797c1.209,1.198,1.813,2.931,1.813,5.195v10.652h-3.659v-9.541
		c0-3.202-1.329-4.804-3.986-4.804c-1.264,0-2.364,0.42-3.301,1.259C278.547,245.407,278.078,246.633,278.078,248.245z
		 M285.005,238.148c-0.565,0-1.355-0.256-2.368-0.768c-1.014-0.512-1.661-0.769-1.944-0.769c-0.719,0-1.089,0.479-1.11,1.438h-2.418
		c0-1.264,0.256-2.288,0.769-3.072c0.512-0.784,1.226-1.176,2.14-1.176c0.589,0,1.405,0.256,2.451,0.768
		c1.046,0.512,1.73,0.768,2.059,0.768c0.653,0,0.98-0.479,0.98-1.438h2.45C287.946,236.732,286.944,238.148,285.005,238.148z"/>
	<path fill="#FF4466" d="M310.067,255.319c-1.742,1.731-3.921,2.598-6.534,2.598c-2.614,0-4.793-0.866-6.535-2.598
		c-1.743-1.731-2.614-3.851-2.614-6.355s0.871-4.624,2.614-6.355c1.742-1.731,3.921-2.598,6.535-2.598
		c2.613,0,4.792,0.866,6.534,2.598c1.743,1.731,2.614,3.851,2.614,6.355S311.81,253.588,310.067,255.319z M299.595,253.064
		c1.033,1.057,2.347,1.585,3.938,1.585c1.59,0,2.902-0.528,3.938-1.585s1.553-2.423,1.553-4.101c0-1.677-0.518-3.044-1.553-4.101
		c-1.034-1.057-2.348-1.585-3.938-1.585c-1.591,0-2.903,0.528-3.938,1.585c-1.035,1.057-1.554,2.424-1.554,4.101
		C298.042,250.642,298.56,252.008,299.595,253.064z"/>
	<path fill="#FF4466" d="M236.646,296.865h-4.183l-6.013-17.384h3.79l4.313,13.136l4.313-13.136h3.79l4.313,13.136l4.313-13.136
		h3.791l-6.013,17.384h-4.184l-4.116-11.895L236.646,296.865z"/>
	<path fill="#FF4466" d="M274.484,289.774h-13.626c0.087,1.264,0.664,2.281,1.731,3.056c1.066,0.772,2.287,1.16,3.659,1.16
		c2.179,0,3.834-0.688,4.967-2.06l2.092,2.287c-1.873,1.938-4.313,2.908-7.319,2.908c-2.439,0-4.515-0.813-6.225-2.436
		s-2.564-3.801-2.564-6.534s0.871-4.906,2.614-6.52c1.742-1.61,3.795-2.418,6.159-2.418c2.362,0,4.373,0.714,6.027,2.142
		c1.655,1.427,2.483,3.393,2.483,5.896L274.484,289.774L274.484,289.774z M260.858,286.899h9.966c0-1.459-0.457-2.582-1.372-3.365
		c-0.915-0.784-2.042-1.178-3.382-1.178s-2.543,0.408-3.61,1.227C261.392,284.399,260.858,285.506,260.858,286.899z"/>
	<path fill="#FF4466" d="M287.815,279.222c2.331,0,4.324,0.807,5.979,2.418c1.654,1.611,2.482,3.758,2.482,6.437
		c0,2.68-0.822,4.858-2.467,6.534c-1.646,1.679-3.563,2.518-5.751,2.518s-4.155-0.959-5.897-2.876v2.614h-3.66V272.62h3.66v9.9
		C283.6,280.321,285.484,279.222,287.815,279.222z M282.097,288.206c0,1.656,0.501,3.012,1.503,4.068
		c1.002,1.056,2.222,1.584,3.659,1.584c1.438,0,2.689-0.522,3.758-1.567c1.066-1.046,1.602-2.401,1.602-4.067
		s-0.521-3.051-1.568-4.149c-1.046-1.099-2.299-1.65-3.758-1.65c-1.46,0-2.689,0.552-3.691,1.65S282.097,286.551,282.097,288.206z"
		/>
</g>
<path fill="#FFFFFF" d="M303.121,19.357c7.523,1.054,15.046,2.107,22.572,3.162c0.266,0.038,0.27,0.039,0.207,0.307
	c-0.189,0.823-0.386,1.645-0.576,2.468c-0.154,0.663-0.306,1.33-0.459,1.993c-0.158,0.677-0.318,1.354-0.473,2.03
	c-0.119,0.499-0.232,0.996-0.349,1.496c-0.161,0.703-0.33,1.406-0.49,2.11c-0.151,0.645-0.296,1.288-0.448,1.932
	c-0.162,0.704-0.329,1.407-0.491,2.11c-0.152,0.664-0.305,1.329-0.457,1.992c-0.16,0.686-0.32,1.367-0.481,2.053
	c-0.115,0.496-0.229,0.995-0.345,1.493c-0.16,0.697-0.325,1.395-0.486,2.091c-0.119,0.511-0.236,1.022-0.354,1.535
	c-0.159,0.684-0.318,1.366-0.479,2.05c-0.117,0.498-0.23,0.996-0.346,1.494c-0.164,0.704-0.329,1.407-0.491,2.111
	c-0.149,0.644-0.297,1.288-0.448,1.932c-0.163,0.703-0.326,1.407-0.49,2.11c-0.15,0.644-0.299,1.289-0.447,1.933
	c-0.163,0.704-0.329,1.407-0.491,2.111c-0.153,0.664-0.304,1.329-0.459,1.992c-0.157,0.677-0.316,1.354-0.475,2.031
	c-0.118,0.497-0.231,0.996-0.347,1.494c-0.164,0.704-0.328,1.407-0.49,2.111c-0.073,0.305-0.142,0.611-0.214,0.916
	c-0.046,0.187-0.048,0.186-0.23,0.213c-1.263,0.17-2.521,0.34-3.782,0.512c-4.922,0.667-9.84,1.333-14.762,2.001
	c-0.195,0.026-0.392,0.047-0.588,0.081c-0.112,0.019-0.211,0.003-0.317-0.042c-2.699-1.191-5.401-2.379-8.104-3.569
	c-3.151-1.386-6.302-2.772-9.451-4.159c-0.03-0.013-0.062-0.035-0.094-0.042c-0.087-0.022-0.112-0.073-0.107-0.163
	c0.024-0.423,0.041-0.845,0.062-1.267c0.036-0.722,0.073-1.443,0.108-2.165c0.032-0.661,0.069-1.321,0.103-1.981
	c0.034-0.721,0.07-1.443,0.105-2.164c0.035-0.682,0.073-1.362,0.107-2.042c0.034-0.7,0.066-1.401,0.101-2.104
	c0.026-0.511,0.055-1.021,0.081-1.531c0.036-0.715,0.071-1.43,0.107-2.145c0.025-0.523,0.054-1.049,0.081-1.572
	c0.036-0.701,0.068-1.402,0.104-2.103c0.024-0.511,0.053-1.023,0.077-1.533c0.037-0.721,0.072-1.443,0.108-2.165
	c0.032-0.66,0.066-1.321,0.101-1.98c0.036-0.723,0.071-1.443,0.105-2.166c0.036-0.66,0.07-1.319,0.102-1.979
	c0.038-0.722,0.074-1.442,0.11-2.166c0.034-0.681,0.07-1.36,0.104-2.04c0.035-0.702,0.068-1.403,0.104-2.104
	c0.033-0.682,0.071-1.362,0.105-2.042c0.036-0.701,0.069-1.402,0.102-2.104c0.025-0.504,0.053-1.007,0.078-1.51
	c0.038-0.723,0.071-1.444,0.108-2.166c0.031-0.633,0.063-1.266,0.096-1.898c0.033-0.627,0.061-1.254,0.094-1.88
	c0.018-0.286,0.02-0.286,0.294-0.248C288.054,17.247,295.586,18.302,303.121,19.357z M287.444,26.908
	c-0.047,0.206-0.037,0.418-0.051,0.627c-0.045,0.591-0.083,1.184-0.116,1.775c-0.038,0.715-0.068,1.43-0.104,2.144
	c-0.025,0.504-0.053,1.008-0.074,1.511c-0.039,0.723-0.073,1.443-0.11,2.166c-0.031,0.653-0.064,1.307-0.098,1.961
	c-0.041,0.837-0.08,1.673-0.12,2.511c-0.033,0.681-0.073,1.361-0.105,2.042c-0.043,0.865-0.083,1.729-0.127,2.593
	c-0.008,0.176-0.012,0.176,0.16,0.203c0.041,0.006,0.081,0.013,0.123,0.017c6.436,0.902,12.874,1.803,19.313,2.705
	c0.253,0.036,0.256,0.036,0.196,0.292c-0.13,0.558-0.264,1.113-0.396,1.669c-0.142,0.591-0.283,1.18-0.425,1.771
	c-0.186,0.781-0.375,1.564-0.563,2.347c-0.09,0.384-0.187,0.767-0.274,1.152c-0.022,0.091-0.063,0.128-0.152,0.125
	c-0.034-0.001-0.066,0.011-0.102,0.015c-2.065,0.258-4.13,0.516-6.195,0.778c-0.148,0.019-0.276-0.004-0.411-0.063
	c-1.858-0.794-3.719-1.584-5.575-2.376c-0.118-0.051-0.271-0.069-0.344-0.167c-0.076-0.105-0.004-0.252-0.004-0.379
	c0-0.015,0.002-0.028,0.002-0.041c0.053-1.062,0.108-2.124,0.16-3.187c0.016-0.292,0.028-0.584,0.047-0.877
	c0.004-0.082-0.008-0.133-0.104-0.135c-0.025-0.001-0.053-0.008-0.079-0.011c-1.771-0.248-3.541-0.497-5.311-0.744
	c-0.049-0.007-0.104-0.033-0.157-0.001c-0.009,0.06-0.021,0.119-0.023,0.179c-0.048,0.762-0.089,1.524-0.135,2.287
	c-0.061,1.041-0.123,2.083-0.188,3.122c-0.069,1.117-0.14,2.233-0.213,3.35c-0.006,0.101,0.005,0.171,0.116,0.198
	c0.033,0.007,0.063,0.028,0.094,0.042c3.552,1.535,7.109,3.069,10.657,4.612c0.298,0.13,0.575,0.165,0.896,0.122
	c3.844-0.512,7.689-1.013,11.536-1.51c0.148-0.019,0.212-0.072,0.24-0.211c0.086-0.393,0.186-0.784,0.274-1.175
	c0.165-0.71,0.33-1.42,0.494-2.132c0.149-0.664,0.302-1.329,0.454-1.994c0.164-0.717,0.333-1.435,0.499-2.151
	c0.117-0.511,0.232-1.023,0.351-1.534c0.162-0.698,0.323-1.396,0.484-2.092c0.122-0.524,0.239-1.05,0.359-1.575
	c0.162-0.704,0.327-1.407,0.488-2.11c0.131-0.571,0.261-1.143,0.43-1.706c0.073-0.24,0.133-0.484,0.204-0.747
	c-0.095-0.013-0.174-0.023-0.254-0.035c-6.782-0.949-13.563-1.899-20.346-2.849c-0.055-0.007-0.108-0.019-0.162-0.022
	c-0.088-0.005-0.108-0.047-0.104-0.133c0.036-0.625,0.069-1.253,0.104-1.877c0.027-0.532,0.056-1.063,0.085-1.594
	c0.039-0.734,0.076-1.469,0.118-2.206c0.001-0.05-0.013-0.109,0.045-0.161c0.075,0.011,0.154,0.021,0.236,0.033
	c7.111,0.997,14.223,1.993,21.335,2.988c0.048,0.008,0.096,0.015,0.144,0.02c0.139,0.016,0.14,0.016,0.168-0.127
	c0.163-0.766,0.349-1.528,0.541-2.288c0.249-0.971,0.48-1.944,0.679-2.926c0.056-0.273,0.062-0.229-0.177-0.261
	c-9.402-1.318-18.805-2.636-28.207-3.952C287.598,26.907,287.526,26.877,287.444,26.908z"/>
<path fill="#FFFFFF" d="M462.835,113.382l-37.77,24.88l4.504,18.517l12.838,13.744l41.435-18.062L462.835,113.382z M445.686,160.758
	l-8.023-8.658l-2.466-11.478l6.706-4.448l2.4,4.776l-2.852,2.216l0.999,6.248l4.555,4.4l6.556-2.848l-5.838-11.173l4.221-3.119
	l6.651,12.375l5.39-2.195l-9.965-18.54l4.484-3.253l13.208,24.571L445.686,160.758z"/>
<path fill="#FFFFFF" d="M473.102,315.375c-0.399-0.071-0.798-0.143-1.197-0.213c-0.013-0.225-0.21-0.221-0.353-0.29
	c-4.991-2.397-9.981-4.801-14.97-7.198c-1.576-0.756-1.576-0.751-1.437-2.47c0.036-0.47,0.048-0.942,0.09-1.413
	c0.44-4.9,0.894-9.8,1.328-14.7c0.436-4.936,0.848-9.872,1.28-14.806c0.376-4.333,0.782-8.659,1.13-12.992
	c0.066-0.824,0.182-1.123,1.154-0.945c13.379,2.436,26.768,4.821,40.153,7.216c1.096,0.196,2.189,0.416,3.29,0.578
	c0.486,0.071,0.616,0.234,0.478,0.72c-0.477,1.65-0.919,3.312-1.372,4.969c-1.113,4.063-2.228,8.126-3.336,12.19
	c-1.09,3.998-2.171,7.999-3.261,11.998c-1.321,4.845-2.662,9.686-3.947,14.538c-0.183,0.692-0.438,0.992-1.174,1.051
	c-3.881,0.318-7.76,0.647-11.631,1.056C477.252,314.884,475.146,314.877,473.102,315.375z M481.251,270.277
	c-3.486-0.625-6.979-1.238-10.461-1.888c-0.563-0.104-0.824-0.05-0.987,0.573c-0.569,2.186-1.224,4.346-1.824,6.521
	c-1.09,3.967-2.149,7.938-3.257,11.898c-0.215,0.757-0.06,1.007,0.741,1.143c5.819,1.004,11.63,2.071,17.445,3.088
	c0.658,0.113,0.834,0.314,0.64,0.965c-0.582,1.972-1.135,3.952-1.65,5.941c-0.124,0.472-0.368,0.552-0.776,0.588
	c-1.771,0.141-3.544,0.306-5.314,0.467c-0.443,0.039-0.858-0.028-1.264-0.221c-1.604-0.768-3.205-1.546-4.827-2.275
	c-0.479-0.219-0.641-0.474-0.563-0.999c0.147-1.001,0.198-2.013,0.328-3.017c0.072-0.561-0.035-0.86-0.677-0.954
	c-1.366-0.198-2.734-0.435-4.086-0.732c-0.654-0.145-0.799,0.061-0.843,0.668c-0.188,2.383-0.382,4.77-0.665,7.146
	c-0.089,0.74,0.112,1.077,0.755,1.377c3.13,1.465,6.241,2.97,9.356,4.471c0.432,0.209,0.858,0.366,1.35,0.319
	c3.641-0.354,7.279-0.723,10.926-1.03c0.542-0.048,0.645-0.271,0.748-0.7c0.236-0.982,0.526-1.952,0.795-2.929
	c1.118-4.097,2.204-8.201,3.379-12.282c0.287-1,0.001-1.204-0.931-1.363c-5.723-0.978-11.432-2.021-17.144-3.052
	c-0.406-0.073-1.007,0.059-0.758-0.776c0.746-2.518,1.455-5.051,2.135-7.589c0.138-0.514,0.395-0.533,0.798-0.476
	c3.709,0.544,7.382,1.259,11.021,2.161c0.528,0.132,0.602,0.378,0.552,0.854c-0.156,1.476-0.259,2.954-0.405,4.431
	c-0.057,0.579,0.024,0.922,0.732,1.009c1.338,0.168,2.666,0.427,3.987,0.706c0.599,0.128,0.814,0.035,0.87-0.63
	c0.293-3.493,0.617-6.983,0.975-10.472c0.077-0.773-0.185-1.018-0.931-1.139C488.024,271.515,484.639,270.883,481.251,270.277z"/>
<g>
	<path fill="#FFFFFF" d="M371.619,411.762c0.388,0.191,0.275,0.518,0.292,0.743c0.507,6.713,3.837,11.827,9.203,15.593
		c6.677,4.684,14.104,6.122,22.041,4.101c5.078-1.296,9.46-3.848,12.674-8.126c1.055-1.404,1.854-2.948,2.417-4.613
		c0.063-0.187,0.026-0.559,0.331-0.486c0.267,0.065,0.134,0.396,0.116,0.603c-0.547,6.781-3.561,12.182-9.163,16.054
		c-12.685,8.771-28.256,3.661-35.179-5.748c-2.851-3.875-4.366-8.158-3.842-13.027C370.696,415.128,371.276,413.487,371.619,411.762
		z"/>
	<path fill="#FFFFFF" d="M380.86,403.09c0.222,1.259,0.337,2.512,0.723,3.72c1.299,4.069,3.923,7.074,7.618,9.086
		c6.032,3.282,12.226,3.591,18.401,0.418c3.377-1.732,5.716-4.462,6.869-8.137c0.05-0.161,0.032-0.369,0.251-0.476
		c0.287,0.217,0.18,0.529,0.165,0.798c-0.307,5.362-2.842,9.39-7.358,12.21c-5.707,3.562-11.705,3.839-17.72,1.093
		c-5.533-2.531-9.133-6.737-9.719-13.057C379.911,406.811,380.456,404.959,380.86,403.09z"/>
	<path fill="#FFFFFF" d="M409.801,400.863c0.222,0.211,0.08,0.462,0.038,0.69c-0.64,3.372-2.722,5.521-5.798,6.831
		c-4.441,1.893-10.065,0.66-13.261-2.952c-2.015-2.28-2.781-4.929-2.169-7.94c0.027-0.134,0.043-0.27,0.087-0.397
		c0.041-0.118-0.073-0.283,0.168-0.391c0.862,5.195,4.158,8.147,9.093,9.05C402.797,406.638,407.079,405.473,409.801,400.863z"/>
</g>
<path fill="#FFFFFF" d="M303.4,477.514c-1.943-2.399-4.543-3.374-7.532-3.477c-2.299-0.08-4.512,0.319-6.597,1.334
	c-0.245,0.119-0.542,0.366-0.763-0.044c-0.533-0.995-1.121-1.958-1.377-3.089c-0.388-1.703-0.075-3.325,0.447-4.93
	c0.22-0.675-0.023-0.999-0.7-1.149c-0.938-0.208-1.817,0.049-2.715,0.216c-0.515,0.096-0.776,0.399-0.889,0.91
	c-0.327,1.503-0.753,2.969-1.458,4.354c-0.91,1.795-1.807,3.599-2.879,5.413c-0.449-0.74-0.81-1.388-0.985-2.134
	c-0.414-1.756-0.28-3.466,0.329-5.163c0.298-0.827,0.029-1.229-0.847-1.309c-0.836-0.078-1.671-0.004-2.486,0.226
	c-0.542,0.149-0.89,0.459-0.972,1.047c-0.107,0.748-0.32,1.47-0.601,2.178c-1.597,4.009-3.22,8.008-4.96,11.956
	c-0.229,0.52-0.409,1.092-0.956,1.606c-0.109-0.761-0.114-1.391-0.003-2.02c0.379-2.18,0.917-4.321,1.412-6.476
	c0.277-1.212-0.526-1.924-1.733-1.579c-0.144,0.041-0.243,0.221-0.474,0.118c0.009-0.275,0.029-0.568,0.022-0.861
	c-0.021-1.084,0.011-2.221-1.019-2.912c-0.99-0.666-2.044-0.364-3.012,0.102c-1.483,0.711-2.691,1.781-3.729,3.053
	c-0.269,0.331-0.445,0.74-0.84,0.971c-2.026,1.183-4.053,2.367-6.067,3.572c-0.359,0.217-0.565,0.131-0.829-0.135
	c-0.801-0.804-1.708-1.485-2.613-2.169c-1.745-1.313-3.555-2.539-5.2-3.986c-2.977-2.624-3.767-5.568-2.292-9.065
	c0.733-1.74,1.896-3.211,3.29-4.47c5.276-4.764,11.295-8.193,18.25-9.83c2.837-0.666,5.711-0.834,8.566,0.015
	c2.624,0.778,3.71,2.428,3.304,5.116c-0.296,1.96-1.291,3.596-2.558,5.062c-3.045,3.529-6.965,5.575-11.475,6.493
	c-3.136,0.636-6.246,0.799-8.802-1.714c-0.149-0.146-0.333-0.184-0.514-0.043c-0.17,0.133-0.201,0.318-0.137,0.51
	c0.17,0.518,0.391,0.999,0.77,1.409c1.627,1.76,3.699,2.448,6.025,2.508c4.243,0.11,8.283-0.767,11.975-2.853
	c4.266-2.409,7.294-5.889,8.359-10.792c0.556-2.565,0.219-5.016-1.626-7.049c-1.272-1.402-2.938-2.151-4.717-2.706
	c-1.181-0.368-2.423-0.386-3.604-0.719c-1.514,0.044-3.024,0.088-4.538,0.133c-1.051,0.206-2.13,0.181-3.181,0.429
	c-3.149,0.74-6.091,2.025-8.966,3.46c-4.642,2.317-8.932,5.141-12.398,9.07c-1.619,1.838-2.961,3.852-3.714,6.208
	c-0.53,1.664-0.588,3.372,0.016,5.003c0.776,2.099,2.254,3.732,3.915,5.181c1.711,1.491,3.592,2.759,5.506,3.977
	c1.092,0.693,2.187,1.39,3.223,2.169c0.586,0.441,0.581,0.534-0.031,0.886c-0.256,0.149-0.527,0.274-0.782,0.424
	c-2.724,1.619-5.349,3.361-7.429,5.804c-1.78,2.09-2.297,4.472-1.56,7.104c0.269,0.961,0.9,1.703,1.68,2.321
	c0.624,0.492,1.393,0.296,2.081,0.479c0.864-0.024,1.729-0.049,2.592-0.075c0.667-0.199,1.38-0.131,2.042-0.393
	c6.121-2.41,8.931-9.063,6.861-14.964c-0.174-0.497-0.114-0.808,0.33-1.087c0.79-0.507,1.583-1.001,2.459-1.471
	c-0.115,0.934-0.343,1.792-0.443,2.674c-0.312,2.722,0.136,5.271,1.73,7.55c0.881,1.257,2.6,1.513,3.785,0.596
	c0.545-0.423,0.929-0.978,1.22-1.595c0.496-1.045,1.027-2.075,1.426-3.276c-0.073,1.158,0.079,2.181,0.551,3.138
	c0.606,1.233,1.938,1.508,2.954,0.582c0.704-0.636,1.299-1.358,1.745-2.212c2.03-3.886,3.896-7.846,5.361-12.012
	c0.277,1.171,0.465,2.375,1.133,3.314c1.037,1.461,0.624,2.55-0.416,3.772c-1.135,1.332-2.272,2.679-3.19,4.179
	c-0.706,1.157-0.145,2.21,1.19,2.285c2.313,0.131,4.273-0.753,6.015-2.183c1-0.821,1.526-1.932,1.748-3.201
	c0.201-1.172-0.151-2.255-0.54-3.315c-0.199-0.543-0.167-0.974,0.148-1.441c0.574-0.853,1.051-1.761,1.54-2.664
	c0.527-0.973,1.01-1.977,1.616-3.061c0.421,1.555,0.856,2.941,1.596,4.213c0.269,0.461-0.039,0.73-0.346,1.031
	c-1.186,1.164-2.17,2.477-2.781,4.034c-0.298,0.761-0.485,1.548-0.371,2.376c0.147,1.057,0.803,1.633,1.861,1.644
	c0.435,0.005,0.857-0.05,1.27-0.207c1.483-0.563,2.783-1.377,3.885-2.553c1.387-1.481,1.69-3.152,1.078-5.014
	c-0.206-0.626-0.116-0.912,0.538-1.121c2.767-0.887,5.537-0.879,8.284-0.021c1.704,0.531,3.084,1.538,3.869,3.222
	c0.602,1.282,0.426,2.556-0.519,3.603c-0.253,0.283-0.525,0.54-0.838,0.76c-0.313,0.222-0.683,0.47-0.442,0.911
	c0.27,0.495,0.713,0.274,1.068,0.104c1.524-0.724,2.577-1.823,2.764-3.582c-0.019-0.65-0.039-1.297-0.057-1.945
	C304.364,479.301,304.06,478.329,303.4,477.514z M251.213,484.896c0.12,3.943-2.545,7.618-6.224,8.682
	c-1.792,0.518-2.814-0.346-2.576-2.19c0.22-1.703,1.071-3.089,2.271-4.266c1.683-1.647,3.611-2.975,5.581-4.251
	c0.433-0.28,0.615-0.164,0.695,0.289C251.068,483.77,251.26,484.364,251.213,484.896z M264.673,475.774
	c-0.861,3.392-1.948,6.71-3.42,9.896c-0.089,0.193-0.198,0.386-0.333,0.553c-0.411,0.508-0.751,0.464-0.998-0.151
	c-0.302-0.757-0.411-1.557-0.463-2.57c0.144-3.153,1.066-6.206,3.487-8.657c0.43-0.438,1.022-0.954,1.623-0.627
	C265.168,474.543,264.801,475.27,264.673,475.774z M274.692,486.258c1.065-1.359,2.183-2.523,3.13-3.966
	C277.978,483.851,276.401,485.834,274.692,486.258z M284.896,483.559c-0.385,0.158-0.509-0.058-0.426-0.401
	c0.408-1.652,1.181-3.091,2.467-4.27C287.826,480.941,286.504,482.895,284.896,483.559z"/>
<g>
	<g>
		
			<rect x="105.336" y="399.074" transform="matrix(-0.7236 -0.6902 0.6902 -0.7236 -96.7244 781.1991)" fill="#FFFFFF" width="5.446" height="21.785"/>
	</g>
	<g>
		<circle fill="#FFFFFF" cx="119.791" cy="397.69" r="2.833"/>
	</g>
	<g>
		<path fill="#FFFFFF" d="M119.293,422.794l1.039-1.087c-0.817,0.045-1.634-0.093-2.447-0.413c-0.812-0.323-1.575-0.821-2.285-1.503
			c-0.796-0.76-1.395-1.598-1.799-2.515c-0.404-0.92-0.609-1.857-0.619-2.812c-0.008-0.956,0.178-1.905,0.559-2.849
			c0.38-0.942,0.956-1.819,1.729-2.63c0.786-0.822,1.647-1.46,2.585-1.913c0.938-0.451,1.897-0.703,2.879-0.752
			c0.982-0.05,1.954,0.104,2.917,0.463c0.964,0.358,1.864,0.938,2.701,1.739c0.656,0.626,1.17,1.315,1.543,2.071
			c0.372,0.756,0.575,1.534,0.606,2.34l0.92-0.963l2.743,2.615l-10.329,10.824L119.293,422.794z M125.985,415.779
			c0.292-0.305,0.465-0.676,0.516-1.105c0.051-0.431,0.021-0.866-0.092-1.308c-0.114-0.442-0.287-0.865-0.522-1.277
			c-0.233-0.411-0.491-0.75-0.771-1.016c-0.615-0.585-1.228-0.984-1.839-1.194c-0.613-0.213-1.21-0.275-1.796-0.194
			c-0.584,0.082-1.151,0.294-1.704,0.634c-0.551,0.34-1.074,0.769-1.565,1.284c-1,1.047-1.55,2.148-1.653,3.305
			c-0.103,1.155,0.405,2.265,1.521,3.331c0.335,0.318,0.724,0.59,1.167,0.812c0.441,0.222,0.899,0.371,1.371,0.449
			c0.473,0.079,0.931,0.057,1.381-0.063c0.446-0.118,0.843-0.361,1.19-0.723L125.985,415.779z"/>
		<path fill="#FFFFFF" d="M115.299,420.105c-0.834-0.795-1.471-1.688-1.897-2.655c-0.425-0.969-0.646-1.971-0.656-2.98
			c-0.009-1.009,0.189-2.022,0.59-3.016c0.396-0.989,1.011-1.922,1.818-2.769c0.818-0.857,1.731-1.531,2.711-2.006
			c0.985-0.474,2.009-0.741,3.045-0.795c1.038-0.053,2.079,0.112,3.093,0.491c1.014,0.378,1.973,0.992,2.85,1.83
			c0.689,0.659,1.238,1.396,1.633,2.195c0.251,0.508,0.431,1.032,0.537,1.564l0.584-0.611l3.374,3.219l-10.93,11.454l-3.375-3.217
			l0.667-0.7c-0.542-0.063-1.083-0.201-1.618-0.414C116.864,421.357,116.048,420.821,115.299,420.105z M126.25,408.837
			c-0.79-0.753-1.648-1.307-2.552-1.644c-0.904-0.336-1.826-0.483-2.744-0.436c-0.919,0.045-1.832,0.282-2.712,0.708
			c-0.886,0.428-1.713,1.04-2.459,1.821c-0.731,0.766-1.283,1.606-1.64,2.492c-0.357,0.886-0.534,1.788-0.526,2.682
			c0.008,0.892,0.204,1.78,0.582,2.638c0.378,0.863,0.951,1.662,1.7,2.379c0.668,0.637,1.39,1.11,2.146,1.411
			c0.749,0.298,1.51,0.425,2.259,0.384l1.103-0.063l-1.5,1.571l2.112,2.015l9.726-10.192l-2.113-2.015l-1.326,1.389l-0.042-1.024
			c-0.03-0.74-0.22-1.471-0.563-2.164C127.355,410.081,126.865,409.426,126.25,408.837z M117.78,418.553
			c-1.212-1.156-1.769-2.396-1.655-3.683c0.112-1.25,0.707-2.45,1.772-3.567c0.516-0.541,1.072-0.995,1.652-1.354
			c0.6-0.37,1.231-0.604,1.874-0.694c0.649-0.091,1.321-0.021,1.997,0.213c0.668,0.231,1.342,0.666,1.998,1.291
			c0.308,0.294,0.593,0.669,0.849,1.116c0.253,0.442,0.443,0.907,0.564,1.385c0.126,0.493,0.16,0.987,0.104,1.468
			c-0.063,0.524-0.276,0.979-0.633,1.355l-2.797,2.932c-0.401,0.421-0.869,0.702-1.394,0.844c-0.506,0.137-1.032,0.159-1.564,0.072
			c-0.513-0.084-1.015-0.25-1.495-0.489C118.572,419.2,118.145,418.902,117.78,418.553z M124.816,411.389
			c-0.565-0.539-1.13-0.909-1.681-1.098c-0.544-0.188-1.081-0.245-1.594-0.175c-0.521,0.074-1.038,0.268-1.535,0.574
			c-0.517,0.32-1.015,0.729-1.48,1.216c-0.925,0.968-1.441,1.991-1.533,3.04c-0.092,1.025,0.363,2,1.388,2.979
			c0.302,0.288,0.658,0.536,1.06,0.738c0.402,0.2,0.821,0.337,1.247,0.407c0.409,0.069,0.811,0.05,1.198-0.054
			c0.372-0.099,0.695-0.298,0.987-0.604l2.798-2.931c0.228-0.24,0.359-0.52,0.398-0.859c0.044-0.375,0.019-0.763-0.082-1.148
			c-0.103-0.399-0.263-0.794-0.476-1.168C125.296,411.933,125.062,411.625,124.816,411.389z"/>
	</g>
	<g>
		<path fill="#FFFFFF" d="M132.206,435.12l1.041-1.091c-0.818,0.047-1.634-0.091-2.447-0.412c-0.813-0.324-1.574-0.823-2.286-1.502
			c-0.795-0.761-1.395-1.601-1.799-2.519c-0.403-0.917-0.609-1.854-0.618-2.809c-0.009-0.956,0.177-1.905,0.557-2.849
			c0.381-0.941,0.957-1.82,1.73-2.629c0.786-0.823,1.647-1.462,2.585-1.912c0.938-0.453,1.897-0.704,2.878-0.755
			c0.981-0.049,1.954,0.105,2.917,0.464c0.964,0.36,1.864,0.939,2.702,1.738c0.656,0.627,1.17,1.316,1.542,2.072
			c0.372,0.755,0.575,1.535,0.607,2.34l4.974-5.213l2.743,2.617l-14.384,15.073L132.206,435.12z M138.901,428.105
			c0.292-0.308,0.465-0.677,0.515-1.107c0.052-0.432,0.021-0.866-0.092-1.31c-0.113-0.439-0.287-0.865-0.521-1.276
			c-0.234-0.409-0.492-0.749-0.771-1.014c-0.614-0.587-1.229-0.985-1.839-1.196c-0.613-0.212-1.211-0.275-1.796-0.194
			c-0.584,0.083-1.152,0.293-1.704,0.636c-0.552,0.339-1.074,0.768-1.567,1.285c-0.999,1.045-1.55,2.147-1.652,3.302
			c-0.103,1.157,0.405,2.266,1.521,3.332c0.335,0.318,0.724,0.591,1.166,0.813c0.442,0.221,0.899,0.37,1.371,0.446
			c0.473,0.081,0.933,0.058,1.381-0.063c0.447-0.118,0.842-0.359,1.189-0.722L138.901,428.105z"/>
		<path fill="#FFFFFF" d="M128.213,432.43c-0.833-0.795-1.472-1.688-1.897-2.656c-0.426-0.968-0.646-1.971-0.655-2.982
			c-0.009-1.007,0.189-2.021,0.59-3.015c0.398-0.989,1.01-1.92,1.817-2.768c0.82-0.857,1.732-1.532,2.712-2.003
			c0.984-0.476,2.009-0.743,3.045-0.797c1.037-0.054,2.078,0.111,3.093,0.491c1.014,0.378,1.973,0.994,2.849,1.83
			c0.689,0.659,1.239,1.397,1.633,2.194c0.251,0.509,0.431,1.033,0.538,1.566l4.639-4.861l3.373,3.218l-14.983,15.705l-3.374-3.22
			l0.667-0.699c-0.542-0.062-1.083-0.2-1.619-0.413C129.779,433.68,128.964,433.144,128.213,432.43z M139.165,421.16
			c-0.791-0.753-1.649-1.307-2.552-1.644c-0.903-0.336-1.825-0.484-2.743-0.436c-0.919,0.044-1.831,0.285-2.712,0.708
			c-0.885,0.427-1.713,1.04-2.458,1.821c-0.731,0.765-1.283,1.604-1.64,2.493c-0.358,0.887-0.535,1.787-0.526,2.682
			c0.008,0.89,0.204,1.777,0.581,2.637c0.379,0.863,0.951,1.661,1.701,2.378c0.668,0.638,1.39,1.111,2.146,1.412
			c0.749,0.296,1.511,0.425,2.26,0.384l1.103-0.063l-1.501,1.571l2.113,2.016l13.783-14.444l-2.114-2.016l-5.382,5.642l-0.041-1.025
			c-0.03-0.742-0.22-1.469-0.563-2.166C140.27,422.404,139.781,421.748,139.165,421.16z M130.695,430.877
			c-1.212-1.156-1.769-2.396-1.655-3.686c0.111-1.248,0.707-2.449,1.771-3.565c0.517-0.54,1.072-0.996,1.653-1.354
			c0.601-0.372,1.23-0.604,1.873-0.694c0.65-0.091,1.321-0.02,1.996,0.212c0.67,0.233,1.344,0.668,2,1.293
			c0.308,0.293,0.592,0.669,0.849,1.115c0.252,0.442,0.442,0.906,0.564,1.385c0.126,0.491,0.161,0.984,0.104,1.467
			c-0.063,0.523-0.275,0.981-0.633,1.356l-2.797,2.93c-0.401,0.421-0.869,0.705-1.394,0.847c-0.507,0.136-1.032,0.158-1.564,0.07
			c-0.513-0.083-1.016-0.248-1.496-0.488C131.486,431.523,131.06,431.226,130.695,430.877z M137.731,423.713
			c-0.566-0.54-1.131-0.908-1.681-1.099c-0.545-0.188-1.08-0.246-1.593-0.174c-0.523,0.072-1.04,0.266-1.536,0.571
			c-0.517,0.321-1.015,0.729-1.48,1.216c-0.925,0.969-1.441,1.993-1.534,3.04c-0.091,1.025,0.363,2,1.388,2.979
			c0.302,0.288,0.658,0.537,1.06,0.738c0.402,0.2,0.821,0.338,1.248,0.407c0.408,0.067,0.81,0.05,1.197-0.054
			c0.372-0.101,0.695-0.297,0.987-0.604l2.797-2.93c0.229-0.24,0.36-0.519,0.399-0.859c0.045-0.374,0.018-0.761-0.081-1.149
			c-0.103-0.397-0.264-0.793-0.477-1.168C138.211,424.257,137.978,423.948,137.731,423.713z"/>
	</g>
	<g>
		<g>
			<path fill="#FFFFFF" d="M151.451,445.079l-7.669-7.318c-0.181,0.173-0.335,0.326-0.464,0.461
				c-0.69,0.725-0.986,1.487-0.885,2.288c0.101,0.799,0.465,1.5,1.095,2.101c1.172,1.119,2.385,1.258,3.64,0.416l2.993,3.241
				c-3.127,1.5-6.054,0.951-8.775-1.646c-1.187-1.134-2.002-2.301-2.445-3.499c-0.444-1.197-0.563-2.441-0.36-3.735
				c0.203-1.291,0.823-2.479,1.86-3.566c1.542-1.614,3.327-2.404,5.356-2.366c2.029,0.041,3.893,0.872,5.591,2.493
				c1.534,1.465,2.411,3.181,2.627,5.15C154.233,441.067,153.378,443.061,151.451,445.079z M145.43,436.008l4.236,4.043
				c1.221-1.498,1.214-2.839-0.021-4.019C148.324,434.772,146.92,434.765,145.43,436.008z"/>
		</g>
	</g>
</g>
<path fill="#FFFFFF" d="M74.206,280.433c-0.28,1.195,0.067,2.387,0.019,3.591c-0.344,8.877-4.108,15.896-11.331,21.05
	c-1.706,1.217-2.408,0.908-2.935-1.158c-0.559-2.199-1.127-4.396-1.702-6.592c-0.391-1.49-1.131-2.756-2.568-3.652
	c1.142-0.559,2.226-1.008,3.228-1.595c4.794-2.815,6.289-6.502,5.423-12.068c-0.477-3.062-1.631-5.76-4.294-7.584
	c-0.374-0.257-0.279-0.552-0.27-0.901c0.063-1.771-0.403-3.404-1.335-4.915c-0.734-1.19-1.025-1.309-2.248-0.624
	c-1.374,0.773-2.646,1.7-3.69,2.886c-0.653,0.736-1.348,1.003-2.367,1.021c-3.574,0.064-6.99,0.902-10.171,2.575
	c-0.713,0.376-1.337,0.477-2.144,0.18c-1.547-0.57-3.186-0.806-4.841-0.843c-1.543-0.036-1.717,0.137-1.772,1.632
	c-0.062,1.683,0.212,3.304,1.094,4.75c0.323,0.531,0.361,0.891,0.076,1.443c-2.535,4.888,0.906,13.315,5.318,15.314
	c2.227,1.01,4.547,1.32,6.957,1.146c0.497-0.036,0.994-0.083,1.591-0.135c-0.419,1.124-0.798,2.199-0.633,3.355
	c0.059,0.396-0.212,0.555-0.466,0.711c-2.369,1.45-4.598,1.945-7.099-0.429c-0.943-0.893-1.988-1.569-3.276-1.812
	c-0.372-0.072-0.773-0.14-1.138-0.075c-0.497,0.089-1.244,0.014-1.309,0.676c-0.055,0.552,0.601,0.782,1.062,0.902
	c1.379,0.358,2.529,1.173,3.198,2.312c2,3.404,5.493,3.266,8.658,2.081c1.124-0.421,1.342-0.158,1.521,0.827
	c0.166,0.904,0.488,1.779,0.711,2.673c0.468,1.862-0.094,2.5-2.033,2.281c-6.272-0.701-11.575-3.383-15.978-7.878
	c-2.331-2.383-4.083-5.143-5.33-8.227c-0.07-0.172-0.083-0.383-0.337-0.39c-0.52-2.092-1.041-4.184-1.56-6.275
	c0.339-1.117-0.015-2.238-0.001-3.357c0.147-12.729,9.675-24.066,22.973-25.445c10.914-1.13,19.315,3.183,25.263,12.332
	c0.857,1.315,1.493,2.774,2.233,4.169C73.204,276.399,73.705,278.415,74.206,280.433z"/>
<g>
	<path fill="#FFFFFF" d="M115.849,95.184c10.085,9.209,10.762,25.127,1.298,35.226c-9.081,9.693-24.721,10.723-34.99,1.191
		c-10.007-9.291-10.66-24.954-1.282-35.055C90.326,86.37,106.027,86.075,115.849,95.184z M115.055,96.061
		c-9.242-8.611-24.101-8.408-33.116,1.076c-9.127,9.601-8.511,24.604,0.866,33.456c9.749,9.203,24.691,8.249,33.348-0.843
		C125.313,120.132,124.676,104.82,115.055,96.061z"/>
	<path fill="#FFFFFF" d="M97.187,92.243c-1.958,2.137-0.972,5.118,1.458,6.195c0.947,0.419,1.946,0.645,2.957,0.83
		c1.587,0.291,3.127,0.704,4.551,1.5c1.827,1.025,3.081,2.583,4.126,4.342c1.776,2.987,3.549,5.975,5.322,8.964
		c0.032,0.053,0.048,0.115,0.112,0.269c-1.213-0.54-2.349-1.042-3.482-1.546c-5.987-2.661-11.974-5.323-17.961-7.983
		c-0.579-0.258-0.58-0.259-0.209-0.75c0.348-0.463,0.702-0.925,1.049-1.389c0.335-0.447,0.298-0.991-0.085-1.287
		c-0.397-0.307-0.855-0.254-1.223,0.188c-1.074,1.285-2.104,2.603-3.221,3.855c-1.159,1.301-2.413,2.505-3.66,3.717
		c-0.249,0.243-0.51,0.475-0.745,0.731c-0.337,0.367-0.325,0.804,0.009,1.155c0.354,0.373,0.792,0.398,1.191,0.051
		c0.487-0.425,0.971-0.854,1.439-1.3c0.167-0.158,0.301-0.189,0.518-0.099c2.794,1.169,5.589,2.327,8.388,3.483
		c0.179,0.072,0.297,0.171,0.394,0.346c2.317,4.187,4.641,8.37,7.041,12.693c-7.497-3.334-14.869-6.613-22.267-9.902
		c0.495-0.649,0.957-1.254,1.415-1.861c0.347-0.457,0.318-0.985-0.063-1.289c-0.405-0.323-0.873-0.26-1.261,0.203
		c-1.138,1.36-2.262,2.732-3.4,4.091c-0.34,0.405-0.712,0.781-1.095,1.198C75.142,106.905,83.49,93.47,97.187,92.243z"/>
	<path fill="#FFFFFF" d="M100.779,114.438c1.293,0.535,2.584,1.069,3.877,1.603c4.554,1.886,9.106,3.774,13.666,5.647
		c0.246,0.101,0.292,0.174,0.185,0.409c-1.173,2.58-2.766,4.857-4.832,6.802c-0.993,0.936-2.073,1.752-3.201,2.514
		c-0.342,0.231-0.503,0.236-0.725-0.177c-1.782-3.341-3.593-6.667-5.396-9.997c-1.212-2.238-2.426-4.477-3.637-6.714
		C100.736,114.496,100.757,114.467,100.779,114.438z"/>
	<path fill="#FFFFFF" d="M79.563,121.882c4.921,1.95,26.705,11.014,27.234,11.333C95.994,137.678,83.701,131.946,79.563,121.882z"/>
	<path fill="#FFFFFF" d="M104.331,92.883c10.497,2.438,18.123,13.52,15.481,25.102c-0.411-0.748-0.793-1.435-1.167-2.127
		c-2.725-5.053-5.463-10.099-8.164-15.165c-0.928-1.742-1.859-3.472-3.147-4.985C106.44,94.656,105.438,93.718,104.331,92.883z"/>
</g>
<g>
	<path fill="#FFFFFF" d="M275.62,77.032c0.464-2.552,2.869-3.97,5.375-3.517c2.291,0.417,3.938,2.643,3.517,4.959
		c-0.3,1.654-1.368,2.827-2.961,3.27c1.8,0.986,2.854,3.105,2.485,5.138c-0.541,2.977-3.411,4.8-6.341,4.269
		c-2.931-0.533-5.002-3.105-4.461-6.083c0.377-2.08,2.058-3.679,4.117-3.988C276.002,80.177,275.32,78.686,275.62,77.032z
		 M282.279,86.613c0.369-2.033-1.009-3.991-3.04-4.36c-2.011-0.364-3.968,1.014-4.334,3.022c-0.377,2.08,0.98,4.01,3.038,4.384
		C279.998,90.031,281.91,88.645,282.279,86.613z M282.938,78.409c0.292-1.607-0.745-3.162-2.351-3.454
		c-1.607-0.291-3.144,0.773-3.436,2.38c-0.292,1.606,0.744,3.162,2.353,3.454C281.112,81.079,282.65,79.992,282.938,78.409z"/>
	<path fill="#FFFFFF" d="M288.044,87.953c0.018,2.053,1.538,3.768,3.547,4.133c2.314,0.42,4.706-1.049,5.135-3.413
		c0.442-2.434-1.082-4.663-3.54-5.109c-1.417-0.257-2.833,0.145-3.843,1.133l-1.424-0.625l3.112-8.271l8.341,1.514l-0.266,1.465
		l-6.995-1.27l-2.049,5.242c1.142-0.647,2.447-0.85,3.748-0.613c3.143,0.571,5.204,3.604,4.638,6.724
		c-0.612,3.379-3.805,5.364-7.114,4.763c-3.001-0.545-5.078-2.948-5.039-5.992L288.044,87.953z"/>
	<path fill="#FFFFFF" d="M301.676,81.321c0.39-2.151,2.514-3.499,4.617-3.117c2.126,0.386,3.554,2.476,3.168,4.604
		c-0.395,2.174-2.437,3.609-4.612,3.215C302.628,85.619,301.28,83.496,301.676,81.321z M308.118,82.54
		c0.245-1.348-0.703-2.715-2.05-2.959c-1.371-0.249-2.77,0.596-3.021,1.99c-0.263,1.441,0.609,2.82,2.074,3.086
		C306.54,84.914,307.861,83.958,308.118,82.54z M303.521,95.497l10.553-15.513l1.348,0.244l-10.53,15.518L303.521,95.497z
		 M309.435,92.763c0.391-2.151,2.515-3.5,4.618-3.118c2.149,0.391,3.58,2.457,3.191,4.608c-0.39,2.15-2.437,3.61-4.611,3.214
		C310.413,97.064,309.041,94.937,309.435,92.763z M315.88,93.98c0.247-1.37-0.682-2.71-2.052-2.958
		c-1.37-0.25-2.745,0.6-2.997,1.994c-0.263,1.441,0.615,2.796,2.057,3.058C314.305,96.331,315.621,95.398,315.88,93.98z"/>
</g>
<g>
	<path fill="#FFFFFF" d="M412.137,144.895c2.208-1.36,4.871-0.52,6.207,1.648c1.221,1.982,0.664,4.695-1.34,5.931
		c-1.431,0.882-3.017,0.872-4.411-0.018c0.469,1.997-0.403,4.198-2.162,5.282c-2.576,1.588-5.851,0.67-7.413-1.865
		c-1.562-2.535-1.031-5.796,1.545-7.384c1.799-1.108,4.112-0.926,5.719,0.398C410.052,147.279,410.706,145.777,412.137,144.895z
		 M409.459,156.25c1.759-1.084,2.295-3.417,1.212-5.176c-1.072-1.738-3.405-2.274-5.143-1.203c-1.801,1.108-2.329,3.408-1.232,5.188
		C405.391,156.837,407.7,157.334,409.459,156.25z M416.003,151.258c1.391-0.855,1.855-2.666,0.998-4.057
		c-0.856-1.391-2.675-1.822-4.064-0.965c-1.391,0.856-1.855,2.666-0.998,4.058C412.794,151.684,414.633,152.103,416.003,151.258z"/>
	<path fill="#FFFFFF" d="M412.315,161.435c-1.517,1.385-1.777,3.662-0.707,5.399c1.234,2.004,3.926,2.801,5.971,1.541
		c2.105-1.299,2.746-3.922,1.436-6.049c-0.756-1.226-2.001-2.011-3.41-2.101l-0.488-1.478l8.234-3.211l4.447,7.217l-1.268,0.781
		l-3.73-6.053l-5.27,1.979c1.246,0.418,2.268,1.254,2.961,2.379c1.676,2.719,0.797,6.281-1.902,7.944
		c-2.924,1.802-6.533,0.753-8.297-2.109c-1.602-2.598-1.201-5.75,1.09-7.753L412.315,161.435z"/>
	<path fill="#FFFFFF" d="M417.044,177.99l18.592-2.515l0.719,1.165l-18.58,2.535L417.044,177.99z M423.03,180.563
		c1.86-1.146,4.282-0.467,5.404,1.353c1.146,1.861,0.565,4.307-1.295,5.453c-1.861,1.146-4.314,0.6-5.474-1.282
		C420.481,184.164,421.149,181.723,423.03,180.563z M426.428,186.171c1.187-0.73,1.563-2.317,0.832-3.503s-2.281-1.641-3.487-0.897
		c-1.247,0.769-1.669,2.326-0.901,3.573C423.629,186.57,425.202,186.927,426.428,186.171z M426.356,167.145
		c1.86-1.146,4.283-0.467,5.404,1.354c1.133,1.84,0.532,4.298-1.309,5.432c-1.881,1.159-4.313,0.6-5.473-1.281
		C423.796,170.727,424.475,168.304,426.356,167.145z M429.755,172.752c1.166-0.719,1.551-2.338,0.832-3.502
		c-0.73-1.187-2.293-1.662-3.5-0.919c-1.247,0.769-1.69,2.339-0.908,3.606C426.934,173.165,428.528,173.508,429.755,172.752z"/>
</g>
<g>
	<path fill="#FFFFFF" d="M111.227,153.397c-1.992-1.659-2.044-4.452-0.416-6.408c1.49-1.791,4.239-2.127,6.049-0.621
		c1.292,1.075,1.788,2.582,1.391,4.187c1.742-1.08,4.107-0.956,5.694,0.366c2.326,1.936,2.501,5.331,0.595,7.62
		c-1.904,2.289-5.164,2.826-7.49,0.89c-1.624-1.352-2.188-3.603-1.445-5.547C114.153,154.613,112.52,154.472,111.227,153.397z
		 M116.028,147.705c-1.256-1.044-3.119-0.908-4.164,0.348c-1.045,1.255-0.874,3.116,0.381,4.16c1.256,1.045,3.119,0.909,4.164-0.347
		C117.454,150.61,117.264,148.734,116.028,147.705z M122.844,152.316c-1.588-1.321-3.971-1.086-5.291,0.501
		c-1.307,1.569-1.071,3.952,0.498,5.258c1.625,1.353,3.974,1.121,5.311-0.485C124.698,155.985,124.432,153.638,122.844,152.316z"/>
	<path fill="#FFFFFF" d="M132.442,139.208c1.293,1.076,2.114,2.228,2.355,3.928c0.203,1.67-0.252,3.382-1.344,4.694
		c-1.014,1.218-2.48,1.966-4.053,2.127c-1.842,0.186-3.225-0.404-4.609-1.557l-4.116-3.426c-1.292-1.075-2.114-2.227-2.321-3.931
		c-0.223-1.685,0.234-3.398,1.31-4.69c1.015-1.219,2.496-1.985,4.052-2.128c1.842-0.186,3.227,0.404,4.611,1.557L132.442,139.208z
		 M125.883,147.09c0.886,0.738,1.716,1.242,2.897,1.287c1.338,0.082,2.629-0.531,3.474-1.545c0.876-1.052,1.237-2.501,0.896-3.817
		c-0.305-1.098-0.93-1.774-1.797-2.496l-4.099-3.411c-0.886-0.738-1.701-1.26-2.882-1.306c-1.338-0.082-2.629,0.53-3.49,1.565
		c-0.859,1.034-1.222,2.481-0.861,3.813c0.287,1.082,0.896,1.776,1.764,2.499L125.883,147.09z"/>
	<path fill="#FFFFFF" d="M127.786,132.828c-1.68-1.398-1.809-3.911-0.44-5.554c1.382-1.661,3.903-1.875,5.565-0.492
		c1.697,1.413,1.943,3.897,0.529,5.596C131.997,134.113,129.483,134.241,127.786,132.828z M132.016,127.819
		c-1.053-0.875-2.709-0.724-3.584,0.328c-0.893,1.071-0.845,2.704,0.244,3.61c1.126,0.937,2.756,0.856,3.709-0.289
		C133.307,130.36,133.124,128.741,132.016,127.819z M141.034,138.198l-8.311-16.822l0.875-1.052l8.326,16.804L141.034,138.198z
		 M141.564,131.703c-1.68-1.398-1.808-3.91-0.44-5.553c1.398-1.68,3.901-1.909,5.581-0.511c1.681,1.398,1.942,3.897,0.529,5.596
		C145.79,132.97,143.262,133.116,141.564,131.703z M145.796,126.694c-1.07-0.891-2.695-0.743-3.586,0.328s-0.828,2.685,0.262,3.591
		c1.125,0.937,2.736,0.841,3.674-0.285C147.067,129.221,146.903,127.616,145.796,126.694z"/>
</g>
<g>
	<path fill="#FFFFFF" d="M455.585,330.333l-2.306-0.96l-1.044,2.505l2.085,0.868l-0.572,1.375l-5.699-2.372l0.573-1.375l2.062,0.857
		l1.043-2.504l-7.782-3.24l0.535-1.287l11.868-7.571l1.907,0.794l-4.44,10.664l2.306,0.961L455.585,330.333z M455.918,318.66
		l-9.687,6.27l6.031,2.511L455.918,318.66z"/>
	<path fill="#FFFFFF" d="M468.834,333.951c-0.646,1.552-1.505,2.676-3.059,3.409c-1.536,0.687-3.308,0.756-4.882,0.101
		c-1.464-0.609-2.61-1.789-3.228-3.243c-0.722-1.705-0.566-3.201,0.126-4.865l2.06-4.943c0.646-1.553,1.503-2.679,3.071-3.378
		c1.543-0.711,3.314-0.779,4.867-0.133c1.463,0.609,2.634,1.799,3.229,3.243c0.721,1.705,0.565,3.201-0.128,4.864L468.834,333.951z
		 M459.367,330.009c-0.443,1.064-0.68,2.006-0.376,3.148c0.317,1.302,1.284,2.354,2.503,2.861c1.264,0.527,2.755,0.445,3.911-0.27
		c0.958-0.616,1.419-1.412,1.854-2.454l2.049-4.922c0.444-1.064,0.702-1.998,0.397-3.139c-0.315-1.303-1.281-2.355-2.524-2.873
		c-1.242-0.517-2.732-0.436-3.898,0.302c-0.948,0.594-1.433,1.382-1.865,2.424L459.367,330.009z"/>
	<path fill="#FFFFFF" d="M473.554,327.617c0.84-2.018,3.204-2.882,5.178-2.06c1.995,0.831,2.943,3.177,2.112,5.173
		c-0.849,2.039-3.15,3.006-5.191,2.157C473.57,332.021,472.706,329.657,473.554,327.617z M479.59,330.182
		c0.526-1.265-0.107-2.803-1.371-3.328c-1.286-0.536-2.832-0.009-3.377,1.3c-0.563,1.353-0.005,2.886,1.37,3.458
		C477.542,332.165,479.037,331.513,479.59,330.182z M472.335,341.859l13.619-12.904l1.264,0.527l-13.598,12.913L472.335,341.859z
		 M478.698,340.451c0.84-2.019,3.201-2.882,5.175-2.061c2.018,0.84,2.975,3.164,2.135,5.182s-3.15,3.008-5.19,2.157
		C478.733,344.861,477.847,342.491,478.698,340.451z M484.731,343.016c0.536-1.287-0.086-2.794-1.371-3.329
		c-1.287-0.536-2.811,0.001-3.354,1.31c-0.563,1.352,0.003,2.863,1.355,3.425C482.692,344.976,484.177,344.345,484.731,343.016z"/>
</g>
<g>
	<path fill="#FFFFFF" d="M46.7,319.47l0.365,1.567l-3.334,16.729l-1.825,0.425l3.448-16.879l-6.854,1.594l0.703,3.017l-1.614,0.376
		l-1.039-4.468L46.7,319.47z"/>
	<path fill="#FFFFFF" d="M53.814,330.639c0.831,1.878,2.907,2.85,4.895,2.388c2.292-0.533,3.904-2.831,3.36-5.17
		c-0.56-2.41-2.844-3.852-5.276-3.286c-1.404,0.326-2.544,1.257-3.078,2.565l-1.556-0.009l-0.424-8.828l8.257-1.919l0.337,1.45
		l-6.924,1.61l0.2,5.625c0.792-1.047,1.909-1.751,3.197-2.051c3.111-0.723,6.207,1.245,6.924,4.333
		c0.779,3.345-1.364,6.432-4.638,7.193c-2.972,0.691-5.833-0.689-7.003-3.5L53.814,330.639z"/>
	<path fill="#FFFFFF" d="M71.014,331.423l3.532-18.429l1.333-0.309l-3.509,18.421L71.014,331.423z M63.695,319.145
		c-0.495-2.13,0.92-4.21,3.002-4.693c2.104-0.491,4.244,0.861,4.733,2.968c0.5,2.151-0.805,4.279-2.957,4.779
		C66.276,322.709,64.196,321.296,63.695,319.145z M70.092,317.705c-0.311-1.334-1.723-2.214-3.055-1.903
		c-1.357,0.315-2.306,1.646-1.985,3.026c0.332,1.426,1.679,2.346,3.13,2.009C69.586,320.511,70.417,319.109,70.092,317.705z
		 M75.359,326.565c-0.495-2.129,0.919-4.208,3.001-4.692c2.128-0.494,4.263,0.832,4.757,2.962c0.495,2.128-0.805,4.28-2.957,4.781
		C77.961,330.128,75.86,328.717,75.359,326.565z M81.756,325.128c-0.316-1.357-1.7-2.219-3.056-1.904
		c-1.358,0.316-2.282,1.641-1.961,3.021c0.333,1.428,1.674,2.323,3.102,1.991C81.244,327.909,82.083,326.53,81.756,325.128z"/>
</g>
<g>
	<path fill="#FFFFFF" d="M398.429,458.945c-1.506-1.903-0.973-4.581,0.826-6.062c1.836-1.512,4.529-1.49,6.102,0.42
		c1.008,1.225,1.326,2.859,0.541,4.284c1.969-0.781,4.229-0.153,5.587,1.497c1.923,2.337,1.454,5.771-0.827,7.65
		c-2.373,1.953-5.626,1.894-7.74-0.41l1.354-1.114c1.377,1.448,3.686,1.757,5.28,0.444c1.725-1.42,1.859-3.864,0.47-5.552
		c-1.42-1.724-3.947-1.696-5.598-0.338l-0.668,0.55l-0.854-1.039l0.63-0.519c0.631-0.519,1.13-1.085,1.313-1.92
		c0.184-0.835-0.057-1.694-0.606-2.362c-1.083-1.316-2.823-1.502-4.121-0.434c-1.149,0.946-1.351,2.667-0.444,3.881L398.429,458.945
		z"/>
	<path fill="#FFFFFF" d="M414.829,456.831c1.579,1.313,3.87,1.262,5.446-0.035c1.816-1.496,2.24-4.271,0.713-6.125
		c-1.572-1.91-4.258-2.188-6.187-0.6c-1.112,0.916-1.72,2.256-1.618,3.665l-1.396,0.685l-4.303-7.721l6.546-5.389l0.946,1.15
		l-5.488,4.518l2.677,4.951c0.244-1.289,0.933-2.416,1.953-3.256c2.466-2.03,6.114-1.643,8.13,0.805
		c2.182,2.651,1.635,6.369-0.961,8.506c-2.355,1.939-5.533,1.973-7.83-0.025L414.829,456.831z"/>
	<path fill="#FFFFFF" d="M418.576,442.144c-1.389-1.688-1.045-4.18,0.605-5.539c1.668-1.373,4.186-1.112,5.559,0.557
		c1.404,1.705,1.182,4.191-0.525,5.596C422.472,444.192,419.98,443.849,418.576,442.144z M423.668,438.013
		c-0.869-1.057-2.526-1.218-3.582-0.348c-1.076,0.885-1.334,2.498-0.434,3.592c0.931,1.131,2.547,1.357,3.697,0.41
		C424.462,440.751,424.584,439.125,423.668,438.013z M430.588,449.894l-5.021-18.078l1.057-0.871l5.039,18.064L430.588,449.894z
		 M432.322,443.612c-1.389-1.688-1.045-4.18,0.605-5.538c1.688-1.39,4.189-1.146,5.578,0.541c1.389,1.687,1.181,4.192-0.525,5.597
		C436.236,445.646,433.726,445.317,432.322,443.612z M437.416,439.481c-0.887-1.075-2.509-1.232-3.584-0.348
		c-1.076,0.887-1.315,2.484-0.415,3.578c0.931,1.131,2.532,1.337,3.663,0.406C438.192,442.202,438.331,440.595,437.416,439.481z"/>
</g>
<g>
	<path fill="#FFFFFF" d="M256.204,498.661l-4.513,6.33c0.826-0.537,1.503-0.788,2.512-0.771c3.17,0.059,5.594,2.746,5.537,5.844
		c-0.063,3.386-2.657,6.101-6.092,6.037c-3.458-0.064-6.049-2.898-5.985-6.309c0.027-1.488,0.625-2.654,1.464-3.863l5.18-7.304
		L256.204,498.661z M258.106,510.178c0.045-2.425-1.839-4.501-4.313-4.547c-2.425-0.045-4.43,1.912-4.475,4.313
		c-0.044,2.426,1.864,4.455,4.313,4.5C256.032,514.488,258.061,512.604,258.106,510.178z"/>
	<path fill="#FFFFFF" d="M263.219,502.754c0.048-2.594,2.194-4.379,4.741-4.332c2.328,0.043,4.311,1.977,4.266,4.33
		c-0.031,1.681-0.896,3.01-2.396,3.703c1.932,0.684,3.314,2.607,3.275,4.673c-0.055,3.026-2.596,5.284-5.572,5.229
		c-2.979-0.055-5.436-2.262-5.379-5.287c0.039-2.113,1.442-3.961,3.424-4.598C264.1,505.797,263.188,504.435,263.219,502.754z
		 M271.327,511.143c0.037-2.064-1.635-3.777-3.701-3.815c-2.041-0.038-3.752,1.636-3.791,3.677
		c-0.038,2.113,1.611,3.803,3.701,3.841C269.624,514.883,271.288,513.207,271.327,511.143z M270.661,502.939
		c0.031-1.633-1.24-3.002-2.875-3.031c-1.633-0.031-2.979,1.266-3.008,2.898s1.242,3.002,2.875,3.032
		S270.632,504.549,270.661,502.939z"/>
	<path fill="#FFFFFF" d="M275.692,502.552c0.041-2.185,1.922-3.856,4.059-3.817c2.162,0.041,3.904,1.875,3.865,4.035
		c-0.041,2.209-1.826,3.954-4.035,3.914C277.323,506.642,275.651,504.761,275.692,502.552z M282.247,502.721
		c0.025-1.369-1.129-2.566-2.498-2.592c-1.393-0.026-2.637,1.032-2.664,2.449c-0.025,1.465,1.057,2.686,2.545,2.713
		C281.071,505.317,282.219,504.162,282.247,502.721z M279.788,516.248l7.93-17.006l1.367,0.025l-7.904,17.006L279.788,516.248z
		 M285.188,512.6c0.041-2.186,1.92-3.855,4.057-3.816c2.186,0.04,3.932,1.85,3.891,4.035s-1.826,3.953-4.037,3.913
		C286.843,516.689,285.147,514.809,285.188,512.6z M291.743,512.77c0.025-1.394-1.105-2.567-2.498-2.594
		c-1.395-0.025-2.613,1.033-2.639,2.45c-0.027,1.465,1.055,2.661,2.52,2.688C290.567,515.342,291.718,514.209,291.743,512.77z"/>
</g>
<g>
	<path fill="#FFFFFF" d="M107.562,431.368l-1.076,1.197l-15.622,6.852l-1.393-1.252l15.81-6.844l-5.234-4.705l-2.071,2.305
		l-1.232-1.107l3.066-3.412L107.562,431.368z"/>
	<path fill="#FFFFFF" d="M111.014,449.521c-1.124,1.251-2.307,2.027-4.015,2.204c-1.676,0.14-3.37-0.382-4.639-1.521
		c-1.179-1.06-1.871-2.554-1.971-4.13c-0.116-1.848,0.527-3.208,1.731-4.548l3.581-3.983c1.124-1.25,2.306-2.027,4.017-2.17
		c1.692-0.158,3.386,0.365,4.636,1.488c1.18,1.061,1.889,2.569,1.972,4.13c0.116,1.848-0.527,3.208-1.731,4.548L111.014,449.521z
		 M103.387,442.665c-0.771,0.857-1.306,1.668-1.396,2.847c-0.133,1.333,0.431,2.647,1.413,3.53c1.019,0.914,2.452,1.332,3.78,1.04
		c1.108-0.263,1.808-0.862,2.562-1.701l3.564-3.966c0.771-0.857,1.324-1.651,1.414-2.83c0.134-1.332-0.429-2.646-1.43-3.546
		c-1-0.899-2.434-1.315-3.778-1.007c-1.092,0.246-1.809,0.828-2.563,1.668L103.387,442.665z"/>
	<path fill="#FFFFFF" d="M111.697,458.144l17.125-7.664l1.019,0.916l-17.108,7.68L111.697,458.144z M117.567,445.11
		c1.461-1.626,3.977-1.658,5.567-0.229c1.607,1.445,1.725,3.973,0.28,5.58c-1.477,1.643-3.969,1.793-5.612,0.315
		C116.123,449.269,116.09,446.753,117.567,445.11z M118.167,458.922c1.461-1.626,3.976-1.658,5.565-0.229
		c1.625,1.461,1.759,3.972,0.298,5.598c-1.461,1.625-3.969,1.793-5.613,0.314C116.74,463.096,116.69,460.565,118.167,458.922z
		 M122.411,449.528c0.915-1.018,0.827-2.68-0.19-3.595c-1.036-0.932-2.67-0.946-3.618,0.108c-0.979,1.089-0.96,2.721,0.147,3.717
		C119.822,450.722,121.448,450.601,122.411,449.528z M123.011,463.341c0.932-1.036,0.845-2.664-0.191-3.596
		c-1.037-0.932-2.652-0.93-3.599,0.124c-0.979,1.089-0.945,2.703,0.145,3.683C120.438,464.515,122.048,464.412,123.011,463.341z"/>
</g>
</svg>
