<?xml version="1.0" encoding="utf-8"?>
<!-- Generator: Adobe Illustrator 16.0.0, SVG Export Plug-In . SVG Version: 6.00 Build 0)  -->
<!DOCTYPE svg PUBLIC "-//W3C//DTD SVG 1.1//EN" "http://www.w3.org/Graphics/SVG/1.1/DTD/svg11.dtd">
<svg version="1.1" id="Capa_1" xmlns="http://www.w3.org/2000/svg" xmlns:xlink="http://www.w3.org/1999/xlink" x="0px" y="0px"
	 width="527.974px" height="533.982px" viewBox="0 0 527.974 533.982" enable-background="new 0 0 527.974 533.982"
	 xml:space="preserve">
<g>
	<g>
		<path fill="#ff4466" d="M112.284,344.846c-11.878-23.357-18.579-49.82-18.579-77.855c0-13.622,1.59-26.868,4.578-39.569
			l-84.851-15.806c-3.881,17.839-5.945,36.362-5.945,55.375c0,42.031,10.004,81.709,27.737,116.771L112.284,344.846z"/>
		<path fill="#ff4466" d="M369.593,132.663c27.031,21.52,47.406,51.114,57.539,85.16l84.076-19.768
			c-14.498-52.688-45.201-98.597-86.379-131.974L369.593,132.663z"/>
		<path fill="#ff4466" d="M104.069,208.03c16.251-44.561,50.395-80.439,93.68-98.836l-20.977-84.832
			c-75.69,27.518-134.813,89.827-158.286,167.727L104.069,208.03z"/>
		<path fill="#ff4466" d="M216.705,102.451c15.013-4.354,30.875-6.694,47.282-6.694c32.686,0,63.217,9.269,89.151,25.324
			l55.609-67.031C367.546,25.67,317.698,9.057,263.987,9.057c-23.58,0-46.41,3.217-68.099,9.208L216.705,102.451z"/>
		<path fill="#ff4466" d="M196.076,424.051c-30.035-13.15-55.564-34.748-73.616-61.82L45,401.346
			c28.501,46.877,71.47,83.877,122.659,104.752L196.076,424.051z"/>
		<path fill="#ff4466" d="M431.731,237.412c1.664,9.607,2.537,19.49,2.537,29.579c0,28.57-6.967,55.502-19.273,79.184l78.012,37.064
			c17.57-34.934,27.48-74.424,27.48-116.248c0-16.878-1.631-33.37-4.709-49.344L431.731,237.412z"/>
		<path fill="#ff4466" d="M317.696,429.524c-16.885,5.639-34.941,8.701-53.709,8.701c-17.077,0-33.563-2.539-49.117-7.244
			l-28.382,81.947c24.452,7.783,50.485,11.996,77.499,11.996c27.375,0,53.741-4.33,78.479-12.314L317.696,429.524z"/>
		<path fill="#ff4466" d="M404.646,363.516c-17.086,25.129-40.656,45.439-68.291,58.508l24.943,83.67
			c50.93-21.018,93.654-58.021,121.973-104.822L404.646,363.516z"/>
	</g>
	<g>
		<path fill="#FFFFFF" d="M237.98,55.833l-1.297,0.207c-1.002-1.17-2.576-1.755-4.103-1.511c-2.427,0.388-4.016,2.658-3.628,5.085
			c0.391,2.447,2.655,3.995,5.123,3.601c1.569-0.251,2.977-1.376,3.392-2.944l1.548-0.247c-0.452,2.41-2.438,4.208-4.844,4.592
			c-3.117,0.498-6.104-1.685-6.596-4.76c-0.25-1.569,0.125-3.109,0.966-4.295c0.875-1.234,2.146-2.145,3.736-2.398
			c1.548-0.248,2.945,0.173,4.13,1.142l-0.25-1.568l1.297-0.207L237.98,55.833z"/>
		<path fill="#FFFFFF" d="M239.383,57.943c-0.327-3.225,2.025-6.061,5.25-6.387c3.14-0.318,6.013,1.987,6.33,5.106
			c0.327,3.224-1.956,6.116-5.201,6.445C242.558,63.432,239.703,61.103,239.383,57.943z M249.58,56.887
			c-0.244-2.402-2.385-4.207-4.83-3.96c-2.444,0.248-4.227,2.409-3.981,4.832c0.244,2.402,2.388,4.229,4.853,3.979
			C248.066,61.491,249.825,59.311,249.58,56.887z"/>
		<path fill="#FFFFFF" d="M254.799,53.225c0.424-1.571,1.848-2.306,3.431-2.455l0.071,1.311c-2.442,0.345-3.464,1.843-3.335,4.211
			l0.241,4.463l1.861-0.102l0.071,1.312l-5.118,0.277l-0.071-1.312l1.861-0.101l-0.459-8.48l-1.861,0.101l-0.071-1.312l3.257-0.176
			L254.799,53.225z"/>
		<path fill="#FFFFFF" d="M271.139,58.551c-0.899,2.09-2.954,3.457-5.241,3.493c-3.198,0.051-5.844-2.471-5.894-5.647
			c-0.051-3.155,2.406-5.906,5.625-5.957c3.304-0.053,5.886,2.47,5.938,5.753l0.007,0.423l-10.166,0.161
			c0.163,2.286,2.14,4.055,4.427,4.019c1.61-0.025,3.038-0.811,3.821-2.221L271.139,58.551z M270.243,55.494
			c-0.354-2.262-2.348-3.818-4.614-3.783c-2.14,0.034-4.018,1.822-4.238,3.923L270.243,55.494z"/>
		<path fill="#FFFFFF" d="M275.677,60.608l1.841,0.068l-0.049,1.313l-5.228-0.196l0.049-1.312l1.99,0.074l0.468-12.486l-1.862-0.07
			l0.049-1.312l3.26,0.122L275.677,60.608z"/>
		<path fill="#FFFFFF" d="M294.681,61.18c-1.135,1.532-2.91,2.331-4.824,2.111c-1.746-0.199-3.641-1.525-4.434-3.172
			c-0.465-0.971-0.729-2.194-0.604-3.288c0.352-3.072,3.223-5.43,6.295-5.078c1.914,0.22,3.588,1.435,4.273,3.262l0.598-5.219
			l-1.852-0.212l0.15-1.305l3.24,0.371l-1.572,13.72l1.852,0.212l-0.148,1.305l-3.242-0.371L294.681,61.18z M295.087,58.007
			c0.281-2.44-1.494-4.627-3.914-4.903c-2.482-0.285-4.691,1.509-4.975,3.971c-0.279,2.44,1.535,4.652,3.955,4.93
			C292.636,62.289,294.804,60.491,295.087,58.007z"/>
		<path fill="#FFFFFF" d="M302.597,55.823c0.756-1.441,2.305-1.848,3.883-1.648l-0.217,1.295c-2.459-0.196-3.781,1.043-4.174,3.382
			l-0.736,4.408l1.838,0.308l-0.217,1.295l-5.055-0.846l0.217-1.295l1.838,0.308l1.4-8.377l-1.838-0.308l0.217-1.295l3.217,0.538
			L302.597,55.823z"/>
		<path fill="#FFFFFF" d="M315.786,65.131c-1.313,1.424-3.105,1.982-4.986,1.567c-1.984-0.438-3.59-1.812-4.193-3.593
			c-0.342-1.008-0.486-2.123-0.18-3.313c0.346-1.571,0.961-2.194,1.594-2.9c1.236-1.375,3.295-1.962,5.26-1.528
			c1.963,0.434,3.252,1.672,3.879,3.545l0.525-2.378l3.162,0.698l-0.283,1.281l-1.799-0.396l-1.828,8.291l1.799,0.396l-0.283,1.282
			l-3.164-0.698L315.786,65.131z M307.786,60.114c-0.516,2.337,0.99,4.751,3.367,5.275c2.461,0.543,4.813-0.977,5.346-3.396
			c0.525-2.378-0.994-4.729-3.371-5.254C310.729,56.21,308.315,57.716,307.786,60.114z"/>
		<path fill="#FFFFFF" d="M331.339,71.912l-1.398-0.427l-0.125-8.073l-4.938,6.528l-1.375-0.42l-0.359-10.358l-1.781-0.543
			l0.383-1.256l4.818,1.471l-0.383,1.256l-1.68-0.514l0.342,8.45l5.133-7.022l1.113,0.34l0.123,8.516l5.012-6.705l-1.721-0.525
			l0.383-1.255l4.84,1.477l-0.383,1.256l-1.781-0.544L331.339,71.912z"/>
		<path fill="#FFFFFF" d="M352.192,78.561l1.695,0.721l-0.514,1.208l-4.656-1.98l0.514-1.208l1.363,0.58l-0.906-3.929l-3.459,2.072
			l1.365,0.58l-0.514,1.208l-4.639-1.972l0.514-1.208l1.676,0.713l4.57-2.683l-1.266-5.14l-1.6-0.68l0.514-1.208l4.58,1.947
			l-0.514,1.208l-1.402-0.597l0.961,3.906l3.441-2.033l-1.48-0.63l0.514-1.208l4.6,1.955l-0.514,1.208l-1.58-0.671l-4.52,2.679
			L352.192,78.561z"/>
		<path fill="#FFFFFF" d="M369.954,71.843l-0.633,1.27l-11.662,9.494l-1.479-0.736l11.824-9.532l-5.553-2.768l-1.219,2.444
			l-1.307-0.651l1.803-3.62L369.954,71.843z"/>
		<path fill="#FFFFFF" d="M413.69,120.705l1.375,1.351l-0.98,0.997l-3.838-3.771l0.98-0.997l1.375,1.351l8.641-8.792l-1.375-1.351
			l0.98-0.997l3.836,3.771l-0.979,0.996l-1.375-1.351L413.69,120.705z"/>
		<path fill="#FFFFFF" d="M417.843,125.057l1.275,1.329l-0.947,0.909l-3.621-3.772l0.947-0.909l1.377,1.436l9.012-8.651
			l-1.289-1.344l0.947-0.909l2.258,2.352L417.843,125.057z"/>
		<path fill="#FFFFFF" d="M421.831,129.355l1.238,1.363l-0.973,0.883l-3.516-3.871l0.973-0.882l1.338,1.473l9.246-8.399
			l-1.254-1.379l0.973-0.883l2.191,2.413L421.831,129.355z"/>
		<path fill="#FFFFFF" d="M430.218,138.329c-1.502,0.311-3.014-0.253-4.027-1.477c-1.039-1.256-1.186-3.06-0.752-4.297
			c0.227-0.656,0.727-1.346,1.738-2.183l4.014-3.322l-1.189-1.436l1.012-0.837l2.08,2.512l-4.617,3.821
			c-0.799,0.662-1.553,1.313-1.805,2.402c-0.25,1.06,0.021,2.018,0.787,2.812c0.768,0.794,1.668,1.149,2.523,1.155
			c1.188,0.006,1.836-0.475,2.717-1.203l3.637-3.012l-1.188-1.436l1.01-0.837l2.08,2.512l-7.553,6.252l1.203,1.452l-1.012,0.837
			l-2.094-2.528L430.218,138.329z"/>
		<path fill="#FFFFFF" d="M441.421,142.428c0.447-0.357,0.658-0.856,0.66-1.387c0.002-0.529-0.172-1.085-0.525-1.562
			c-0.668-0.901-1.844-1.349-2.814-0.629c-1.123,0.833-0.6,2.106-0.117,3.146c0.381,0.799,0.758,1.627,0.838,2.518
			c0.121,1.017-0.32,1.951-1.137,2.557c-0.578,0.429-1.125,0.545-1.668,0.631c-1.133,0.181-2.471-0.594-3.242-1.632
			c-0.795-1.071-1.047-2.229-0.531-3.455l-1.072,0.795l-0.682-0.919l2.553-1.893l0.682,0.919c-1.014,0.909-1.094,2.473-0.197,3.68
			c0.73,0.987,2.102,1.448,3.139,0.678c1.225-0.908,0.664-2.127,0.137-3.266c-0.365-0.811-0.746-1.609-0.826-2.499
			c-0.066-0.979,0.324-1.875,1.107-2.456c0.611-0.454,1.176-0.688,1.871-0.676c1.072,0.022,2.123,0.799,2.74,1.633
			c0.619,0.833,0.885,1.797,0.516,2.756l0.834-0.618l0.682,0.919l-2.264,1.679L441.421,142.428z"/>
		<path fill="#FFFFFF" d="M439.239,151.485l1.486,2.165l-1.082,0.742l-2.277-3.316l8.082-5.546l-1.209-1.763l1.082-0.743
			l1.211,1.764l3.299-2.265l0.791,1.152l-3.301,2.264l1.391,2.025l-1.082,0.742l-1.391-2.024L439.239,151.485z"/>
		<path fill="#FFFFFF" d="M449.165,152.83c1.578-0.402,2.918,0.478,3.824,1.783l-1.107,0.706c-1.498-1.959-3.307-2.114-5.307-0.839
			l-3.771,2.401l1.002,1.572l-1.107,0.706l-2.754-4.324l1.107-0.705l1.002,1.572l7.164-4.565l-1.002-1.572l1.109-0.705l1.752,2.751
			L449.165,152.83z"/>
		<path fill="#FFFFFF" d="M451.073,168.861c-1.936-0.021-3.551-0.979-4.502-2.656c-1.002-1.768-1.057-3.88-0.139-5.521
			c0.521-0.928,1.254-1.782,2.342-2.352c1.4-0.794,2.275-0.755,3.223-0.758c1.85-0.002,3.664,1.136,4.656,2.885
			c0.994,1.75,0.936,3.536-0.035,5.256l2.117-1.202l1.6,2.818l-1.143,0.647l-0.908-1.602l-7.387,4.191l0.91,1.602l-1.143,0.648
			L449.067,170L451.073,168.861z M449.446,159.557c-2.08,1.182-2.867,3.916-1.664,6.034c1.244,2.191,3.947,2.922,6.102,1.699
			c2.117-1.202,2.848-3.905,1.646-6.023C454.317,159.13,451.583,158.345,449.446,159.557z"/>
		<path fill="#FFFFFF" d="M453.474,175.673l1.18,2.347l-1.172,0.59l-1.809-3.595l8.76-4.408l-0.963-1.911l1.174-0.591l0.961,1.911
			l3.576-1.8l0.629,1.249l-3.576,1.8l1.105,2.194l-1.174,0.591l-1.104-2.195L453.474,175.673z"/>
		<path fill="#FFFFFF" d="M458.735,176.736c2.957-1.323,6.389,0.019,7.713,2.976c1.289,2.881,0.004,6.334-2.857,7.614
			c-2.959,1.323-6.422,0.065-7.754-2.911C454.522,181.476,455.835,178.034,458.735,176.736z M462.942,186.084
			c2.203-0.986,3.244-3.587,2.24-5.83c-1.004-2.242-3.613-3.255-5.838-2.26c-2.203,0.986-3.264,3.596-2.252,5.857
			C458.097,186.094,460.72,187.08,462.942,186.084z"/>
		<path fill="#FFFFFF" d="M468.069,189.898c1.625-0.092,2.77,1.028,3.408,2.483l-1.223,0.48c-1.094-2.21-2.836-2.709-5.045-1.843
			l-4.16,1.633l0.682,1.734l-1.223,0.479l-1.871-4.771l1.221-0.479l0.682,1.734l7.906-3.102l-0.682-1.735l1.223-0.479l1.191,3.036
			L468.069,189.898z"/>
		<path fill="#FFFFFF" d="M474.61,249.044l0.16,1.921l-1.393,0.116l-0.449-5.36l1.393-0.116l0.162,1.92l12.281-1.03l-0.162-1.92
			l1.395-0.117l0.516,6.162c0.105,1.245-0.004,2.487-0.676,3.585c-0.732,1.166-2.029,1.912-3.4,2.027
			c-1.309,0.11-2.533-0.298-3.52-1.171c-1.125-0.989-1.389-2.115-1.508-3.529l-0.24-2.869L474.61,249.044z M480.79,251.268
			c0.078,0.949,0.213,1.788,0.91,2.494c0.697,0.707,1.596,1.035,2.566,0.954c0.949-0.08,1.818-0.62,2.348-1.408
			c0.543-0.854,0.586-1.622,0.504-2.593l-0.227-2.701l-6.33,0.531L480.79,251.268z"/>
		<path fill="#FFFFFF" d="M483.046,260.596c1.414,0.708,2.314,2.021,2.354,3.628c0.031,1.334-0.492,2.469-1.488,3.36
			c-1.119,1.001-2.367,1.095-3.785,1.128l-4.613,0.109l0.045,1.863l-1.313,0.031l-0.121-5.122l1.311-0.031l0.045,1.862l4.043-0.096
			c1.037-0.025,2.096,0.014,2.994-0.559c0.98-0.596,1.547-1.688,1.52-2.811c-0.021-0.973-0.426-1.875-1.16-2.492
			c-0.992-0.823-1.924-0.822-3.131-0.793l-4.424,0.104l0.045,1.862l-1.313,0.031l-0.121-5.121l1.311-0.031l0.045,1.862l12.486-0.297
			l-0.043-1.862l1.311-0.031l0.078,3.259L483.046,260.596z"/>
		<path fill="#FFFFFF" d="M479.694,271.041c3.238,0.119,5.725,2.839,5.605,6.077c-0.117,3.153-2.795,5.683-5.928,5.567
			c-3.238-0.119-5.789-2.777-5.67-6.036C473.821,273.431,476.521,270.924,479.694,271.041z M479.339,281.285
			c2.412,0.09,4.494-1.783,4.586-4.238c0.09-2.455-1.805-4.518-4.24-4.607c-2.412-0.088-4.516,1.784-4.605,4.26
			C474.987,279.154,476.905,281.196,479.339,281.285z"/>
		<path fill="#FFFFFF" d="M474.72,286.583l-0.213,2.617l-1.309-0.106l0.328-4.01l9.77,0.798l0.174-2.131l1.309,0.107l-0.174,2.131
			l3.988,0.326l-0.113,1.393l-3.988-0.326l-0.201,2.448l-1.307-0.106l0.199-2.449L474.72,286.583z"/>
		<path fill="#FFFFFF" d="M478.655,290.247c3.215,0.409,5.447,3.34,5.037,6.554c-0.396,3.131-3.291,5.411-6.4,5.016
			c-3.215-0.408-5.52-3.285-5.107-6.521C472.591,292.102,475.503,289.846,478.655,290.247z M477.384,300.418
			c2.395,0.305,4.637-1.375,4.947-3.812c0.309-2.438-1.395-4.661-3.811-4.969c-2.395-0.305-4.658,1.373-4.971,3.831
			C473.241,297.907,474.968,300.112,477.384,300.418z"/>
		<path fill="#FFFFFF" d="M478.687,309.269c0.566,0.08,1.074-0.109,1.461-0.47c0.387-0.361,0.672-0.87,0.775-1.453
			c0.197-1.104-0.283-2.267-1.471-2.479c-1.377-0.246-1.945,1.008-2.371,2.071c-0.32,0.825-0.664,1.667-1.256,2.336
			c-0.656,0.786-1.639,1.105-2.639,0.927c-0.709-0.127-1.168-0.445-1.604-0.781c-0.906-0.7-1.262-2.204-1.035-3.476
			c0.234-1.313,0.904-2.291,2.148-2.757l-1.313-0.234l0.201-1.126l3.127,0.559l-0.201,1.126c-1.357-0.113-2.549,0.899-2.813,2.38
			c-0.217,1.209,0.389,2.521,1.658,2.748c1.502,0.269,2.004-0.976,2.469-2.14c0.342-0.821,0.66-1.646,1.254-2.314
			c0.666-0.72,1.584-1.051,2.543-0.879c0.752,0.134,1.309,0.384,1.775,0.897c0.719,0.795,0.875,2.092,0.691,3.113
			c-0.182,1.021-0.699,1.875-1.65,2.265l1.02,0.183l-0.201,1.125l-2.771-0.495L478.687,309.269z"/>
		<path fill="#FFFFFF" d="M478.204,315.416c1.189,1.041,1.73,2.538,1.363,4.104c-0.305,1.299-1.098,2.266-2.285,2.879
			c-1.336,0.688-2.566,0.464-3.947,0.14l-4.494-1.055l-0.426,1.814l-1.277-0.3l1.17-4.989l1.277,0.3l-0.426,1.814l3.938,0.924
			c1.012,0.237,2.027,0.541,3.039,0.213c1.1-0.329,1.924-1.245,2.18-2.338c0.223-0.948,0.061-1.922-0.496-2.705
			c-0.754-1.047-1.656-1.28-2.832-1.556l-4.309-1.011l-0.426,1.813l-1.277-0.3l1.17-4.988l1.277,0.3l-0.424,1.813l12.162,2.854
			l0.426-1.814l1.277,0.3l-0.744,3.175L478.204,315.416z"/>
		<path fill="#FFFFFF" d="M472.337,324.68c3.104,0.934,4.82,4.192,3.887,7.296c-0.91,3.021-4.141,4.791-7.143,3.888
			c-3.102-0.934-4.898-4.15-3.959-7.273C466.05,325.508,469.296,323.764,472.337,324.68z M469.403,334.501
			c2.313,0.695,4.801-0.591,5.508-2.942c0.709-2.353-0.604-4.827-2.936-5.528c-2.313-0.696-4.82,0.584-5.535,2.956
			C465.733,331.339,467.071,333.799,469.403,334.501z"/>
		<path fill="#FFFFFF" d="M470.577,340.757c1.291,1.517,1.598,3.369,0.906,5.234c-0.617,1.668-2.049,3.215-4.164,3.561
			c-0.842,0.14-1.943,0.25-3.254-0.235c-2.998-1.11-4.564-4.378-3.461-7.355c0.654-1.767,2.199-3.136,4.078-3.389l-4.844-1.794
			l-0.648,1.747l-1.23-0.456l1.779-4.805l1.23,0.456l-0.646,1.747l11.832,4.384l0.646-1.747l1.23,0.456l-1.133,3.057
			L470.577,340.757z M464.55,348.006c2.582,0.956,5.049-0.342,5.732-2.55c0.719-2.307-0.055-4.852-2.615-5.8
			c-2.322-0.86-4.912,0.279-5.773,2.603C461.048,344.542,462.247,347.154,464.55,348.006z"/>
		<path fill="#FFFFFF" d="M429.435,399.786l-1.203,1.506l-1.092-0.873l3.359-4.202l1.092,0.874l-1.203,1.505l9.627,7.699
			l1.203-1.505l1.092,0.873l-3.361,4.201l-1.092-0.873l1.205-1.505L429.435,399.786z"/>
		<path fill="#FFFFFF" d="M431.54,409.458c0.57,1.435,0.148,3.066-0.861,4.21c-0.826,0.938-2.566,1.887-4.139,1.461
			c-0.596-0.158-1.566-0.563-2.582-1.459l-3.717-3.277l-1.234,1.397l-0.984-0.868l3.391-3.844l0.984,0.868l-1.232,1.397l3.336,2.941
			c0.746,0.659,1.475,1.273,2.463,1.466c1.17,0.242,2.234-0.485,2.936-1.279c0.645-0.73,0.984-1.758,0.85-2.725
			c-0.16-1.1-0.861-1.746-1.639-2.433l-3.463-3.054l-1.232,1.398l-0.984-0.869l3.389-3.844l0.984,0.868l-1.232,1.398l6.371,5.617
			l1.232-1.398l0.984,0.868l-2.158,2.446L431.54,409.458z"/>
		<path fill="#FFFFFF" d="M412.087,420.159c-0.488-1.843-0.004-3.728,1.361-5.085c1.246-1.238,3.465-1.891,5.244-1.48
			c1.047,0.242,2.168,0.8,2.943,1.58c2.18,2.192,2.229,5.904,0.035,8.084c-1.365,1.357-3.357,1.905-5.213,1.301l3.701,3.724
			l1.322-1.313l0.924,0.932l-2.311,2.298l-9.73-9.79l-1.322,1.313l-0.924-0.931l2.313-2.298L412.087,420.159z M414.31,422.456
			c1.73,1.742,4.545,1.721,6.271,0.005c1.771-1.761,1.75-4.605,0.006-6.362c-1.732-1.741-4.592-1.705-6.318,0.011
			C412.497,417.87,412.548,420.684,414.31,422.456z"/>
		<path fill="#FFFFFF" d="M401.681,430.552c-0.67-2.174,0.008-4.547,1.727-6.056c2.404-2.111,6.053-1.904,8.148,0.482
			c2.084,2.372,1.994,6.058-0.424,8.183c-2.482,2.181-6.084,1.932-8.25-0.535l-0.281-0.318l7.641-6.709
			c-1.605-1.635-4.258-1.701-5.977-0.192c-1.209,1.063-1.789,2.586-1.471,4.168L401.681,430.552z M404.343,432.301
			c1.734,1.493,4.264,1.387,5.965-0.108c1.607-1.412,1.881-3.99,0.688-5.734L404.343,432.301z"/>
		<path fill="#FFFFFF" d="M398.985,439.308c0.371,0.436,0.877,0.63,1.406,0.615c0.529-0.014,1.078-0.206,1.543-0.574
			c0.881-0.697,1.289-1.887,0.539-2.833c-0.867-1.096-2.123-0.532-3.148-0.018c-0.785,0.406-1.602,0.81-2.488,0.917
			c-1.014,0.154-1.961-0.257-2.592-1.054c-0.447-0.564-0.58-1.107-0.684-1.647c-0.217-1.126,0.514-2.488,1.527-3.291
			c1.045-0.828,2.195-1.117,3.438-0.642l-0.83-1.046l0.896-0.71l1.973,2.49l-0.896,0.71c-0.941-0.983-2.506-1.014-3.684-0.08
			c-0.963,0.763-1.379,2.146-0.578,3.159c0.947,1.195,2.148,0.596,3.27,0.032c0.799-0.39,1.584-0.796,2.471-0.904
			c0.977-0.099,1.885,0.264,2.49,1.027c0.473,0.598,0.725,1.154,0.734,1.849c0.012,1.072-0.73,2.146-1.545,2.791
			c-0.813,0.645-1.768,0.941-2.738,0.603l0.645,0.813l-0.896,0.71l-1.748-2.207L398.985,439.308z"/>
		<path fill="#FFFFFF" d="M390.019,437.309l-1.498,1.108l-0.779-1.056l4.154-3.072l0.781,1.056l-1.533,1.134l5.047,6.828l1.5-1.107
			l0.779,1.056l-2.621,1.938L390.019,437.309z M396.931,446.659l1.123-0.831l1.297,1.754l-1.123,0.831L396.931,446.659z"/>
		<path fill="#FFFFFF" d="M385.036,437.833c-1.328-0.767-2.99-0.622-4.258,0.226c-0.949,0.637-1.623,1.724-1.797,2.834
			c-0.238,1.357,0.135,2.255,0.877,3.363l0.658,0.985c-0.232-1.908,0.609-3.695,2.246-4.791c1.32-0.883,3.82-1.411,5.584-0.451
			c0.717,0.386,1.711,1.071,2.406,2.109c0.742,1.108,1.02,2.323,0.998,3.204c-0.049,1.944-1.002,3.755-2.604,4.826
			c-1.584,1.061-3.563,1.188-5.119,0.346l1.318,1.97l-2.709,1.814l-0.73-1.091l1.549-1.037l-4.605-6.879
			c-0.943-1.407-1.504-2.586-1.236-4.319c0.248-1.645,1.209-3.026,2.564-3.934c1.828-1.226,4.354-1.488,6.195-0.071L385.036,437.833
			z M382.149,447.868c1.367,2.041,4.15,2.623,6.209,1.245c2.059-1.379,2.588-4.204,1.209-6.263
			c-1.365-2.041-4.191-2.569-6.232-1.203C381.276,443.025,380.782,445.828,382.149,447.868z"/>
		<path fill="#FFFFFF" d="M377.976,454.751c0.082,1.541-0.838,2.954-2.158,3.716c-1.082,0.625-3.035,0.97-4.391,0.064
			c-0.514-0.339-1.305-1.031-1.982-2.205l-2.477-4.292l-1.615,0.932l-0.656-1.137l4.439-2.563l0.656,1.138l-1.615,0.932l2.225,3.852
			c0.498,0.862,0.992,1.677,1.867,2.175c1.031,0.603,2.273,0.253,3.189-0.277c0.844-0.487,1.494-1.352,1.674-2.311
			c0.201-1.094-0.258-1.93-0.777-2.829l-2.309-3.998l-1.613,0.932l-0.656-1.137l4.438-2.563l0.658,1.137l-1.615,0.932l4.246,7.355
			l1.615-0.933l0.656,1.138l-2.824,1.631L377.976,454.751z"/>
		<path fill="#FFFFFF" d="M300.542,473.498l0.246,1.376l-1.939,0.346l2.092,3.154l6.898-1.232l0.912-3.69l-1.877,0.336l-0.246-1.376
			l5.316-0.949l0.244,1.375l-1.854,0.332l-3.232,13.095l1.98-0.354l0.246,1.376l-3.898,0.696l-8.248-12.465l-1.855,0.332
			l-0.246-1.376L300.542,473.498z M305.858,486.163l1.762-7.714l-6.023,1.076L305.858,486.163z"/>
		<path fill="#FFFFFF" d="M292.612,483.874c-0.557,1.44-1.975,2.352-3.492,2.507c-1.242,0.127-3.166-0.358-4.031-1.739
			c-0.33-0.52-0.768-1.476-0.906-2.824l-0.503-4.931l-1.854,0.188l-0.134-1.306l5.1-0.521l0.133,1.307l-1.854,0.189l0.451,4.426
			c0.102,0.99,0.219,1.937,0.813,2.748c0.695,0.973,1.971,1.162,3.025,1.055c0.969-0.1,1.916-0.622,2.473-1.424
			c0.631-0.916,0.555-1.866,0.449-2.899l-0.469-4.594l-1.854,0.189l-0.135-1.307l5.1-0.521l0.135,1.307l-1.855,0.189l0.863,8.45
			l1.854-0.189l0.135,1.307l-3.246,0.331L292.612,483.874z"/>
		<path fill="#FFFFFF" d="M277.947,477.214l-1.86,0.104l-0.074-1.311l5.16-0.291l0.074,1.312l-1.903,0.107l0.477,8.48l1.861-0.104
			l0.074,1.311l-3.257,0.184L277.947,477.214z M278.6,488.825l1.396-0.078l0.122,2.179l-1.396,0.078L278.6,488.825z"/>
		<path fill="#FFFFFF" d="M272.495,485.483c-0.657,1.303-1.878,2.088-3.424,2.063c-1.567-0.026-2.762-0.809-3.48-2.177l-0.226-0.428
			c-0.641,1.536-2.224,2.506-3.813,2.479c-2.139-0.035-3.267-1.008-3.897-2.606c-0.265-0.661-0.297-1.276-0.277-2.483l0.083-4.978
			l-1.864-0.03l0.022-1.313l5.125,0.085l-0.022,1.313l-1.863-0.031l-0.077,4.659c-0.017,1.017,0.109,2.332,0.629,2.935
			c0.624,0.73,1.486,1.083,2.354,1.098c0.805,0.014,1.765-0.331,2.368-0.999c0.734-0.813,0.81-1.554,0.827-2.592l0.083-4.998
			l-1.864-0.031l0.022-1.313l5.125,0.085l-0.021,1.313l-1.864-0.03l-0.078,4.701c-0.021,1.313,0.32,2.421,0.63,2.892
			c0.559,0.856,1.508,1.084,2.354,1.099c1.06,0.018,1.765-0.331,2.348-0.999c0.712-0.814,0.833-1.702,0.851-2.74l0.08-4.85
			l-1.864-0.031l0.022-1.313l5.125,0.085l-0.021,1.313l-1.864-0.031l-0.141,8.493l1.864,0.031l-0.022,1.313l-3.262-0.054
			L272.495,485.483z"/>
		<path fill="#FFFFFF" d="M245.01,477.393c1.115-1.583,2.821-2.37,4.741-2.204c2.026,0.176,3.797,1.329,4.628,3.017
			c0.47,0.955,0.758,2.044,0.61,3.264c-0.139,1.604-0.667,2.303-1.203,3.085c-1.047,1.525-3.013,2.375-5.018,2.201
			s-3.443-1.234-4.31-3.011l-0.21,2.427l-3.229-0.279l0.114-1.309l1.836,0.159l0.734-8.462l-1.836-0.16l0.113-1.308l3.229,0.28
			L245.01,477.393z M253.599,481.328c0.207-2.385-1.601-4.583-4.028-4.793c-2.511-0.219-4.646,1.595-4.86,4.064
			c-0.211,2.427,1.603,4.562,4.029,4.771C251.188,485.583,253.386,483.776,253.599,481.328z"/>
		<path fill="#FFFFFF" d="M238.068,475.52l-2.602-0.354l0.177-1.301l3.986,0.542l-1.321,9.714l2.119,0.288l-0.177,1.301
			l-2.119-0.288l-0.54,3.966l-1.385-0.188l0.54-3.966l-2.434-0.331l0.177-1.301l2.434,0.331L238.068,475.52z"/>
		<path fill="#FFFFFF" d="M223.695,474.917c1.291-1.874,3.572-2.813,5.821-2.4c3.145,0.576,5.246,3.565,4.673,6.69
			c-0.568,3.103-3.515,5.319-6.681,4.739c-3.249-0.596-5.287-3.573-4.695-6.802l0.076-0.417l9.998,1.832
			c0.287-2.272-1.305-4.395-3.555-4.807c-1.583-0.289-3.136,0.201-4.18,1.431L223.695,474.917z M223.976,478.089
			c-0.096,2.286,1.555,4.203,3.784,4.611c2.104,0.385,4.295-1,4.922-3.017L223.976,478.089z"/>
		<path fill="#FFFFFF" d="M157.356,458.763c-1.14,1.811-3.523,2.155-5.283,1.096c-1.796-1.081-2.57-3.327-1.445-5.196
			c0.721-1.197,1.986-1.943,3.402-1.709c-1.229-1.407-1.371-3.471-0.398-5.085c1.376-2.286,4.371-2.906,6.602-1.563
			c2.322,1.398,3.229,4.121,1.936,6.556l-1.324-0.798c0.798-1.571,0.376-3.58-1.184-4.52c-1.688-1.017-3.759-0.409-4.753,1.241
			c-1.016,1.688-0.249,3.781,1.365,4.753l0.653,0.394l-0.612,1.016l-0.617-0.371c-0.617-0.371-1.234-0.619-1.982-0.526
			c-0.749,0.094-1.392,0.546-1.785,1.199c-0.776,1.288-0.418,2.789,0.852,3.554c1.125,0.678,2.614,0.339,3.357-0.771
			L157.356,458.763z"/>
		<path fill="#FFFFFF" d="M145.174,453.433l1.599,1.112l-0.797,1.146l-5.527-3.843c-1.773-1.232-2.821-2.58-3.242-4.755
			c-0.383-2.046,0.14-4.132,1.324-5.835c1.136-1.634,2.878-2.769,4.842-3.182c2.199-0.456,3.897,0.105,5.705,1.362l5.526,3.843
			l-0.797,1.147l-1.599-1.112L145.174,453.433z M148.522,440.756c-1.495-1.039-2.897-1.654-4.743-1.262
			c-1.568,0.327-3.091,1.331-4.01,2.652c-0.967,1.391-1.443,3.225-1.095,4.911c0.37,1.804,1.285,2.75,2.762,3.777l2.485,1.728
			l7.033-10.115L148.522,440.756z"/>
		<path fill="#FFFFFF" d="M128.936,435.827c-1.345,0.564-2.783,0.37-3.942-0.653c-1.176-1.036-1.577-2.406-1.236-3.913l0.105-0.472
			c-1.483,0.753-3.317,0.463-4.508-0.588c-1.604-1.414-1.832-2.886-1.273-4.511c0.228-0.675,0.602-1.164,1.4-2.069l3.292-3.732
			l-1.398-1.232l0.869-0.985l3.844,3.39l-0.868,0.985l-1.398-1.232l-3.082,3.494c-0.673,0.763-1.43,1.846-1.425,2.641
			c0,0.96,0.427,1.788,1.079,2.362c0.604,0.533,1.557,0.893,2.449,0.777c1.086-0.144,1.625-0.657,2.311-1.436l3.306-3.749
			l-1.398-1.232l0.869-0.985l3.844,3.39l-0.868,0.985l-1.398-1.232l-3.11,3.526c-0.868,0.984-1.327,2.049-1.396,2.608
			c-0.131,1.014,0.443,1.803,1.079,2.363c0.794,0.7,1.557,0.893,2.434,0.762c1.07-0.157,1.738-0.754,2.425-1.532l3.208-3.638
			l-1.398-1.232l0.869-0.985l3.844,3.39l-0.868,0.985l-1.398-1.232l-5.617,6.369l1.398,1.232l-0.868,0.985l-2.446-2.157
			L128.936,435.827z"/>
		<path fill="#FFFFFF" d="M113.433,411.64c1.88-0.458,3.682,0.071,5.018,1.46c1.409,1.465,1.983,3.497,1.499,5.314
			c-0.274,1.028-0.773,2.037-1.688,2.857c-1.16,1.116-2.017,1.294-2.935,1.531c-1.791,0.459-3.83-0.194-5.224-1.644
			c-1.395-1.45-1.78-3.194-1.264-5.102l-1.754,1.688l-2.246-2.335l0.946-0.91l1.277,1.328l6.119-5.887l-1.277-1.327l0.946-0.91
			l2.246,2.335L113.433,411.64z M117.309,420.25c1.725-1.658,1.81-4.502,0.121-6.257c-1.747-1.815-4.546-1.855-6.332-0.138
			c-1.754,1.688-1.794,4.487-0.106,6.242C112.696,421.869,115.539,421.954,117.309,420.25z"/>
		<path fill="#FFFFFF" d="M105.22,400.722l-1.192-1.404l1.001-0.85l3.275,3.858l-1.001,0.85l-0.959-1.13l-0.952,3.918l4.021-0.302
			l-0.959-1.13l1.001-0.85l3.261,3.842l-1.001,0.85l-1.178-1.389l-5.287,0.349l-1.173,5.162l1.124,1.324l-1.001,0.85l-3.22-3.794
			l1.001-0.85l0.987,1.162l0.892-3.923l-3.988,0.274l1.041,1.228l-1,0.85l-3.234-3.811l1.001-0.85l1.11,1.308l5.243-0.367
			L105.22,400.722z"/>
		<path fill="#FFFFFF" d="M73.348,346.932l-0.701-1.796l1.302-0.508l1.957,5.011l-1.302,0.509l-0.701-1.796l-11.482,4.485
			l0.701,1.795l-1.302,0.509l-2.25-5.761c-0.455-1.164-0.704-2.386-0.372-3.63c0.369-1.326,1.4-2.411,2.683-2.912
			c1.223-0.478,2.513-0.436,3.708,0.12c1.359,0.629,1.934,1.633,2.45,2.955l1.048,2.683L73.348,346.932z M66.791,346.56
			c-0.347-0.888-0.714-1.654-1.583-2.133c-0.87-0.479-1.825-0.538-2.732-0.184c-0.888,0.347-1.566,1.111-1.849,2.018
			c-0.279,0.974-0.101,1.723,0.254,2.63l0.986,2.525l5.919-2.312L66.791,346.56z"/>
		<path fill="#FFFFFF" d="M62.198,338.246c-1.627,0.012-2.715-1.163-3.283-2.647l1.244-0.419c0.985,2.26,2.701,2.844,4.948,2.086
			l4.234-1.426l-0.595-1.766l1.244-0.42l1.636,4.856l-1.244,0.419l-0.595-1.766l-8.046,2.711l0.595,1.766l-1.244,0.419l-1.041-3.09
			L62.198,338.246z"/>
		<path fill="#FFFFFF" d="M63.027,321.077c2.25,0.335,4.097,1.971,4.716,4.173c0.866,3.078-0.895,6.279-3.952,7.141
			c-3.038,0.854-6.324-0.816-7.196-3.915c-0.895-3.181,0.883-6.321,4.043-7.21l0.408-0.115l2.754,9.785
			c2.167-0.742,3.373-3.105,2.752-5.307c-0.436-1.549-1.56-2.729-3.123-3.125L63.027,321.077z M60.301,322.724
			c-2.095,0.919-3.09,3.245-2.477,5.427c0.58,2.059,2.788,3.417,4.875,3.094L60.301,322.724z"/>
		<path fill="#FFFFFF" d="M55.962,317.915c-1.411-0.368-2.435-1.395-2.736-2.911c-0.305-1.537,0.208-2.869,1.393-3.859l0.37-0.311
			c-1.635-0.302-2.917-1.645-3.225-3.202c-0.417-2.098,0.296-3.404,1.726-4.357c0.59-0.397,1.184-0.559,2.368-0.793l4.88-0.969
			l-0.362-1.827l1.288-0.256l0.997,5.026l-1.288,0.255l-0.363-1.827l-4.569,0.906c-0.997,0.197-2.255,0.599-2.734,1.233
			c-0.583,0.763-0.746,1.68-0.577,2.531c0.156,0.789,0.695,1.654,1.475,2.104c0.95,0.546,1.689,0.464,2.707,0.262l4.901-0.973
			l-0.362-1.827l1.287-0.256l0.997,5.026l-1.288,0.255l-0.362-1.827l-4.61,0.914c-1.288,0.256-2.297,0.823-2.692,1.226
			c-0.72,0.726-0.742,1.701-0.577,2.531c0.206,1.039,0.695,1.654,1.471,2.083c0.946,0.524,1.839,0.455,2.856,0.254l4.756-0.944
			l-0.363-1.827l1.288-0.256l0.997,5.026l-1.288,0.255l-0.362-1.827l-8.328,1.652l0.362,1.827l-1.288,0.256l-0.634-3.198
			L55.962,317.915z"/>
		<path fill="#FFFFFF" d="M48.603,297.603l0.185,1.386l-2.163,0.289l-0.185-1.386L48.603,297.603z M60.13,296.062l-0.247-1.848
			l1.302-0.174l0.685,5.123l-1.302,0.174l-0.253-1.89l-8.419,1.126l0.247,1.848l-1.302,0.174l-0.432-3.233L60.13,296.062z"/>
		<path fill="#FFFFFF" d="M56.994,283.138c2.151,0.739,3.668,2.686,3.876,4.963c0.29,3.184-2.025,6.01-5.188,6.299
			c-3.142,0.286-6.068-1.956-6.36-5.161c-0.3-3.29,2.021-6.054,5.29-6.351l0.421-0.039l0.923,10.122
			c2.266-0.334,3.882-2.438,3.674-4.715c-0.146-1.603-1.036-2.968-2.5-3.642L56.994,283.138z M54.013,284.261
			c-2.228,0.521-3.63,2.627-3.424,4.883c0.194,2.13,2.117,3.868,4.228,3.932L54.013,284.261z"/>
		<path fill="#FFFFFF" d="M51.077,278.923c-1.566-0.439-2.286-1.871-2.419-3.454l1.311-0.058c0.319,2.443,1.806,3.48,4.175,3.377
			l4.462-0.197l-0.082-1.861l1.311-0.057l0.225,5.117l-1.311,0.058l-0.082-1.86l-8.48,0.373l0.082,1.861l-1.312,0.057l-0.143-3.256
			L51.077,278.923z"/>
		<path fill="#FFFFFF" d="M51.076,264.551c-1.701-1.034-2.575-2.697-2.505-4.687c0.063-1.777,0.936-3.696,2.836-4.688
			c0.756-0.397,1.768-0.849,3.165-0.8c3.196,0.113,5.71,2.724,5.598,5.898c-0.066,1.883-1.104,3.668-2.808,4.498l5.164,0.184
			l0.066-1.863l1.313,0.047l-0.181,5.121l-1.312-0.046l0.065-1.862l-12.613-0.445l-0.066,1.861l-1.313-0.046l0.115-3.259
			L51.076,264.551z M54.522,255.773c-2.751-0.097-4.687,1.911-4.642,4.223c0.042,2.417,1.575,4.59,4.306,4.688
			c2.476,0.087,4.577-1.81,4.665-4.285C58.937,257.963,56.977,255.86,54.522,255.773z"/>
		<path fill="#FFFFFF" d="M51.64,250.308c-1.497-0.64-2.024-2.153-1.95-3.741l1.308,0.113c-0.001,2.467,1.339,3.688,3.702,3.894
			l4.453,0.387l0.161-1.857l1.309,0.113l-0.443,5.107l-1.308-0.114l0.161-1.856l-8.462-0.734l-0.161,1.856l-1.309-0.113l0.282-3.25
			L51.64,250.308z"/>
		<path fill="#FFFFFF" d="M55.404,245.572c-3.21-0.441-5.412-3.396-4.971-6.605c0.43-3.126,3.347-5.376,6.452-4.949
			c3.21,0.441,5.484,3.341,5.04,6.572C61.487,243.778,58.551,246.004,55.404,245.572z M56.779,235.414
			c-2.392-0.328-4.65,1.328-4.985,3.762c-0.335,2.434,1.345,4.674,3.758,5.006c2.392,0.328,4.671-1.325,5.009-3.779
			C60.896,237.967,59.192,235.746,56.779,235.414z"/>
		<path fill="#FFFFFF" d="M65.129,178.701l-0.838,1.759l-1.262-0.601l2.896-6.08c0.929-1.95,2.089-3.204,4.168-3.973
			c1.957-0.71,4.101-0.533,5.975,0.359c1.797,0.856,3.2,2.394,3.927,4.265c0.807,2.097,0.528,3.864-0.419,5.853l-2.897,6.08
			l-1.262-0.602l0.838-1.759L65.129,178.701z M78.188,179.95c0.784-1.645,1.163-3.13,0.476-4.888
			c-0.578-1.496-1.816-2.836-3.269-3.528c-1.529-0.729-3.418-0.901-5.026-0.283c-1.721,0.657-2.506,1.715-3.281,3.34l-1.303,2.734
			l11.127,5.301L78.188,179.95z"/>
		<path fill="#FFFFFF" d="M76.971,165.882c-1.115-1.187-0.992-2.784-0.288-4.209l1.153,0.628c-0.989,2.259-0.251,3.915,1.832,5.05
			l3.925,2.138l0.892-1.637l1.153,0.628l-2.452,4.502l-1.153-0.629l0.892-1.637l-7.458-4.063l-0.892,1.637l-1.153-0.628l1.561-2.865
			L76.971,165.882z"/>
		<path fill="#FFFFFF" d="M90.142,154.821c1.284,1.879,1.338,4.347,0.143,6.298c-1.67,2.728-5.217,3.611-7.927,1.952
			c-2.692-1.648-3.699-5.196-2.018-7.942c1.726-2.818,5.239-3.647,8.04-1.933l0.361,0.221l-5.31,8.672
			c2.018,1.087,4.571,0.364,5.766-1.587c0.841-1.373,0.943-2.999,0.17-4.416L90.142,154.821z M87.08,153.939
			c-2.099-0.912-4.483-0.062-5.667,1.871c-1.117,1.825-0.613,4.369,1.042,5.681L87.08,153.939z"/>
		<path fill="#FFFFFF" d="M97.322,145.848c0.81,1.758,0.636,3.628-0.471,5.205c-1.167,1.664-3.052,2.618-4.929,2.491
			c-1.062-0.072-2.147-0.368-3.128-1.108c-1.317-0.925-1.657-1.731-2.065-2.587c-0.794-1.67-0.544-3.796,0.611-5.442
			c1.155-1.647,2.794-2.36,4.764-2.22l-1.993-1.398l1.86-2.651l1.075,0.754l-1.058,1.508l6.951,4.877l1.058-1.509l1.075,0.754
			l-1.861,2.652L97.322,145.848z M89.614,151.304c1.959,1.374,4.766,0.912,6.165-1.081c1.447-2.063,0.949-4.818-1.079-6.241
			c-1.994-1.398-4.749-0.9-6.147,1.094C87.141,147.086,87.603,149.893,89.614,151.304z"/>
		<path fill="#FFFFFF" d="M96.113,135.89c-0.604-1.328-0.451-2.771,0.538-3.959c1.001-1.205,2.359-1.646,3.875-1.349l0.475,0.091
			c-0.796-1.46-0.56-3.301,0.456-4.521c1.367-1.645,2.831-1.915,4.471-1.404c0.681,0.208,1.18,0.567,2.108,1.339l3.826,3.181
			l1.191-1.433l1.009,0.839l-3.275,3.94l-1.009-0.839l1.191-1.433l-3.582-2.979c-0.781-0.649-1.885-1.374-2.68-1.347
			c-0.959,0.028-1.775,0.479-2.33,1.147c-0.514,0.618-0.847,1.581-0.705,2.47c0.175,1.082,0.704,1.604,1.502,2.268l3.842,3.194
			l1.191-1.433l1.01,0.839l-3.275,3.939l-1.009-0.839l1.191-1.433l-3.615-3.005c-1.009-0.839-2.086-1.266-2.647-1.319
			c-1.017-0.102-1.789,0.495-2.33,1.146c-0.677,0.814-0.847,1.582-0.691,2.454c0.188,1.065,0.804,1.715,1.602,2.378l3.729,3.1
			l1.191-1.433l1.009,0.839l-3.275,3.94l-1.01-0.839l1.191-1.433l-6.528-5.428l-1.191,1.433l-1.009-0.839l2.084-2.508L96.113,135.89
			z"/>
		<path fill="#FFFFFF" d="M123.569,119.269l-1.035,1.03l-7.177-3.696l3.427,7.432l-1.02,1.016l-9.302-4.569l-1.32,1.314
			l-0.926-0.931l3.57-3.555l0.926,0.93l-1.245,1.24l7.611,3.683l-3.771-7.836l0.825-0.822l7.566,3.907l-3.547-7.581l-1.275,1.27
			l-0.926-0.93l3.585-3.57l0.926,0.93l-1.32,1.314L123.569,119.269z"/>
		<path fill="#FFFFFF" d="M133.955,105.896c0.645,2.181-0.061,4.545-1.796,6.035c-2.426,2.083-6.072,1.835-8.141-0.575
			c-2.056-2.394-1.925-6.078,0.517-8.175c2.506-2.152,6.104-1.863,8.242,0.627l0.276,0.322l-7.712,6.621
			c1.586,1.652,4.237,1.749,5.972,0.259c1.221-1.048,1.817-2.564,1.517-4.149L133.955,105.896z M131.312,104.118
			c-1.717-1.513-4.246-1.435-5.965,0.041c-1.623,1.394-1.924,3.969-0.751,5.725L131.312,104.118z"/>
		<path fill="#FFFFFF" d="M143.543,99.553c0.232,1.922-0.507,3.648-2.044,4.811c-1.622,1.227-3.708,1.556-5.456,0.86
			c-0.988-0.395-1.931-1.01-2.638-2.015c-0.971-1.284-1.046-2.156-1.173-3.096c-0.244-1.833,0.646-3.78,2.251-4.994
			c1.604-1.213,3.383-1.39,5.215-0.651l-1.469-1.942l2.584-1.954l0.792,1.048l-1.469,1.111l5.121,6.773l1.47-1.111l0.792,1.047
			l-2.584,1.954L143.543,99.553z M134.533,102.383c1.443,1.909,4.257,2.33,6.2,0.861c2.01-1.52,2.38-4.296,0.886-6.271
			c-1.469-1.943-4.245-2.313-6.187-0.845C133.473,97.61,133.052,100.424,134.533,102.383z"/>
		<path fill="#FFFFFF" d="M153.755,95.34l-1.309,0.861l-8.715-5.999l-1.556,1.024l-0.722-1.097l4.262-2.806l0.722,1.096
			l-1.415,0.932l7.177,5.01l-1.694-8.619l-1.485,0.979l-0.722-1.097l4.227-2.782l0.722,1.097l-1.486,0.978L153.755,95.34z"/>
		<path fill="#FFFFFF" d="M166.914,83.803c0.225,2.265-0.911,4.455-2.895,5.594c-2.774,1.593-6.31,0.666-7.891-2.089
			c-1.571-2.737-0.753-6.334,2.04-7.937c2.866-1.645,6.346-0.687,7.98,2.161l0.211,0.367l-8.818,5.061
			c1.249,1.921,3.835,2.513,5.819,1.374c1.396-0.801,2.266-2.18,2.269-3.793L166.914,83.803z M164.65,81.561
			c-1.404-1.808-3.903-2.204-5.869-1.076c-1.855,1.064-2.634,3.539-1.811,5.484L164.65,81.561z"/>
		<path fill="#FFFFFF" d="M168.267,76.678c-0.253-1.607,0.748-2.858,2.132-3.639l0.599,1.168c-2.089,1.309-2.412,3.093-1.331,5.203
			l2.038,3.977l1.658-0.851l0.599,1.169l-4.561,2.337l-0.599-1.168l1.659-0.85l-3.874-7.557l-1.658,0.85l-0.599-1.168l2.902-1.488
			L168.267,76.678z"/>
	</g>
	<circle fill="none" stroke="#ff4466" stroke-width="5" stroke-miterlimit="10" cx="263.987" cy="266.991" r="139.5"/>
	<g>
		<path fill="#ff4466" d="M223.144,237.331c2.2,1.993,3.3,4.765,3.3,8.315s-1.067,6.361-3.202,8.431
			c-2.135,2.069-5.403,3.104-9.803,3.104h-7.581v-22.84h7.842C217.796,234.34,220.943,235.337,223.144,237.331z M222.556,245.744
			c0-5.228-2.996-7.842-8.986-7.842h-3.855v15.651h4.28c2.766,0,4.885-0.658,6.355-1.977
			C221.82,250.259,222.556,248.315,222.556,245.744z"/>
		<path fill="#ff4466" d="M231.117,236.333c-0.458-0.457-0.686-1.002-0.686-1.634s0.229-1.176,0.686-1.634
			c0.458-0.457,1.001-0.687,1.634-0.687c0.631,0,1.176,0.229,1.634,0.687c0.458,0.458,0.686,1.002,0.686,1.634
			s-0.229,1.177-0.686,1.634s-1.002,0.687-1.634,0.687C232.118,237.02,231.574,236.791,231.117,236.333z M234.547,257.18h-3.66
			v-17.383h3.66V257.18z"/>
		<path fill="#ff4466" d="M252.225,251.985c0,1.656-0.6,2.979-1.797,3.971c-1.198,0.991-2.734,1.486-4.607,1.486
			c-1.264,0-2.577-0.229-3.938-0.687c-1.362-0.457-2.565-1.1-3.611-1.928l1.765-2.843c2.026,1.525,3.986,2.287,5.881,2.287
			c0.828,0,1.481-0.19,1.961-0.571c0.479-0.381,0.719-0.866,0.719-1.454c0-0.871-1.155-1.655-3.464-2.353
			c-0.174-0.065-0.305-0.109-0.392-0.131c-3.616-0.98-5.424-2.614-5.424-4.901c0-1.612,0.626-2.902,1.879-3.872
			c1.252-0.969,2.88-1.454,4.885-1.454c2.004,0,3.899,0.588,5.686,1.765l-1.373,2.712c-1.416-0.937-2.952-1.405-4.607-1.405
			c-0.872,0-1.58,0.158-2.124,0.474c-0.545,0.316-0.817,0.79-0.817,1.422c0,0.566,0.283,0.98,0.85,1.241
			c0.392,0.196,0.942,0.382,1.65,0.556c0.708,0.175,1.334,0.349,1.879,0.523c0.544,0.174,1.073,0.37,1.585,0.588
			c0.511,0.218,1.062,0.522,1.65,0.915C251.636,249.11,252.225,250.33,252.225,251.985z"/>
		<path fill="#ff4466" d="M272.548,250.09h-13.625c0.087,1.263,0.664,2.281,1.732,3.055c1.067,0.773,2.287,1.16,3.66,1.16
			c2.178,0,3.833-0.687,4.967-2.059l2.091,2.287c-1.874,1.939-4.313,2.908-7.319,2.908c-2.44,0-4.515-0.812-6.225-2.435
			c-1.71-1.622-2.565-3.801-2.565-6.535c0-2.733,0.871-4.906,2.614-6.519c1.742-1.611,3.795-2.418,6.159-2.418
			c2.363,0,4.373,0.714,6.029,2.141c1.655,1.427,2.483,3.393,2.483,5.897V250.09z M258.922,247.214h9.966
			c0-1.459-0.457-2.581-1.372-3.365s-2.042-1.177-3.382-1.177c-1.34,0-2.543,0.408-3.611,1.226
			C259.456,244.714,258.922,245.821,258.922,247.214z"/>
		<path fill="#ff4466" d="M280.227,247.77v9.41h-3.66v-17.383h3.66v3.169c0.588-1.066,1.399-1.905,2.435-2.516
			c1.034-0.609,2.15-0.915,3.35-0.915c1.961,0,3.545,0.6,4.754,1.797c1.209,1.198,1.814,2.931,1.814,5.195v10.652h-3.66v-9.541
			c0-3.202-1.33-4.804-3.986-4.804c-1.264,0-2.364,0.42-3.301,1.259C280.695,244.933,280.227,246.158,280.227,247.77z
			 M287.153,237.673c-0.566,0-1.355-0.256-2.368-0.768c-1.013-0.512-1.662-0.769-1.944-0.769c-0.719,0-1.089,0.479-1.111,1.438
			h-2.418c0-1.264,0.256-2.288,0.768-3.072s1.226-1.176,2.14-1.176c0.588,0,1.405,0.256,2.451,0.768
			c1.045,0.512,1.731,0.768,2.059,0.768c0.654,0,0.98-0.479,0.98-1.438h2.451C290.095,236.257,289.093,237.673,287.153,237.673z"/>
		<path fill="#ff4466" d="M312.216,254.844c-1.742,1.731-3.92,2.598-6.535,2.598c-2.613,0-4.793-0.866-6.535-2.598
			s-2.613-3.851-2.613-6.355s0.871-4.624,2.613-6.355s3.922-2.598,6.535-2.598c2.615,0,4.793,0.866,6.535,2.598
			s2.615,3.851,2.615,6.355S313.958,253.113,312.216,254.844z M301.743,252.589c1.035,1.057,2.348,1.585,3.938,1.585
			s2.902-0.528,3.938-1.585s1.553-2.423,1.553-4.101c0-1.677-0.518-3.044-1.553-4.101s-2.348-1.585-3.938-1.585
			s-2.902,0.528-3.938,1.585s-1.551,2.424-1.551,4.101C300.192,250.167,300.708,251.533,301.743,252.589z"/>
		<path fill="#ff4466" d="M225.285,279.007v15.161c0,3.071-0.833,5.375-2.5,6.91c-1.667,1.536-3.807,2.304-6.42,2.304
			c-2.614,0-4.978-0.816-7.091-2.45l1.732-2.777c1.699,1.285,3.415,1.928,5.146,1.928c1.731,0,3.104-0.447,4.117-1.34
			c1.013-0.894,1.519-2.32,1.519-4.28v-2.222c-0.544,1.023-1.323,1.841-2.336,2.45c-1.013,0.61-2.152,0.915-3.415,0.915
			c-2.31,0-4.205-0.806-5.686-2.418c-1.482-1.612-2.222-3.616-2.222-6.013c0-2.396,0.74-4.399,2.222-6.012
			c1.481-1.611,3.371-2.418,5.669-2.418c2.298,0,4.166,0.947,5.604,2.843v-2.581H225.285z M211.724,287.029
			c0,1.427,0.441,2.658,1.323,3.692c0.882,1.034,2.069,1.552,3.562,1.552c1.492,0,2.701-0.501,3.627-1.503
			c0.925-1.002,1.389-2.249,1.389-3.741s-0.469-2.756-1.405-3.791c-0.937-1.033-2.146-1.552-3.627-1.552s-2.663,0.534-3.545,1.601
			C212.166,284.355,211.724,285.602,211.724,287.029z"/>
		<path fill="#ff4466" d="M239.694,282.438c-1.809,0-3.169,0.588-4.084,1.765c-0.915,1.176-1.373,2.756-1.373,4.737v7.45h-3.66
			v-17.383h3.66v3.496c0.588-1.09,1.389-1.982,2.402-2.68c1.013-0.697,2.085-1.057,3.218-1.078l0.033,3.692
			C239.825,282.438,239.76,282.438,239.694,282.438z"/>
		<path fill="#ff4466" d="M257.633,296.39H254.3v-2.32c-1.438,1.722-3.366,2.582-5.784,2.582c-1.808,0-3.306-0.512-4.493-1.536
			c-1.188-1.023-1.781-2.391-1.781-4.101s0.631-2.99,1.895-3.84c1.263-0.85,2.974-1.274,5.13-1.274h4.738v-0.653
			c0-2.309-1.286-3.463-3.856-3.463c-1.612,0-3.29,0.588-5.032,1.764l-1.634-2.287c2.112-1.677,4.509-2.516,7.188-2.516
			c2.047,0,3.719,0.518,5.016,1.552c1.296,1.035,1.944,2.663,1.944,4.885V296.39z M253.973,289.92v-1.471h-4.117
			c-2.636,0-3.954,0.828-3.954,2.483c0,0.85,0.327,1.498,0.98,1.944c0.654,0.447,1.563,0.67,2.729,0.67
			c1.165,0,2.184-0.327,3.055-0.98C253.537,291.914,253.973,291.032,253.973,289.92z M252.372,276.785h-3.333l3.463-4.738
			l3.856,1.602L252.372,276.785z"/>
		<path fill="#ff4466" d="M267.239,277.57v1.438h4.575v2.94h-4.575v14.442h-3.66v-14.442h-2.189v-2.94h2.189v-1.34
			c0-1.83,0.55-3.284,1.65-4.362c1.1-1.079,2.429-1.618,3.986-1.618c1.557,0,2.979,0.578,4.264,1.732L271.977,276
			c-0.719-0.763-1.471-1.144-2.255-1.144s-1.394,0.245-1.83,0.735C267.457,276.083,267.239,276.742,267.239,277.57z"/>
		<path fill="#ff4466" d="M275.57,275.543c-0.458-0.458-0.686-1.002-0.686-1.634s0.229-1.176,0.686-1.634s1.001-0.687,1.634-0.687
			c0.631,0,1.176,0.229,1.634,0.687s0.686,1.002,0.686,1.634s-0.229,1.176-0.686,1.634c-0.458,0.457-1.002,0.687-1.634,0.687
			C276.572,276.23,276.028,276,275.57,275.543z M279.001,296.39h-3.66v-17.383h3.66V296.39z"/>
		<path fill="#ff4466" d="M292.005,296.652c-2.418,0-4.498-0.822-6.24-2.468c-1.743-1.644-2.614-3.795-2.614-6.453
			c0-2.657,0.91-4.819,2.729-6.485c1.819-1.667,4.036-2.5,6.649-2.5c2.615,0,4.824,0.904,6.633,2.712l-2.156,2.646
			c-1.502-1.307-3.018-1.96-4.541-1.96c-1.525,0-2.85,0.506-3.971,1.52c-1.123,1.013-1.684,2.319-1.684,3.921
			c0,1.601,0.557,2.957,1.668,4.067c1.109,1.111,2.477,1.667,4.1,1.667s3.154-0.74,4.592-2.222l2.156,2.353
			C297.212,295.584,294.772,296.652,292.005,296.652z"/>
		<path fill="#ff4466" d="M317.296,294.054c-1.742,1.731-3.92,2.598-6.533,2.598c-2.615,0-4.793-0.866-6.535-2.598
			c-1.744-1.732-2.615-3.851-2.615-6.355s0.871-4.624,2.615-6.355c1.742-1.732,3.92-2.598,6.535-2.598
			c2.613,0,4.791,0.865,6.533,2.598c1.744,1.731,2.615,3.851,2.615,6.355S319.04,292.322,317.296,294.054z M306.825,291.799
			c1.033,1.057,2.346,1.585,3.938,1.585c1.59,0,2.902-0.528,3.936-1.585c1.035-1.057,1.553-2.423,1.553-4.101
			s-0.518-3.044-1.553-4.102c-1.033-1.056-2.346-1.584-3.936-1.584c-1.592,0-2.904,0.528-3.938,1.584
			c-1.035,1.058-1.553,2.424-1.553,4.102S305.79,290.743,306.825,291.799z"/>
	</g>
</g>
</svg>
