<?xml version="1.0" encoding="utf-8"?>
<!-- Generator: Adobe Illustrator 16.0.0, SVG Export Plug-In . SVG Version: 6.00 Build 0)  -->
<!DOCTYPE svg PUBLIC "-//W3C//DTD SVG 1.1//EN" "http://www.w3.org/Graphics/SVG/1.1/DTD/svg11.dtd">
<svg version="1.1" id="Capa_1" xmlns="http://www.w3.org/2000/svg" xmlns:xlink="http://www.w3.org/1999/xlink" x="0px" y="0px"
	 width="527.974px" height="533.982px" viewBox="0 0 527.974 533.982" enable-background="new 0 0 527.974 533.982"
	 xml:space="preserve">
<g>
	<g>
		<path fill="#ff4466" d="M112.284,344.846c-11.878-23.357-18.58-49.82-18.58-77.855c0-13.618,1.59-26.864,4.578-39.567
			l-84.85-15.806c-3.881,17.839-5.945,36.364-5.945,55.373c0,42.031,10.004,81.709,27.737,116.771L112.284,344.846z"/>
		<path fill="#ff4466" d="M369.592,132.664c27.031,21.52,47.406,51.114,57.539,85.161l84.076-19.769
			c-14.498-52.688-45.201-98.597-86.379-131.974L369.592,132.664z"/>
		<path fill="#ff4466" d="M104.068,208.031c16.251-44.561,50.395-80.439,93.68-98.836l-20.976-84.832
			C101.081,51.881,41.959,114.19,18.486,192.09L104.068,208.031z"/>
		<path fill="#ff4466" d="M216.705,102.452c15.013-4.354,30.875-6.694,47.282-6.694c32.686,0,63.217,9.269,89.15,25.324
			l55.609-67.031c-41.201-28.379-91.049-44.992-144.76-44.992c-23.58,0-46.41,3.217-68.099,9.208L216.705,102.452z"/>
		<path fill="#ff4466" d="M196.076,424.051c-30.035-13.15-55.565-34.748-73.617-61.82l-77.46,39.115
			c28.501,46.877,71.47,83.877,122.66,104.752L196.076,424.051z"/>
		<path fill="#ff4466" d="M431.731,237.413c1.664,9.609,2.537,19.49,2.537,29.577c0,28.57-6.967,55.502-19.273,79.184l78.012,37.064
			c17.57-34.934,27.48-74.424,27.48-116.248c0-16.876-1.631-33.368-4.709-49.341L431.731,237.413z"/>
		<path fill="#ff4466" d="M317.696,429.523c-16.885,5.639-34.941,8.701-53.709,8.701c-17.078,0-33.564-2.539-49.118-7.244
			l-28.382,81.947c24.453,7.783,50.486,11.996,77.5,11.996c27.375,0,53.74-4.33,78.479-12.314L317.696,429.523z"/>
		<path fill="#ff4466" d="M404.645,363.516c-17.086,25.129-40.656,45.439-68.291,58.508l24.943,83.67
			c50.93-21.018,93.654-58.021,121.973-104.822L404.645,363.516z"/>
	</g>
	<g>
		<path fill="#FFFFFF" d="M276.308,49.14l-1.926-0.056l0.04-1.396l5.376,0.155l-0.04,1.396l-1.926-0.056l-0.355,12.317l1.926,0.056
			l-0.04,1.396l-5.376-0.154l0.04-1.397l1.926,0.056l0.163-5.65l-7.513-0.217l-0.163,5.65l1.947,0.057l-0.041,1.396l-5.396-0.155
			l0.04-1.397l1.927,0.056l0.354-12.317l-1.926-0.056l0.04-1.396l5.397,0.155l-0.041,1.397l-1.946-0.057l-0.158,5.481l7.513,0.217
			L276.308,49.14z"/>
		<path fill="#FFFFFF" d="M283.402,62.06l2.617,0.212l-0.106,1.309l-4.01-0.324l0.792-9.771l-2.132-0.173l0.106-1.309l2.131,0.173
			l0.323-3.988l1.393,0.112l-0.323,3.988l2.448,0.198l-0.105,1.309l-2.448-0.198L283.402,62.06z"/>
		<path fill="#FFFFFF" d="M290.921,54.78c0.818-1.207,2.13-1.828,3.659-1.604c1.55,0.228,2.634,1.156,3.171,2.604l0.169,0.452
			c0.831-1.44,2.525-2.197,4.097-1.968c2.116,0.31,3.109,1.418,3.529,3.085c0.177,0.689,0.13,1.303-0.045,2.497l-0.721,4.923
			l1.844,0.271l-0.19,1.299l-5.069-0.742l0.189-1.299l1.844,0.27l0.675-4.609c0.147-1.005,0.191-2.326-0.247-2.989
			c-0.524-0.804-1.334-1.265-2.193-1.391c-0.796-0.117-1.791,0.102-2.476,0.686c-0.832,0.713-1.002,1.438-1.152,2.464l-0.724,4.944
			l1.844,0.27l-0.19,1.299l-5.07-0.742l0.19-1.299l1.844,0.271l0.681-4.651c0.19-1.299-0.006-2.44-0.253-2.947
			c-0.443-0.921-1.355-1.269-2.193-1.392c-1.047-0.153-1.791,0.103-2.455,0.689c-0.811,0.716-1.044,1.581-1.194,2.607l-0.702,4.798
			l1.844,0.27l-0.19,1.299l-5.07-0.742l0.19-1.299l1.844,0.27l1.229-8.4l-1.844-0.271l0.19-1.299l3.227,0.473L290.921,54.78z"/>
		<path fill="#FFFFFF" d="M310.207,66.038l1.803,0.383l-0.272,1.284l-5.118-1.085l0.272-1.285l1.948,0.413l2.593-12.226
			l-1.823-0.387l0.272-1.284l3.19,0.677L310.207,66.038z"/>
		<path fill="#FFFFFF" d="M315.204,64.271c-0.117,1.808,1.109,3.415,2.853,3.865c2.01,0.519,4.206-0.62,4.736-2.671
			c0.545-2.112-0.651-4.172-2.784-4.723c-1.23-0.317-2.502-0.055-3.453,0.75l-1.213-0.642l3.271-7.074l7.239,1.869l-0.328,1.271
			l-6.07-1.567l-2.141,4.479c1.047-0.495,2.208-0.589,3.336-0.298c2.728,0.704,4.345,3.506,3.646,6.213
			c-0.758,2.933-3.692,4.472-6.563,3.73c-2.604-0.673-4.277-2.92-4.046-5.595L315.204,64.271z"/>
		<path fill="#FFFFFF" d="M439.809,137.079c0.613-1.938-0.016-4.099-1.279-5.664c-2.223-2.752-6.164-3.217-8.916-0.995
			c-2.719,2.195-3.31,6.184-1.048,8.985c1.331,1.648,3.329,2.539,5.452,2.403l1.064,1.318c-2.842,0.661-5.854-0.473-7.677-2.73
			c-1.304-1.615-1.919-3.759-1.716-5.801c0.215-2.161,1.302-4.019,2.966-5.362c1.681-1.357,3.756-1.89,5.891-1.707
			c1.909,0.174,3.8,1.233,5.156,2.914c1.277,1.582,1.901,3.501,1.589,5.441l1.385-1.118l0.878,1.088l-2.867,2.315L439.809,137.079z"
			/>
		<path fill="#FFFFFF" d="M442.622,146.334c0.453-0.351,0.671-0.845,0.683-1.374s-0.154-1.088-0.499-1.57
			c-0.653-0.912-1.821-1.378-2.802-0.675c-1.136,0.813-0.635,2.095-0.171,3.143c0.368,0.805,0.73,1.639,0.796,2.529
			c0.104,1.019-0.352,1.945-1.178,2.537c-0.585,0.419-1.134,0.525-1.678,0.603c-1.135,0.161-2.46-0.635-3.212-1.685
			c-0.776-1.084-1.01-2.245-0.475-3.462l-1.084,0.776l-0.666-0.929l2.582-1.85l0.665,0.93c-1.027,0.892-1.134,2.452-0.258,3.675
			c0.715,0.998,2.076,1.481,3.126,0.729c1.24-0.888,0.699-2.114,0.19-3.261c-0.351-0.816-0.718-1.621-0.783-2.512
			c-0.051-0.979,0.354-1.869,1.146-2.436c0.62-0.444,1.188-0.669,1.883-0.646c1.07,0.041,2.107,0.834,2.712,1.678
			c0.604,0.843,0.854,1.811,0.469,2.763l0.843-0.604l0.666,0.93l-2.289,1.64L442.622,146.334z"/>
		<path fill="#FFFFFF" d="M447.686,153.892c0.467-0.331,0.706-0.816,0.739-1.345c0.034-0.528-0.108-1.093-0.433-1.589
			c-0.615-0.939-1.762-1.454-2.771-0.793c-1.169,0.766-0.722,2.067-0.302,3.134c0.333,0.819,0.661,1.667,0.688,2.561
			c0.063,1.022-0.433,1.928-1.283,2.484c-0.603,0.395-1.155,0.479-1.702,0.532c-1.14,0.114-2.431-0.737-3.138-1.817
			c-0.73-1.116-0.915-2.286-0.329-3.479l-1.116,0.73l-0.626-0.956l2.657-1.74l0.626,0.957c-1.064,0.849-1.236,2.403-0.412,3.661
			c0.672,1.027,2.013,1.567,3.093,0.859c1.276-0.835,0.787-2.084,0.327-3.25c-0.316-0.831-0.649-1.65-0.678-2.543
			c-0.009-0.98,0.433-1.853,1.248-2.386c0.638-0.417,1.215-0.618,1.907-0.565c1.068,0.085,2.071,0.922,2.64,1.79
			s0.777,1.845,0.353,2.78l0.868-0.567l0.626,0.956l-2.356,1.542L447.686,153.892z"/>
		<path fill="#FFFFFF" d="M453.255,156.062c1.867-1.042,4.124-0.202,5.16,1.571c1.057,1.81,0.659,4.15-1.224,5.251
			c-1.206,0.705-2.674,0.753-3.804-0.132c0.403,1.824-0.461,3.702-2.088,4.653c-2.303,1.346-5.227,0.454-6.54-1.794
			c-1.367-2.34-0.859-5.163,1.442-6.679l0.78,1.334c-1.453,0.996-2.046,2.961-1.128,4.533c0.993,1.7,3.102,2.16,4.765,1.188
			c1.7-0.993,2.031-3.197,1.08-4.824l-0.384-0.658l1.023-0.599l0.363,0.622c0.363,0.621,0.785,1.135,1.486,1.411
			c0.701,0.277,1.483,0.188,2.142-0.196c1.298-0.758,1.703-2.246,0.956-3.525c-0.662-1.134-2.132-1.55-3.315-0.932L453.255,156.062z
			"/>
		<path fill="#FFFFFF" d="M475.717,249.306c-1.255,0.25-2.255,1.285-2.146,2.636c0.064,0.803,0.499,1.447,1.149,1.884
			c0.786,0.531,1.649,0.44,2.536,0.369l9.074-0.728l-0.156-1.941l1.394-0.112l0.432,5.381l-1.393,0.112l-0.154-1.921l-9.391,0.754
			c-1.203,0.097-2.073,0.103-3.149-0.597c-1.053-0.68-1.657-1.863-1.759-3.13c-0.176-2.194,1.268-4.052,3.437-4.29L475.717,249.306z
			"/>
		<path fill="#FFFFFF" d="M475.545,268.868c-1.694-0.938-2.661-2.548-2.703-4.476c-0.044-2.033,0.912-3.919,2.5-4.927
			c0.899-0.57,1.949-0.975,3.179-0.959c1.61-0.035,2.361,0.415,3.197,0.863c1.629,0.875,2.687,2.738,2.73,4.75
			c0.043,2.013-0.855,3.558-2.528,4.61l2.436-0.053l0.07,3.241l-1.313,0.028l-0.039-1.843l-8.493,0.184l0.04,1.843l-1.313,0.028
			l-0.07-3.24L475.545,268.868z M478.531,259.904c-2.394,0.052-4.384,2.087-4.331,4.522c0.055,2.521,2.088,4.447,4.565,4.394
			c2.436-0.053,4.362-2.086,4.31-4.521C483.022,261.842,480.987,259.852,478.531,259.904z"/>
		<path fill="#FFFFFF" d="M472.984,279.644l0.066-1.566l9.968-3.562l0.08-1.862l1.312,0.056l-0.217,5.101l-1.313-0.056l0.072-1.693
			l-8.265,2.893l7.985,3.668l0.076-1.777l1.313,0.056l-0.216,5.059l-1.312-0.057l0.075-1.777L472.984,279.644z"/>
		<path fill="#FFFFFF" d="M473.909,296.194c-1.559-1.148-2.311-2.87-2.104-4.786c0.219-2.021,1.408-3.768,3.113-4.563
			c0.965-0.449,2.059-0.715,3.275-0.541c1.6,0.173,2.287,0.716,3.059,1.268c1.502,1.078,2.311,3.062,2.095,5.062
			c-0.216,2.001-1.307,3.417-3.1,4.246l2.421,0.261l-0.348,3.222l-1.306-0.141l0.198-1.832l-8.444-0.912l-0.197,1.832l-1.306-0.141
			l0.348-3.222L473.909,296.194z M478.022,287.691c-2.379-0.257-4.614,1.504-4.876,3.926c-0.271,2.506,1.498,4.678,3.961,4.943
			c2.422,0.262,4.594-1.506,4.855-3.928C482.226,290.19,480.465,287.955,478.022,287.691z"/>
		<path fill="#FFFFFF" d="M478.337,306.986c0.568,0.071,1.072-0.126,1.454-0.492c0.381-0.367,0.658-0.88,0.753-1.466
			c0.181-1.107-0.318-2.262-1.51-2.456c-1.38-0.225-1.929,1.038-2.339,2.108c-0.307,0.83-0.638,1.678-1.221,2.355
			c-0.645,0.796-1.621,1.131-2.625,0.967c-0.711-0.115-1.175-0.427-1.614-0.756c-0.919-0.687-1.297-2.186-1.09-3.461
			c0.215-1.316,0.869-2.305,2.106-2.79l-1.316-0.214l0.184-1.129l3.136,0.51l-0.184,1.129c-1.358-0.092-2.535,0.939-2.776,2.424
			c-0.197,1.213,0.427,2.516,1.702,2.724c1.505,0.245,1.988-1.007,2.437-2.179c0.327-0.826,0.634-1.656,1.217-2.334
			c0.655-0.73,1.569-1.075,2.531-0.918c0.752,0.122,1.313,0.363,1.789,0.87c0.73,0.784,0.906,2.079,0.739,3.104
			c-0.166,1.024-0.671,1.886-1.617,2.29l1.024,0.167l-0.184,1.129l-2.78-0.453L478.337,306.986z"/>
		<path fill="#FFFFFF" d="M475.097,320.295l0.275-1.283c1.453-0.512,2.566-1.768,2.891-3.279c0.516-2.401-1.027-4.703-3.429-5.219
			c-2.423-0.52-4.684,1.032-5.207,3.476c-0.333,1.553,0.208,3.271,1.52,4.225l-0.328,1.532c-2.084-1.292-3.042-3.793-2.531-6.175
			c0.661-3.085,3.775-5.081,6.819-4.429c1.553,0.333,2.853,1.24,3.654,2.452c0.834,1.262,1.224,2.774,0.887,4.349
			c-0.329,1.532-1.226,2.683-2.557,3.437l1.553,0.333l-0.275,1.284L475.097,320.295z"/>
		<path fill="#FFFFFF" d="M474.999,324.856c1.365,0.886,1.627,2.466,1.284,4.018l-1.271-0.335c0.422-2.429-0.689-3.861-2.982-4.466
			l-4.321-1.14l-0.475,1.802l-1.271-0.335l1.308-4.955l1.27,0.334l-0.476,1.803l8.212,2.166l0.476-1.802l1.27,0.334l-0.832,3.154
			L474.999,324.856z"/>
		<path fill="#FFFFFF" d="M465.658,330.222l-0.53,1.786l-1.259-0.374l1.471-4.951l1.259,0.373l-0.543,1.827l8.139,2.417l0.53-1.786
			l1.258,0.374l-0.928,3.125L465.658,330.222z M476.799,333.531l0.397-1.34l2.091,0.621l-0.398,1.339L476.799,333.531z"/>
		<path fill="#FFFFFF" d="M470.979,337.763c1.318,1.491,1.661,3.337,1.006,5.216c-0.586,1.679-1.987,3.253-4.095,3.639
			c-0.839,0.156-1.938,0.288-3.258-0.172c-3.019-1.054-4.647-4.29-3.602-7.288c0.621-1.779,2.14-3.178,4.012-3.466l-4.877-1.701
			l-0.613,1.759l-1.24-0.433l1.688-4.837l1.24,0.432l-0.614,1.76l11.914,4.155l0.613-1.759l1.239,0.433l-1.074,3.078
			L470.979,337.763z M465.092,345.126c2.599,0.906,5.041-0.439,5.682-2.66c0.675-2.32-0.147-4.849-2.726-5.749
			c-2.339-0.815-4.906,0.374-5.723,2.713C461.524,341.729,462.774,344.316,465.092,345.126z"/>
		<path fill="#FFFFFF" d="M459.159,348.576l-0.985,2.433l-1.217-0.492l1.511-3.729l9.085,3.681l0.804-1.982l1.216,0.493
			l-0.803,1.982l3.709,1.502l-0.524,1.295l-3.709-1.502l-0.922,2.276l-1.217-0.493l0.922-2.276L459.159,348.576z"/>
		<path fill="#FFFFFF" d="M426.018,401.865c-1.969-1.607-2.625-3.047-1.301-5.438l1.033,0.845c-1.045,1.881,0.315,2.828,1.627,3.899
			l6.955,5.681l1.18-1.443l1.017,0.83l-2.063,2.526L426.018,401.865z M435.876,409.917l0.884-1.083l1.689,1.38l-0.884,1.083
			L435.876,409.917z"/>
		<path fill="#FFFFFF" d="M415.137,417.812l-2.283-2.083c1.154-1.297,2.731-2.179,4.423-2.556c0.253-1.66,0.935-3.13,2.076-4.381
			c3.011-3.301,7.949-3.438,11.187-0.484c3.207,2.925,3.465,7.889,0.525,11.11c-2.981,3.269-7.989,3.544-11.227,0.59
			c-1.518-1.384-2.539-3.404-2.546-5.502c-0.933,0.237-1.859,0.625-2.594,1.272l1.252,1.142L415.137,417.812z M420.803,418.825
			c2.658,2.426,6.668,2.271,9.107-0.403c2.368-2.597,2.198-6.619-0.366-8.959c-0.423-0.386-0.961-0.676-1.497-0.936
			c-0.448,0.995-1.049,1.966-1.79,2.779c-2.026,2.221-4.564,2.742-7.431,2.994C418.817,416.039,419.537,417.67,420.803,418.825z
			 M419.423,412.925c1.178-0.13,2.222-0.237,3.309-0.707c0.986-0.39,1.918-1.002,2.631-1.784c0.656-0.719,1.187-1.583,1.52-2.482
			c-2.264-0.66-4.791,0.101-6.389,1.853c-0.842,0.922-1.425,1.938-1.622,3.191L419.423,412.925z"/>
		<path fill="#FFFFFF" d="M407.015,424.271c-0.406-1.479,0.058-3.023,1.213-4.113c1.186-1.118,2.975-1.381,4.237-1.029
			c0.669,0.184,1.389,0.64,2.29,1.594l3.573,3.787l1.354-1.278l0.9,0.955l-2.37,2.237l-4.111-4.357
			c-0.712-0.755-1.41-1.464-2.513-1.646c-1.073-0.181-2.011,0.151-2.754,0.969c-0.742,0.816-1.038,1.736-0.988,2.591
			c0.07,1.186,0.592,1.8,1.376,2.631l3.239,3.434l1.355-1.278l0.9,0.954l-2.371,2.237l-6.726-7.129l-1.37,1.293l-0.901-0.954
			l2.387-2.252L407.015,424.271z"/>
		<path fill="#FFFFFF" d="M396.64,434.799c-0.614-2.191,0.125-4.545,1.882-6.011c2.456-2.048,6.099-1.748,8.133,0.691
			c2.021,2.424,1.839,6.106-0.634,8.168c-2.538,2.116-6.131,1.776-8.233-0.745l-0.271-0.325l7.808-6.511
			c-1.563-1.676-4.212-1.811-5.969-0.346c-1.236,1.031-1.854,2.539-1.577,4.128L396.64,434.799z M399.257,436.614
			c1.695,1.537,4.226,1.496,5.966,0.044c1.643-1.37,1.981-3.94,0.833-5.714L399.257,436.614z"/>
		<path fill="#FFFFFF" d="M396.528,442.07c0.528,1.539-0.24,2.944-1.468,3.954l-0.792-1.046c1.829-1.652,1.838-3.465,0.405-5.354
			l-2.698-3.562l-1.484,1.126l-0.793-1.047l4.084-3.095l0.793,1.047l-1.485,1.125l5.127,6.768l1.485-1.125l0.793,1.046l-2.599,1.969
			L396.528,442.07z"/>
		<path fill="#FFFFFF" d="M381.475,438.553l-1.506,1.026l-0.739-1.085l4.253-2.899l0.739,1.085l-1.54,1.05l0.595,2.902l8.81,5.966
			l1.471-1.003l0.739,1.086l-4.2,2.863l-0.739-1.085l1.452-0.99l-7.172-4.955l1.834,8.594l1.436-0.979l0.739,1.086l-4.165,2.84
			l-0.74-1.085l1.471-1.003L381.475,438.553z"/>
		<path fill="#FFFFFF" d="M276.043,488.387c0.288,1.702,1.591,2.604,3.156,2.515c1.522-0.087,2.837-1.223,2.746-2.809
			c-0.046-0.804-0.43-1.588-1.113-2.037c-0.705-0.469-1.731-0.602-2.567-0.745c-1.114-0.19-2.165-0.386-3.097-1.097
			c-0.974-0.708-1.523-1.801-1.591-2.985c-0.06-1.036,0.083-1.894,0.711-2.777c0.883-1.26,2.056-1.899,3.663-1.991
			c1.396-0.08,2.678,0.441,3.527,1.581l-0.084-1.48l1.269-0.072l0.231,4.061l-1.269,0.072c-0.293-1.787-1.65-2.897-3.532-2.79
			c-1.714,0.098-3.103,1.407-3.003,3.163c0.126,2.199,1.867,2.609,3.69,2.95c1.052,0.216,2.015,0.353,2.94,0.957
			c1.079,0.702,1.672,1.793,1.744,3.063c0.062,1.078-0.256,1.839-0.646,2.435c-0.74,1.146-2.148,1.756-3.565,1.837
			c-1.185,0.067-2.505-0.388-3.075-1.459l0.07,1.227l-1.269,0.072l-0.207-3.616L276.043,488.387z"/>
		<path fill="#FFFFFF" d="M262.344,479.344c1.002-1.657,2.648-2.562,4.575-2.529c2.033,0.033,3.881,1.06,4.828,2.686
			c0.536,0.92,0.899,1.985,0.837,3.213c-0.026,1.609-0.505,2.343-0.984,3.161c-0.938,1.595-2.84,2.58-4.852,2.547
			s-3.521-0.991-4.51-2.702l-0.04,2.436l-3.241-0.054l0.022-1.313l1.842,0.03l0.142-8.493l-1.843-0.03l0.021-1.313l3.24,0.054
			L262.344,479.344z M271.187,482.668c0.04-2.393-1.918-4.459-4.354-4.499c-2.52-0.042-4.522,1.916-4.563,4.394
			c-0.041,2.436,1.918,4.438,4.354,4.479C269.08,487.082,271.146,485.125,271.187,482.668z"/>
		<path fill="#FFFFFF" d="M252.078,484.97c-0.009,0.572,0.241,1.053,0.647,1.393c0.406,0.339,0.946,0.559,1.538,0.591
			c1.121,0.06,2.214-0.561,2.279-1.767c0.074-1.396-1.24-1.805-2.349-2.098c-0.858-0.215-1.736-0.453-2.473-0.959
			c-0.861-0.555-1.299-1.49-1.245-2.505c0.039-0.72,0.298-1.215,0.578-1.688c0.583-0.987,2.032-1.524,3.322-1.456
			c1.333,0.071,2.385,0.615,3.001,1.794l0.071-1.333l1.142,0.062l-0.169,3.172l-1.142-0.061c-0.055-1.36-1.207-2.419-2.708-2.499
			c-1.227-0.065-2.455,0.696-2.524,1.986c-0.082,1.522,1.215,1.867,2.428,2.187c0.857,0.237,1.715,0.452,2.452,0.958
			c0.796,0.573,1.238,1.445,1.186,2.418c-0.041,0.761-0.221,1.346-0.673,1.873c-0.701,0.811-1.969,1.125-3.005,1.069
			c-1.036-0.056-1.948-0.465-2.451-1.361l-0.055,1.036l-1.142-0.061l0.15-2.813L252.078,484.97z"/>
		<path fill="#FFFFFF" d="M242.998,484.202c-0.033,0.571,0.197,1.062,0.588,1.418c0.392,0.356,0.922,0.599,1.512,0.655
			c1.118,0.106,2.237-0.467,2.352-1.669c0.133-1.392-1.164-1.856-2.259-2.195c-0.849-0.251-1.716-0.525-2.431-1.062
			c-0.837-0.591-1.236-1.544-1.139-2.557c0.069-0.717,0.349-1.2,0.648-1.661c0.624-0.962,2.095-1.438,3.381-1.316
			c1.329,0.127,2.358,0.715,2.924,1.918l0.127-1.328l1.139,0.108l-0.302,3.163l-1.139-0.108c0.002-1.361-1.105-2.468-2.602-2.61
			c-1.223-0.117-2.482,0.593-2.605,1.879c-0.145,1.519,1.136,1.917,2.335,2.287c0.847,0.272,1.695,0.523,2.41,1.061
			c0.772,0.605,1.176,1.495,1.083,2.465c-0.072,0.76-0.276,1.336-0.75,1.844c-0.734,0.781-2.015,1.042-3.048,0.943
			s-1.927-0.546-2.393-1.463l-0.099,1.033l-1.139-0.108l0.268-2.805L242.998,484.202z"/>
		<path fill="#FFFFFF" d="M145.396,442.704c0.625-1.116,0.487-2.55-0.611-3.345c-0.651-0.472-1.424-0.561-2.179-0.349
			c-0.915,0.252-1.407,0.968-1.929,1.688l-5.341,7.375l1.578,1.143l-0.82,1.132l-4.374-3.167l0.82-1.133l1.561,1.131l5.527-7.632
			c0.708-0.979,1.269-1.644,2.5-2.008c1.201-0.358,2.494-0.05,3.523,0.695c1.784,1.292,2.258,3.597,1.031,5.4L145.396,442.704z"/>
		<path fill="#FFFFFF" d="M130.617,429.85c1.813-0.678,3.665-0.366,5.157,0.854c1.573,1.288,2.385,3.238,2.119,5.101
			c-0.15,1.054-0.526,2.114-1.337,3.038c-1.019,1.245-1.849,1.523-2.733,1.868c-1.724,0.669-3.826,0.262-5.383-1.013
			c-1.557-1.274-2.146-2.961-1.86-4.916l-1.542,1.885l-2.507-2.052l0.832-1.017l1.426,1.167l5.378-6.571l-1.426-1.167l0.832-1.017
			l2.507,2.053L130.617,429.85z M135.488,437.941c1.516-1.853,1.263-4.687-0.622-6.229c-1.95-1.597-4.735-1.303-6.304,0.614
			c-1.542,1.885-1.25,4.67,0.635,6.212C131.098,440.095,133.932,439.842,135.488,437.941z"/>
		<path fill="#FFFFFF" d="M120.29,420.56c1.825-0.556,3.727-0.14,5.135,1.177c1.284,1.2,2.017,3.394,1.673,5.188
			c-0.204,1.056-0.72,2.197-1.472,3.002c-2.112,2.259-5.822,2.443-8.082,0.331c-1.408-1.315-2.029-3.288-1.492-5.164l-3.587,3.837
			l1.361,1.272l-0.896,0.96l-2.383-2.228l9.431-10.089l-1.361-1.272l0.896-0.959l2.383,2.228L120.29,420.56z M118.075,422.867
			c-1.678,1.795-1.553,4.608,0.226,6.271c1.826,1.707,4.669,1.581,6.361-0.229c1.678-1.795,1.537-4.652-0.243-6.316
			C122.594,420.887,119.782,421.042,118.075,422.867z"/>
		<path fill="#FFFFFF" d="M109.515,410.53c2.149-0.748,4.544-0.155,6.114,1.508c2.196,2.324,2.122,5.978-0.188,8.159
			c-2.294,2.167-5.98,2.211-8.191-0.129c-2.269-2.402-2.15-6.009,0.236-8.263l0.308-0.291l6.98,7.39
			c1.576-1.662,1.546-4.314-0.024-5.978c-1.105-1.17-2.648-1.693-4.217-1.319L109.515,410.53z M107.865,413.255
			c-1.43,1.786-1.232,4.309,0.324,5.956c1.469,1.556,4.055,1.734,5.754,0.479L107.865,413.255z"/>
		<path fill="#FFFFFF" d="M53.647,322.106c-0.648,0.924-1.085,1.898-1.269,2.914c-0.21,1.001-0.167,2.043,0.111,3.065
			c0.936,3.432,4.384,5.455,7.817,4.52c3.412-0.93,5.487-4.35,4.535-7.843c-0.752-2.759-3.14-4.676-5.991-4.667l1.994,7.314
			l-1.267,0.346l-2.434-8.929l6.844-1.865l0.368,1.348l-3.392,0.925c2.658,0.57,4.652,2.573,5.365,5.188
			c0.685,2.513-0.083,5.575-1.923,7.438c-0.533,0.54-1.941,1.736-3.698,2.215c-2.145,0.585-4.279,0.245-5.882-0.723
			c-1.843-1.122-3.213-2.769-3.798-4.913c-0.546-2.003-0.217-4.178,0.863-5.854l-1.9,0.518l-0.368-1.349l3.657-0.996L53.647,322.106
			z"/>
		<path fill="#FFFFFF" d="M50.659,315.963l0.297,1.366l-2.131,0.463l-0.297-1.365L50.659,315.963z M62.018,313.492l-0.396-1.821
			l1.283-0.279l1.099,5.049l-1.283,0.279l-0.405-1.862l-8.297,1.805l0.396,1.821l-1.283,0.279l-0.693-3.187L62.018,313.492z"/>
		<path fill="#FFFFFF" d="M60.924,307.974l-0.482-2.581l1.291-0.241l0.739,3.954l-9.637,1.802l0.393,2.103l-1.291,0.241
			l-0.393-2.103l-3.934,0.735l-0.257-1.373l3.934-0.735l-0.452-2.415l1.291-0.241l0.451,2.415L60.924,307.974z"/>
		<path fill="#FFFFFF" d="M46.472,295.446l0.254,1.91l-1.386,0.185l-0.709-5.333l1.386-0.185l0.254,1.911l12.22-1.626l-0.254-1.91
			l1.386-0.185l0.709,5.333l-1.386,0.185l-0.254-1.911l-5.606,0.746l0.992,7.454l5.606-0.746l-0.257-1.932l1.386-0.185l0.712,5.354
			l-1.386,0.185l-0.254-1.911l-12.22,1.625l0.254,1.911l-1.386,0.185l-0.712-5.354l1.386-0.185l0.257,1.932l5.438-0.723
			l-0.992-7.454L46.472,295.446z"/>
		<path fill="#FFFFFF" d="M57.125,280.168c1.398,0.632,2.292,1.975,2.393,3.56c0.104,1.628-0.836,3.173-1.913,3.922
			c-0.568,0.397-1.379,0.661-2.689,0.745l-5.199,0.334l0.12,1.86l-1.311,0.084l-0.209-3.255l5.981-0.384
			c1.035-0.066,2.027-0.151,2.872-0.885c0.824-0.711,1.167-1.646,1.012-2.739s-0.674-1.909-1.365-2.416
			c-0.958-0.702-1.764-0.693-2.905-0.62l-4.713,0.303l0.12,1.86l-1.31,0.084l-0.209-3.255l9.785-0.629l-0.121-1.881l1.31-0.084
			l0.211,3.276L57.125,280.168z"/>
		<path fill="#FFFFFF" d="M50.067,273.123c-1.637-0.937-2.628-2.563-2.599-4.447c0.051-3.24,2.676-5.783,5.917-5.732
			c1.207,0.02,2.344,0.461,3.162,0.982c1.28,0.805,2.563,2.71,2.53,4.765c-0.03,1.906-0.989,3.606-2.678,4.533l2.309,0.037
			l-0.052,3.261l-1.313-0.021l0.03-1.863l-12.496-0.198l-0.029,1.863l-1.313-0.021l0.051-3.262L50.067,273.123z M53.3,264.341
			c-2.415-0.038-4.395,1.9-4.433,4.336c-0.04,2.521,1.835,4.521,4.355,4.561c2.499,0.039,4.417-1.964,4.456-4.442
			C57.716,266.359,55.735,264.379,53.3,264.341z"/>
		<path fill="#FFFFFF" d="M93.886,154.301l-0.878,1.375l-12.03-3.71l8.395,9.405l-0.855,1.339l-13.711-4.03l-0.992,1.554
			l-1.178-0.752l2.906-4.553l1.179,0.752l-1.06,1.66l11.349,3.401l-8.88-9.866l0.65-1.018l12.669,3.892l-7.877-8.799l-1.094,1.714
			l-1.178-0.752l2.918-4.57l1.178,0.752l-1.026,1.606L93.886,154.301z"/>
		<path fill="#FFFFFF" d="M92.118,147.174c-2.594-1.942-3.088-5.594-1.146-8.188c1.892-2.526,5.534-3.079,8.043-1.2
			c2.594,1.942,3.177,5.58,1.222,8.191C98.308,148.554,94.661,149.078,92.118,147.174z M98.246,138.956
			c-1.933-1.447-4.711-1.094-6.184,0.872c-1.473,1.967-1.089,4.741,0.86,6.201c1.933,1.447,4.728,1.106,6.213-0.877
			C100.608,143.186,100.195,140.416,98.246,138.956z"/>
		<path fill="#FFFFFF" d="M99.109,132.612c-0.868-1.376-0.445-2.92,0.517-4.185l1.013,0.835c-1.4,2.028-0.99,3.794,0.838,5.303
			l3.445,2.843l1.186-1.437l1.013,0.836l-3.261,3.95l-1.012-0.835l1.186-1.437l-6.547-5.403l-1.186,1.438l-1.012-0.836l2.075-2.515
			L99.109,132.612z"/>
		<path fill="#FFFFFF" d="M114.172,125.358c0.57,1.82,0.169,3.725-1.136,5.143c-1.191,1.293-3.378,2.043-5.175,1.713
			c-1.057-0.196-2.202-0.703-3.012-1.449c-2.275-2.095-2.488-5.803-0.394-8.077c1.305-1.417,3.272-2.053,5.152-1.531l-3.863-3.558
			l-1.262,1.371l-0.966-0.889l2.209-2.399l10.158,9.352l1.262-1.371l0.966,0.89l-2.209,2.399L114.172,125.358z M111.848,123.162
			c-1.807-1.664-4.619-1.518-6.268,0.273c-1.693,1.839-1.545,4.68,0.277,6.358c1.807,1.663,4.663,1.501,6.313-0.291
			C113.862,127.664,113.687,124.854,111.848,123.162z"/>
		<path fill="#FFFFFF" d="M114.672,115.889c-0.492-1.929,0.046-3.729,1.488-5.101c1.288-1.227,3.254-1.987,5.306-1.368
			c0.818,0.245,1.857,0.63,2.82,1.642c2.205,2.315,2.176,5.939-0.124,8.13c-1.365,1.3-3.355,1.851-5.153,1.252l3.563,3.742
			l1.35-1.285l0.905,0.95l-3.711,3.534l-0.905-0.951l1.349-1.284l-8.703-9.14l-1.35,1.284l-0.905-0.95l2.362-2.249L114.672,115.889z
			 M123.274,112.025c-1.898-1.993-4.687-1.912-6.271-0.229c-1.66,1.757-2.084,4.383-0.2,6.361c1.708,1.794,4.537,1.908,6.331,0.199
			C124.898,116.679,124.968,113.805,123.274,112.025z"/>
		<path fill="#FFFFFF" d="M125.012,106.12c-0.623-1.504,0.057-2.954,1.219-4.038l0.856,0.995c-1.724,1.763-1.62,3.572-0.073,5.37
			l2.914,3.387l1.413-1.215l0.856,0.995l-3.885,3.342l-0.856-0.995l1.413-1.215l-5.538-6.438l-1.413,1.216l-0.856-0.996l2.472-2.126
			L125.012,106.12z"/>
		<path fill="#FFFFFF" d="M141.251,100.42c0.537,2.211-0.284,4.537-2.09,5.939c-2.525,1.961-6.153,1.534-8.101-0.975
			c-1.935-2.491-1.624-6.164,0.918-8.139c2.609-2.025,6.187-1.56,8.2,1.032l0.259,0.335l-8.027,6.232
			c1.503,1.729,4.146,1.955,5.952,0.553c1.271-0.987,1.94-2.472,1.719-4.069L141.251,100.42z M138.699,98.515
			c-1.64-1.595-4.169-1.641-5.959-0.252c-1.689,1.312-2.116,3.868-1.032,5.68L138.699,98.515z"/>
		<path fill="#FFFFFF" d="M144.443,91.858c-0.345-0.456-0.837-0.68-1.366-0.698c-0.529-0.018-1.089,0.143-1.575,0.481
			c-0.919,0.644-1.398,1.805-0.707,2.794c0.8,1.145,2.087,0.658,3.141,0.206c0.808-0.358,1.646-0.712,2.538-0.767
			c1.02-0.093,1.94,0.374,2.523,1.206c0.412,0.591,0.513,1.141,0.583,1.685c0.148,1.136-0.662,2.452-1.721,3.192
			c-1.093,0.764-2.257,0.983-3.467,0.435l0.764,1.094l-0.937,0.654l-1.819-2.602l0.937-0.655c0.881,1.037,2.44,1.161,3.671,0.3
			c1.006-0.703,1.505-2.06,0.765-3.117c-0.874-1.25-2.107-0.723-3.259-0.228c-0.82,0.341-1.629,0.699-2.521,0.755
			c-0.979,0.039-1.864-0.376-2.422-1.174c-0.437-0.625-0.655-1.195-0.624-1.889c0.053-1.07,0.858-2.099,1.708-2.692
			c0.85-0.595,1.82-0.834,2.768-0.438l-0.594-0.851l0.937-0.654l1.613,2.307L144.443,91.858z"/>
		<path fill="#FFFFFF" d="M152.062,86.874c-0.326-0.471-0.809-0.716-1.336-0.756c-0.528-0.039-1.095,0.097-1.595,0.415
			c-0.946,0.604-1.474,1.746-0.824,2.764c0.752,1.178,2.059,0.745,3.131,0.338c0.823-0.325,1.675-0.643,2.569-0.66
			c1.023-0.051,1.924,0.455,2.471,1.312c0.388,0.607,0.465,1.161,0.513,1.709c0.101,1.142-0.765,2.423-1.854,3.118
			c-1.125,0.718-2.298,0.889-3.484,0.29l0.718,1.124l-0.964,0.616l-1.709-2.679l0.964-0.615c0.836,1.074,2.39,1.264,3.658,0.454
			c1.035-0.661,1.59-1.995,0.895-3.084c-0.82-1.286-2.076-0.812-3.248-0.364c-0.834,0.307-1.658,0.631-2.551,0.648
			c-0.981-0.002-1.848-0.453-2.372-1.274c-0.411-0.643-0.604-1.223-0.544-1.915c0.098-1.067,0.946-2.062,1.82-2.619
			c0.875-0.559,1.854-0.757,2.786-0.321l-0.559-0.875l0.964-0.615l1.516,2.374L152.062,86.874z"/>
	</g>
	<circle fill="none" stroke="#ff4466" stroke-width="5" stroke-miterlimit="10" cx="261.838" cy="267.467" r="139.501"/>
	<g>
		<path fill="#ff4466" d="M220.995,237.807c2.2,1.993,3.3,4.765,3.3,8.315s-1.067,6.361-3.202,8.431
			c-2.135,2.069-5.403,3.104-9.803,3.104h-7.581v-22.84h7.842C215.647,234.816,218.794,235.813,220.995,237.807z M220.407,246.22
			c0-5.228-2.996-7.842-8.986-7.842h-3.855v15.651h4.28c2.766,0,4.885-0.658,6.355-1.977
			C219.671,250.735,220.407,248.791,220.407,246.22z"/>
		<path fill="#ff4466" d="M228.968,236.81c-0.458-0.457-0.686-1.002-0.686-1.634s0.229-1.176,0.686-1.634
			c0.458-0.457,1.001-0.687,1.634-0.687c0.631,0,1.176,0.229,1.634,0.687c0.458,0.458,0.686,1.002,0.686,1.634
			s-0.229,1.177-0.686,1.634s-1.002,0.687-1.634,0.687C229.969,237.496,229.425,237.267,228.968,236.81z M232.398,257.656h-3.66
			v-17.383h3.66V257.656z"/>
		<path fill="#ff4466" d="M250.076,252.461c0,1.656-0.6,2.979-1.797,3.971c-1.198,0.991-2.734,1.486-4.607,1.486
			c-1.264,0-2.577-0.229-3.938-0.687c-1.362-0.457-2.565-1.1-3.611-1.928l1.765-2.843c2.026,1.525,3.986,2.287,5.881,2.287
			c0.828,0,1.481-0.19,1.961-0.571c0.479-0.381,0.719-0.866,0.719-1.454c0-0.871-1.155-1.655-3.464-2.353
			c-0.174-0.065-0.305-0.109-0.392-0.131c-3.616-0.98-5.424-2.614-5.424-4.901c0-1.612,0.626-2.902,1.879-3.872
			c1.252-0.969,2.88-1.454,4.885-1.454c2.004,0,3.899,0.588,5.686,1.765l-1.373,2.712c-1.416-0.937-2.952-1.405-4.607-1.405
			c-0.872,0-1.58,0.158-2.124,0.474c-0.545,0.316-0.817,0.79-0.817,1.422c0,0.566,0.283,0.98,0.85,1.241
			c0.392,0.196,0.942,0.382,1.65,0.556c0.708,0.175,1.334,0.349,1.879,0.523c0.544,0.174,1.073,0.37,1.585,0.588
			c0.511,0.218,1.062,0.522,1.65,0.915C249.487,249.586,250.076,250.806,250.076,252.461z"/>
		<path fill="#ff4466" d="M270.399,250.566h-13.625c0.087,1.263,0.664,2.281,1.732,3.055c1.067,0.773,2.287,1.16,3.66,1.16
			c2.178,0,3.833-0.687,4.967-2.059l2.091,2.287c-1.874,1.939-4.313,2.908-7.319,2.908c-2.44,0-4.515-0.812-6.225-2.435
			c-1.71-1.622-2.565-3.801-2.565-6.535c0-2.733,0.871-4.906,2.614-6.519c1.742-1.611,3.795-2.418,6.159-2.418
			c2.363,0,4.373,0.714,6.029,2.141c1.655,1.427,2.483,3.393,2.483,5.897V250.566z M256.773,247.69h9.966
			c0-1.459-0.457-2.581-1.372-3.365s-2.042-1.177-3.382-1.177c-1.34,0-2.543,0.408-3.611,1.226
			C257.307,245.19,256.773,246.297,256.773,247.69z"/>
		<path fill="#ff4466" d="M278.078,248.246v9.41h-3.66v-17.383h3.66v3.169c0.588-1.066,1.399-1.905,2.435-2.516
			c1.034-0.609,2.151-0.915,3.349-0.915c1.96,0,3.545,0.6,4.754,1.797c1.209,1.198,1.813,2.931,1.813,5.195v10.652h-3.66v-9.541
			c0-3.202-1.329-4.804-3.986-4.804c-1.264,0-2.364,0.42-3.3,1.259C278.546,245.409,278.078,246.634,278.078,248.246z
			 M285.005,238.149c-0.566,0-1.356-0.256-2.369-0.768c-1.013-0.512-1.662-0.769-1.944-0.769c-0.719,0-1.089,0.479-1.111,1.438
			h-2.418c0-1.264,0.256-2.288,0.768-3.072s1.226-1.176,2.14-1.176c0.588,0,1.405,0.256,2.451,0.768
			c1.046,0.512,1.732,0.768,2.059,0.768c0.654,0,0.98-0.479,0.98-1.438h2.451C287.946,236.733,286.943,238.149,285.005,238.149z"/>
		<path fill="#ff4466" d="M310.067,255.32c-1.743,1.731-3.921,2.598-6.535,2.598c-2.614,0-4.793-0.866-6.535-2.598
			c-1.743-1.731-2.614-3.851-2.614-6.355s0.871-4.624,2.614-6.355c1.742-1.731,3.921-2.598,6.535-2.598
			c2.614,0,4.792,0.866,6.535,2.598s2.614,3.851,2.614,6.355S311.81,253.589,310.067,255.32z M299.595,253.065
			c1.034,1.057,2.347,1.585,3.938,1.585c1.59,0,2.902-0.528,3.937-1.585s1.552-2.423,1.552-4.101c0-1.677-0.518-3.044-1.552-4.101
			s-2.347-1.585-3.937-1.585c-1.59,0-2.903,0.528-3.938,1.585c-1.035,1.057-1.552,2.424-1.552,4.101
			C298.042,250.643,298.56,252.009,299.595,253.065z"/>
		<path fill="#ff4466" d="M236.646,296.866h-4.182l-6.012-17.384h3.79l4.313,13.136l4.313-13.136h3.79l4.313,13.136l4.313-13.136
			h3.791l-6.012,17.384h-4.183l-4.117-11.894L236.646,296.866z"/>
		<path fill="#ff4466" d="M274.483,289.775h-13.625c0.087,1.264,0.664,2.282,1.732,3.056c1.067,0.773,2.287,1.16,3.66,1.16
			c2.178,0,3.833-0.687,4.967-2.059l2.091,2.287c-1.874,1.938-4.313,2.908-7.319,2.908c-2.44,0-4.515-0.812-6.225-2.435
			s-2.565-3.801-2.565-6.535c0-2.733,0.871-4.906,2.614-6.519c1.742-1.612,3.795-2.418,6.159-2.418c2.363,0,4.373,0.713,6.029,2.14
			c1.655,1.427,2.483,3.394,2.483,5.898V289.775z M260.858,286.9h9.966c0-1.459-0.457-2.582-1.372-3.366s-2.042-1.176-3.382-1.176
			c-1.34,0-2.543,0.408-3.611,1.225C261.392,284.4,260.858,285.507,260.858,286.9z"/>
		<path fill="#ff4466" d="M287.815,279.222c2.331,0,4.324,0.806,5.98,2.418c1.655,1.612,2.483,3.758,2.483,6.437
			c0,2.68-0.822,4.858-2.467,6.535c-1.645,1.678-3.562,2.517-5.751,2.517c-2.189,0-4.155-0.959-5.898-2.876v2.614h-3.66v-24.245
			h3.66v9.9C283.6,280.321,285.484,279.222,287.815,279.222z M282.097,288.207c0,1.656,0.5,3.012,1.503,4.068
			c1.001,1.057,2.222,1.585,3.66,1.585c1.438,0,2.69-0.523,3.757-1.568c1.067-1.046,1.602-2.402,1.602-4.068s-0.523-3.05-1.569-4.15
			c-1.045-1.1-2.298-1.649-3.757-1.649c-1.46,0-2.691,0.55-3.692,1.649C282.598,285.174,282.097,286.552,282.097,288.207z"/>
	</g>
</g>
</svg>
