<?xml version="1.0" encoding="utf-8"?>
<!-- Generator: Adobe Illustrator 16.0.0, SVG Export Plug-In . SVG Version: 6.00 Build 0)  -->
<!DOCTYPE svg PUBLIC "-//W3C//DTD SVG 1.1//EN" "http://www.w3.org/Graphics/SVG/1.1/DTD/svg11.dtd">
<svg version="1.1" id="Capa_1" xmlns="http://www.w3.org/2000/svg" xmlns:xlink="http://www.w3.org/1999/xlink" x="0px" y="0px"
	 width="527.975px" height="533.982px" viewBox="0 0 527.975 533.982" enable-background="new 0 0 527.975 533.982"
	 xml:space="preserve">
<g>
	<g>
		<path fill="#FF4466" d="M112.284,344.847c-11.878-23.357-18.579-49.82-18.579-77.855c0-13.622,1.59-26.868,4.578-39.569
			l-84.851-15.806c-3.882,17.839-5.945,36.362-5.945,55.375c0,42.031,10.004,81.709,27.737,116.771L112.284,344.847z"/>
		<path fill="#FF4466" d="M369.593,132.663c27.03,21.52,47.405,51.114,57.539,85.16l84.075-19.768
			c-14.497-52.688-45.2-98.597-86.379-131.974L369.593,132.663z"/>
		<path fill="#FF4466" d="M104.069,208.03c16.251-44.562,50.395-80.439,93.68-98.836l-20.977-84.832
			C101.082,51.88,41.959,114.189,18.486,192.089L104.069,208.03z"/>
		<path fill="#FF4466" d="M216.705,102.451c15.013-4.354,30.875-6.694,47.282-6.694c32.686,0,63.217,9.269,89.15,25.324
			l55.608-67.031c-41.2-28.38-91.048-44.993-144.759-44.993c-23.58,0-46.41,3.217-68.099,9.208L216.705,102.451z"/>
		<path fill="#FF4466" d="M196.076,424.051c-30.035-13.149-55.563-34.748-73.616-61.819L45,401.346
			c28.501,46.877,71.471,83.877,122.659,104.752L196.076,424.051z"/>
		<path fill="#FF4466" d="M431.731,237.412c1.664,9.607,2.537,19.49,2.537,29.579c0,28.57-6.967,55.502-19.273,79.184l78.013,37.064
			c17.569-34.934,27.479-74.424,27.479-116.248c0-16.878-1.631-33.37-4.709-49.344L431.731,237.412z"/>
		<path fill="#FF4466" d="M317.696,429.524c-16.885,5.639-34.94,8.7-53.709,8.7c-17.077,0-33.563-2.539-49.117-7.243l-28.382,81.946
			c24.452,7.783,50.485,11.996,77.499,11.996c27.375,0,53.74-4.33,78.479-12.313L317.696,429.524z"/>
		<path fill="#FF4466" d="M404.645,363.517c-17.086,25.129-40.656,45.438-68.291,58.508l24.943,83.67
			c50.93-21.019,93.653-58.021,121.973-104.822L404.645,363.517z"/>
	</g>
	<circle fill="none" stroke="#FF4466" stroke-width="5" stroke-miterlimit="10" cx="263.986" cy="266.991" r="139.5"/>
	<g>
		<path fill="#FF4466" d="M223.143,237.331c2.199,1.993,3.301,4.765,3.301,8.315s-1.067,6.361-3.202,8.431
			c-2.136,2.069-5.403,3.104-9.803,3.104h-7.581v-22.84h7.843C217.795,234.34,220.943,235.337,223.143,237.331z M222.555,245.744
			c0-5.228-2.995-7.842-8.985-7.842h-3.855v15.651h4.28c2.767,0,4.885-0.658,6.355-1.977
			C221.82,250.259,222.555,248.315,222.555,245.744z"/>
		<path fill="#FF4466" d="M231.117,236.333c-0.458-0.457-0.687-1.002-0.687-1.634c0-0.632,0.229-1.176,0.687-1.634
			c0.457-0.457,1.001-0.687,1.634-0.687c0.631,0,1.177,0.229,1.635,0.687c0.456,0.458,0.686,1.002,0.686,1.634
			c0,0.632-0.229,1.177-0.686,1.634c-0.458,0.457-1.004,0.687-1.635,0.687C232.118,237.02,231.574,236.791,231.117,236.333z
			 M234.547,257.18h-3.659v-17.383h3.659V257.18z"/>
		<path fill="#FF4466" d="M252.224,251.985c0,1.656-0.601,2.979-1.797,3.971c-1.198,0.991-2.734,1.486-4.607,1.486
			c-1.264,0-2.576-0.229-3.938-0.687c-1.36-0.457-2.563-1.1-3.609-1.928l1.765-2.843c2.025,1.525,3.986,2.287,5.881,2.287
			c0.828,0,1.481-0.19,1.961-0.571c0.479-0.381,0.72-0.866,0.72-1.454c0-0.871-1.154-1.655-3.465-2.353
			c-0.174-0.065-0.305-0.109-0.392-0.131c-3.616-0.979-5.424-2.614-5.424-4.901c0-1.612,0.626-2.902,1.879-3.872
			c1.252-0.969,2.88-1.454,4.885-1.454c2.004,0,3.898,0.588,5.687,1.765l-1.373,2.712c-1.416-0.937-2.951-1.405-4.606-1.405
			c-0.872,0-1.58,0.158-2.124,0.474c-0.545,0.316-0.816,0.79-0.816,1.422c0,0.566,0.282,0.98,0.85,1.241
			c0.393,0.196,0.942,0.382,1.65,0.556c0.708,0.175,1.334,0.349,1.879,0.523c0.544,0.174,1.071,0.37,1.585,0.588
			c0.511,0.218,1.062,0.522,1.648,0.915C251.636,249.11,252.224,250.33,252.224,251.985z"/>
		<path fill="#FF4466" d="M272.547,250.09h-13.625c0.087,1.263,0.664,2.281,1.731,3.055s2.287,1.16,3.66,1.16
			c2.178,0,3.833-0.687,4.967-2.059l2.091,2.287c-1.874,1.939-4.313,2.908-7.318,2.908c-2.44,0-4.516-0.812-6.226-2.435
			c-1.71-1.622-2.564-3.801-2.564-6.535c0-2.733,0.87-4.906,2.613-6.519c1.742-1.611,3.796-2.418,6.159-2.418
			s4.373,0.714,6.029,2.141c1.653,1.427,2.481,3.393,2.481,5.897L272.547,250.09L272.547,250.09z M258.922,247.214h9.967
			c0-1.459-0.457-2.581-1.372-3.365c-0.915-0.784-2.043-1.177-3.383-1.177s-2.544,0.408-3.61,1.226
			C259.456,244.714,258.922,245.821,258.922,247.214z"/>
		<path fill="#FF4466" d="M280.226,247.77v9.41h-3.659v-17.383h3.659v3.169c0.589-1.066,1.398-1.905,2.435-2.516
			c1.034-0.609,2.15-0.915,3.351-0.915c1.961,0,3.545,0.6,4.754,1.797c1.209,1.198,1.813,2.931,1.813,5.195v10.652h-3.66v-9.541
			c0-3.202-1.33-4.804-3.985-4.804c-1.265,0-2.364,0.42-3.302,1.259C280.695,244.932,280.226,246.158,280.226,247.77z
			 M287.153,237.673c-0.566,0-1.355-0.256-2.368-0.768c-1.013-0.512-1.661-0.77-1.944-0.77c-0.719,0-1.089,0.479-1.109,1.438h-2.418
			c0-1.264,0.256-2.288,0.768-3.072c0.513-0.784,1.227-1.176,2.141-1.176c0.589,0,1.404,0.256,2.45,0.768
			c1.046,0.512,1.731,0.768,2.06,0.768c0.654,0,0.979-0.479,0.979-1.438h2.451C290.094,236.257,289.092,237.673,287.153,237.673z"/>
		<path fill="#FF4466" d="M312.216,254.844c-1.742,1.731-3.92,2.598-6.535,2.598c-2.613,0-4.793-0.866-6.535-2.598
			c-1.742-1.732-2.613-3.851-2.613-6.354c0-2.504,0.871-4.624,2.613-6.355c1.742-1.731,3.922-2.598,6.535-2.598
			c2.615,0,4.793,0.866,6.535,2.598c1.741,1.732,2.614,3.851,2.614,6.355C314.83,250.993,313.958,253.113,312.216,254.844z
			 M301.743,252.589c1.035,1.057,2.348,1.585,3.938,1.585c1.59,0,2.901-0.528,3.938-1.585c1.036-1.057,1.554-2.423,1.554-4.101
			c0-1.677-0.519-3.044-1.554-4.101c-1.034-1.057-2.348-1.585-3.938-1.585c-1.591,0-2.902,0.528-3.938,1.585
			c-1.036,1.057-1.551,2.424-1.551,4.101C300.192,250.167,300.708,251.533,301.743,252.589z"/>
		<path fill="#FF4466" d="M225.285,279.007v15.161c0,3.071-0.834,5.375-2.5,6.91c-1.667,1.536-3.807,2.304-6.421,2.304
			s-4.978-0.816-7.091-2.449l1.731-2.777c1.699,1.285,3.414,1.928,5.146,1.928c1.73,0,3.104-0.447,4.117-1.34
			c1.013-0.895,1.519-2.32,1.519-4.28v-2.222c-0.544,1.023-1.323,1.841-2.336,2.449c-1.013,0.61-2.151,0.916-3.414,0.916
			c-2.31,0-4.205-0.807-5.686-2.418c-1.482-1.612-2.224-3.616-2.224-6.014c0-2.396,0.74-4.398,2.224-6.012
			c1.479-1.611,3.37-2.418,5.669-2.418c2.298,0,4.166,0.947,5.604,2.843v-2.581H225.285L225.285,279.007z M211.724,287.028
			c0,1.428,0.44,2.658,1.322,3.692c0.883,1.034,2.069,1.552,3.563,1.552s2.701-0.5,3.627-1.502s1.389-2.25,1.389-3.742
			c0-1.491-0.469-2.756-1.404-3.79c-0.938-1.033-2.146-1.552-3.628-1.552c-1.48,0-2.662,0.533-3.545,1.601
			C212.166,284.354,211.724,285.603,211.724,287.028z"/>
		<path fill="#FF4466" d="M239.694,282.438c-1.81,0-3.169,0.588-4.084,1.765c-0.915,1.176-1.373,2.756-1.373,4.737v7.449h-3.659
			v-17.383h3.659v3.496c0.589-1.09,1.389-1.982,2.402-2.68c1.013-0.697,2.085-1.057,3.218-1.078l0.033,3.691
			C239.825,282.438,239.759,282.438,239.694,282.438z"/>
		<path fill="#FF4466" d="M257.632,296.39h-3.333v-2.32c-1.438,1.723-3.364,2.582-5.782,2.582c-1.81,0-3.307-0.512-4.493-1.535
			c-1.188-1.023-1.78-2.391-1.78-4.102c0-1.71,0.631-2.99,1.896-3.84c1.264-0.85,2.974-1.273,5.13-1.273h4.737v-0.653
			c0-2.31-1.284-3.463-3.854-3.463c-1.612,0-3.29,0.588-5.032,1.764l-1.634-2.287c2.112-1.677,4.509-2.516,7.188-2.516
			c2.049,0,3.721,0.519,5.017,1.552c1.296,1.035,1.943,2.663,1.943,4.885L257.632,296.39L257.632,296.39z M253.973,289.92v-1.471
			h-4.117c-2.637,0-3.954,0.827-3.954,2.483c0,0.85,0.327,1.498,0.979,1.943c0.653,0.447,1.563,0.67,2.729,0.67
			c1.165,0,2.184-0.327,3.055-0.98C253.537,291.913,253.973,291.032,253.973,289.92z M252.372,276.785h-3.333l3.464-4.738
			l3.855,1.603L252.372,276.785z"/>
		<path fill="#FF4466" d="M267.239,277.569v1.438h4.574v2.94h-4.574v14.441h-3.66v-14.441h-2.188v-2.94h2.188v-1.34
			c0-1.83,0.55-3.284,1.65-4.362c1.1-1.078,2.429-1.617,3.985-1.617c1.558,0,2.979,0.578,4.266,1.731l-1.503,2.58
			c-0.721-0.763-1.472-1.144-2.255-1.144c-0.784,0-1.396,0.244-1.83,0.734C267.457,276.081,267.239,276.742,267.239,277.569z"/>
		<path fill="#FF4466" d="M275.57,275.543c-0.457-0.458-0.687-1.002-0.687-1.634c0-0.633,0.229-1.176,0.687-1.635
			c0.458-0.457,1.002-0.687,1.634-0.687s1.177,0.229,1.634,0.687c0.458,0.459,0.688,1.002,0.688,1.635
			c0,0.632-0.229,1.176-0.688,1.634c-0.457,0.457-1.002,0.687-1.634,0.687S276.028,276,275.57,275.543z M279,296.39h-3.659v-17.383
			H279V296.39z"/>
		<path fill="#FF4466" d="M292.004,296.651c-2.418,0-4.498-0.821-6.239-2.467c-1.743-1.645-2.614-3.795-2.614-6.453
			c0-2.657,0.91-4.819,2.729-6.485c1.819-1.667,4.036-2.5,6.649-2.5c2.615,0,4.824,0.903,6.633,2.712l-2.156,2.646
			c-1.502-1.308-3.018-1.961-4.541-1.961c-1.524,0-2.85,0.506-3.971,1.521c-1.123,1.013-1.684,2.319-1.684,3.921
			s0.557,2.957,1.668,4.066c1.108,1.111,2.477,1.668,4.1,1.668s3.154-0.74,4.592-2.223l2.156,2.354
			C297.211,295.584,294.772,296.651,292.004,296.651z"/>
		<path fill="#FF4466" d="M317.296,294.054c-1.742,1.731-3.92,2.598-6.533,2.598c-2.615,0-4.793-0.865-6.535-2.598
			c-1.744-1.731-2.615-3.851-2.615-6.354c0-2.505,0.871-4.624,2.615-6.355c1.742-1.731,3.92-2.598,6.535-2.598
			c2.613,0,4.791,0.864,6.533,2.598c1.743,1.731,2.614,3.851,2.614,6.355C319.91,290.203,319.04,292.322,317.296,294.054z
			 M306.825,291.799c1.033,1.058,2.347,1.585,3.938,1.585c1.59,0,2.901-0.527,3.936-1.585c1.035-1.057,1.554-2.423,1.554-4.101
			s-0.519-3.045-1.554-4.102c-1.032-1.057-2.346-1.585-3.936-1.585c-1.592,0-2.904,0.528-3.938,1.585
			c-1.035,1.058-1.553,2.424-1.553,4.102S305.79,290.743,306.825,291.799z"/>
	</g>
</g>
<g>
	<path fill="#FFFFFF" d="M291.427,68.407c-0.646-1.458,0.043-2.802,0.414-4.151c0.13-0.469,0.67-0.623,1.197-0.512
		c1.055,0.223,2.114,0.437,3.169,0.66c0.472,0.099,0.918,0.39,0.866,0.851c-0.161,1.425-0.021,2.97-1.284,4.055
		C294.335,69.009,292.881,68.708,291.427,68.407z"/>
	<path fill="#FFFFFF" d="M306.448,34.921c-2.106,9.364-5.853,18.105-10.221,26.611c-0.353,0.684-0.732,0.495-1.221,0.417
		c-0.503-0.079-0.816-0.19-0.86-0.848c-0.579-8.895-0.623-17.773,0.772-26.608c0.65-4.118,1.683-8.113,3.889-11.719
		c0.972-1.589,2.105-3.047,3.453-4.333c0.905-0.864,2.975-0.436,3.449,0.713c1.684,4.064,1.992,8.288,1.383,12.602
		C306.941,32.819,306.666,33.867,306.448,34.921z"/>
	<path fill="#FFFFFF" d="M293.745,61.778c-0.974-0.485-1.693-0.833-1.563-1.869c0.051-0.402-0.164-0.716-0.302-1.051
		c-2.698-6.562-4.919-13.264-5.943-20.312c-0.467-3.211-0.616-6.422,0.072-9.643c1.28-5.993,5.943-10.473,11.987-11.345
		c0.917-0.133,1.876,0.019,2.827,0.038c-0.016,0.394-0.312,0.384-0.485,0.467c-4.589,2.156-7.394,5.825-8.952,10.545
		c-1.885,5.709-1.686,11.552-1.029,17.409C290.945,51.284,292.127,56.433,293.745,61.778z"/>
	<path fill="#FFFFFF" d="M307.295,19.226c1.262,0.104,2.236,0.468,3.133,1.106c6.047,4.318,7.924,11.161,5.013,18.399
		c-1.893,4.71-4.818,8.78-7.985,12.69c-3.017,3.723-6.308,7.192-9.843,10.428c-0.281,0.258-0.519,0.678-1.095,0.31
		c0.219-0.282,0.424-0.562,0.645-0.83c4.975-6.071,9.375-12.505,12.31-19.835c1.633-4.077,2.626-8.281,2.162-12.724
		C311.257,25.17,309.875,22.02,307.295,19.226z"/>
	<path fill="#FFFFFF" d="M291.028,59.406c-4.849-7.938-8.729-16.037-9.567-25.274c-0.339-3.734,0.131-7.347,2.296-10.557
		c1.522-2.258,3.643-3.757,6.155-4.733c0.123-0.048,0.255-0.081,0.385-0.097c0.053-0.006,0.111,0.052,0.17,0.082
		c0.084,0.282-0.153,0.336-0.313,0.432c-4.646,2.743-6.611,7.038-6.906,12.209c-0.367,6.435,1.394,12.476,3.657,18.399
		c1.074,2.808,2.362,5.517,3.78,8.166C290.868,58.374,291.178,58.683,291.028,59.406z"/>
	<path fill="#FFFFFF" d="M316.086,24.179c0.582-0.177,0.814,0.251,1.096,0.546c4.123,4.347,4.591,9.337,2.477,14.714
		c-1.975,5.021-5.356,9.079-9.091,12.868c-2.989,3.032-6.259,5.739-9.773,8.144c-0.287,0.197-0.534,0.51-1.191,0.457
		c0.479-0.386,0.822-0.662,1.165-0.938c5.708-4.588,10.827-9.73,14.662-16.023c2.087-3.427,3.653-7.058,3.688-11.184
		C319.143,29.54,318.104,26.699,316.086,24.179z"/>
</g>
<g>
	<g>
		<g>
			<path fill="#FFFFFF" d="M442.003,142.556l3.442-4.068l-3.505-5.759l-5.194,1.187l-1.308-2.148l19.276-4.336l1.307,2.149
				l-12.713,15.124L442.003,142.556z M452.33,130.355l-8.031,1.823l2.719,4.469L452.33,130.355z"/>
			<path fill="#FFFFFF" d="M443.253,145.456l-1.79-2.944l3.442-4.066l-3.176-5.217l-5.193,1.186l-1.79-2.942l20.181-4.539
				l1.637,2.688L443.253,145.456z M442.544,142.597l0.824,1.355l12.114-14.414l-0.979-1.609l-18.368,4.132l0.823,1.355l5.195-1.188
				l3.834,6.303L442.544,142.597z M446.959,137.399l-3.354-5.515l9.91-2.25L446.959,137.399z M444.992,132.471l2.084,3.426
				l4.07-4.823L444.992,132.471z"/>
		</g>
	</g>
	
		<rect x="448.844" y="136.303" transform="matrix(-0.52 -0.8542 0.8542 -0.52 562.258 603.3668)" fill="#FFFFFF" width="3.634" height="14.799"/>
	<circle fill="#FFFFFF" cx="459.515" cy="138.332" r="1.956"/>
	<path fill="#FFFFFF" d="M454.877,106.668l-38.267,23.278l23.576,38.755l38.267-23.278L454.877,106.668z M441.115,164.784
		l-20.601-33.859l33.436-20.34l20.598,33.861L441.115,164.784z"/>
</g>
<g>
	<path fill="#FFFFFF" d="M457.75,261.629l-7.514,44.692l45.265,7.609l7.515-44.691L457.75,261.629z M493.117,310.629l-39.548-6.648
		l6.563-39.051l39.55,6.648L493.117,310.629z"/>
	<g>
		<path fill="#FFFFFF" d="M465.204,285.798c0.53-3.188,1.063-6.376,1.594-9.563c0.05-0.297,0.16-0.377,0.466-0.34
			c0.317,0.038,0.635,0.072,0.952,0.117c1.331,0.186,2.66,0.379,3.984,0.615c1.047,0.187,2.054,0.5,2.981,1.03
			c1.12,0.641,1.965,1.526,2.436,2.743c0.304,0.78,0.412,1.594,0.388,2.429c-0.023,0.812-0.15,1.607-0.399,2.382
			c-0.646,2.017-1.955,3.375-3.999,3.991c-0.962,0.289-1.949,0.36-2.948,0.308c-0.783-0.043-1.547-0.18-2.31-0.339
			c-0.104-0.021-0.211-0.036-0.315-0.056c-0.056-0.015-0.081,0.003-0.086,0.062c-0.001,0.028-0.01,0.056-0.016,0.084
			c-0.369,2.222-0.74,4.442-1.11,6.665c-0.009,0.045-0.017,0.095-0.024,0.14c-0.029,0.146-0.092,0.196-0.238,0.173
			c-0.937-0.154-1.871-0.311-2.806-0.47c-0.142-0.021-0.186-0.088-0.172-0.231c0.005-0.047,0.014-0.093,0.021-0.143
			C464.135,292.198,464.668,288.999,465.204,285.798z M469.023,282.699c-0.188,1.128-0.374,2.253-0.566,3.382
			c-0.017,0.099,0.007,0.129,0.105,0.15c0.502,0.109,1.01,0.194,1.518,0.271c0.626,0.093,1.256,0.117,1.886,0.005
			c1.024-0.186,1.798-0.716,2.252-1.663c0.368-0.771,0.521-1.59,0.454-2.441c-0.073-0.91-0.479-1.643-1.227-2.179
			c-0.45-0.323-0.955-0.53-1.488-0.664c-0.732-0.183-1.484-0.264-2.229-0.348c-0.089-0.012-0.126,0.009-0.142,0.106
			C469.402,280.446,469.211,281.573,469.023,282.699z"/>
		<path fill="#FFFFFF" d="M477.716,295.916c0.069-0.417,0.138-0.833,0.208-1.249c0.006-0.039,0.013-0.08,0.021-0.119
			c0.035-0.161,0.115-0.188,0.235-0.08c0.429,0.392,0.899,0.723,1.414,0.986c0.795,0.411,1.633,0.677,2.527,0.743
			c0.283,0.023,0.563,0.003,0.84-0.075c0.861-0.24,1.228-1.161,0.77-1.943c-0.246-0.417-0.6-0.738-0.954-1.058
			c-0.479-0.426-1.016-0.772-1.514-1.17c-0.646-0.518-1.239-1.082-1.662-1.803c-0.427-0.721-0.579-1.499-0.513-2.327
			c0.049-0.615,0.189-1.203,0.479-1.748c0.556-1.047,1.421-1.712,2.544-2.051c0.747-0.227,1.514-0.267,2.289-0.181
			c0.963,0.108,1.898,0.335,2.803,0.694c0.236,0.094,0.469,0.206,0.688,0.338c0.235,0.142,0.279,0.241,0.235,0.511
			c-0.13,0.792-0.265,1.587-0.397,2.38c0,0.007-0.001,0.016-0.003,0.023c-0.04,0.222-0.181,0.273-0.359,0.126
			c-0.228-0.187-0.472-0.347-0.731-0.489c-0.789-0.435-1.637-0.702-2.531-0.812c-0.385-0.046-0.762-0.021-1.123,0.139
			c-0.73,0.323-0.97,1.152-0.522,1.813c0.265,0.392,0.621,0.692,0.98,0.992c0.501,0.423,1.054,0.783,1.561,1.201
			c0.563,0.464,1.088,0.964,1.504,1.569c0.567,0.829,0.772,1.746,0.651,2.74c-0.094,0.774-0.311,1.501-0.752,2.149
			c-0.591,0.87-1.423,1.397-2.428,1.663c-0.89,0.233-1.791,0.235-2.694,0.095c-1.043-0.165-2.049-0.452-2.984-0.951
			c-0.228-0.122-0.439-0.266-0.648-0.417c-0.142-0.102-0.184-0.219-0.153-0.388C477.574,296.785,477.644,296.351,477.716,295.916z"
			/>
	</g>
</g>
<g>
	<path fill="#FFFFFF" d="M385.601,433.055l27.443,30.947l31.344-27.794l-27.443-30.948L385.601,433.055z M440.677,436.009
		l-27.384,24.288l-23.979-27.041l27.385-24.286L440.677,436.009z"/>
	<g>
		
			<rect x="406.613" y="429.906" transform="matrix(-0.7483 0.6633 -0.6633 -0.7483 1006.4937 498.6685)" fill="#FFFFFF" width="4.077" height="20.712"/>
		<g>
			<path fill="#FFFFFF" d="M423.748,428.64c0.931,1.05,1.619,2.117,2.061,3.202c0.443,1.084,0.643,2.16,0.597,3.227
				c-0.049,1.067-0.345,2.112-0.892,3.138c-0.547,1.026-1.345,2.006-2.395,2.936l-3.558,3.152l-11.824-13.34l4.279-3.794
				c1.001-0.887,2.019-1.486,3.055-1.798c1.036-0.313,2.061-0.381,3.073-0.21c1.013,0.174,1.992,0.563,2.938,1.169
				C422.028,426.929,422.917,427.701,423.748,428.64z M421.046,431.002c-0.569-0.642-1.173-1.161-1.811-1.558
				c-0.637-0.395-1.294-0.639-1.973-0.732c-0.678-0.093-1.36-0.022-2.046,0.21c-0.686,0.234-1.37,0.651-2.049,1.253l-0.741,0.658
				l7.817,8.82l0.779-0.69c0.68-0.602,1.164-1.236,1.455-1.903c0.292-0.666,0.425-1.342,0.402-2.028
				c-0.021-0.685-0.198-1.372-0.524-2.065c-0.326-0.691-0.769-1.353-1.327-1.981L421.046,431.002z"/>
		</g>
	</g>
</g>
<g>
	<path fill="#FFFFFF" d="M240.806,468.006l-0.1,46.844l47.443,0.101l0.101-46.844L240.806,468.006z M285.16,511.986l-41.452-0.084
		l0.086-40.933l41.455,0.088L285.16,511.986z"/>
	<g>
		<g>
			<g>
				<path fill="#FFFFFF" d="M263.524,502.224l-2.096-5.884l-7.898,0.162l-1.855,5.964l-2.946,0.062l6.95-22.089l2.948-0.061
					l7.848,21.783L263.524,502.224z M257.237,484.573l-2.879,9.214l6.13-0.126L257.237,484.573z"/>
				<path fill="#FFFFFF" d="M267.202,502.662l-4.039,0.081l-2.095-5.881l-7.156,0.146l-1.854,5.963l-4.035,0.081l7.274-23.125
					l3.689-0.075L267.202,502.662z M263.885,501.698l1.857-0.037l-7.478-20.762l-2.208,0.045l-6.623,21.049l1.858-0.037l1.854-5.965
					l8.643-0.176L263.885,501.698z M261.215,494.163l-7.563,0.155l3.55-11.366L261.215,494.163z M255.064,493.258l4.698-0.099
					l-2.493-6.962L255.064,493.258z"/>
			</g>
		</g>
		<path fill="#FFFFFF" d="M267.673,494.544c0.005-2.39,0.018-4.782,0.014-7.171c-0.001-0.505-0.061-0.932,0.604-1.16
			c2.508-0.862,5.024-1.562,7.723-1.146c2.997,0.462,4.814,2.414,4.861,5.463c0.056,3.733-0.03,8.531,0.006,12.268l-1.695,0.015
			c-1.395,0.017-2.245,0.002-2.245,0.002s0.036-1.316,0.04-2.693c0.006-2.839,0.034-5.677,0.011-8.517
			c-0.025-2.569-1.37-3.611-3.871-3.112c-0.831,0.164-1.239,0.472-1.225,1.448c0.055,3.787,0.059,9.097,0.117,12.88
			c0,0-0.951-0.02-1.559-0.022c-1.329-0.012-2.809-0.006-2.809-0.006s0.052-0.689,0.058-2.717c0.003-1.843,0.009-3.686,0.012-5.528
			C267.701,494.544,267.685,494.544,267.673,494.544z"/>
	</g>
</g>
<g>
	<polygon fill="#FFFFFF" points="124.429,413.158 115.76,416.306 126.052,427.089 138.642,428.05 	"/>
	<polygon fill="#FFFFFF" points="131.014,450.697 138.76,427.938 126.171,426.976 	"/>
	<polygon fill="#FDFDFD" points="115.881,416.193 120.274,426.798 126.171,426.976 	"/>
	<polygon fill="#F3F3F5" points="131.014,450.697 126.171,426.976 120.274,426.798 	"/>
	<polygon fill="#FFFFFF" points="106.577,426.056 120.274,426.798 131.014,450.697 111.08,441.378 106.929,439.533 	"/>
	<polygon fill="#FFFFFF" points="96.56,434.631 92.986,443.278 107.074,458.175 107.047,445.62 	"/>
	<polygon fill="#F3F3F5" points="131.014,450.697 96.56,434.631 107.047,445.62 	"/>
	<polygon fill="#FFFFFF" points="107.074,458.175 131.014,450.697 107.047,445.62 	"/>
	<polygon fill="#FDFDFD" points="96.483,434.59 106.871,439.474 106.773,445.372 	"/>
</g>
<g>
	<path fill="#FFFFFF" d="M31.851,258.862l-0.155,44.283l44.851,0.156l0.154-44.283L31.851,258.862z M73.726,300.495l-39.188-0.133
		l0.133-38.694l39.189,0.136L73.726,300.495z"/>
	<g>
		<g>
			<path fill="#FFFFFF" d="M56.83,276.756c-0.005,1.235-0.192,2.317-0.566,3.243c-0.373,0.925-0.884,1.69-1.54,2.296
				c-0.654,0.604-1.435,1.062-2.342,1.366c-0.909,0.305-1.9,0.457-2.981,0.453l-2.549-0.01l-0.032,8.408l-4.112-0.017l0.086-23.018
				l7.086,0.027c1.229,0.003,2.282,0.215,3.158,0.634c0.879,0.419,1.601,0.965,2.164,1.638c0.564,0.675,0.977,1.449,1.241,2.324
				C56.702,274.975,56.832,275.861,56.83,276.756z M52.916,276.899c0.002-0.659-0.089-1.213-0.276-1.661
				c-0.187-0.449-0.457-0.808-0.804-1.075c-0.349-0.268-0.763-0.46-1.248-0.58c-0.481-0.118-1.014-0.18-1.599-0.182l-2.099-0.008
				l-0.025,7.065l1.871,0.006c0.548,0.003,1.074-0.053,1.574-0.169c0.501-0.114,0.947-0.312,1.334-0.585
				c0.388-0.277,0.697-0.643,0.925-1.102C52.799,278.153,52.914,277.583,52.916,276.899z"/>
		</g>
		<path fill="#FFFFFF" d="M65.65,279.317l-2.524,0.06c0,0-1.956-0.147-1.986,1.586c0.069,0-0.042,11.707-0.042,11.707l-3.622-0.013
			l0.053-14.405c0,0,2.167-1.694,8.133-1.941C65.658,277.77,65.65,279.317,65.65,279.317z"/>
	</g>
</g>
<g>
	<path fill="#FFFFFF" d="M61.799,119.666l35.53,29.28l29.655-35.984L91.455,83.68L61.799,119.666z M122.866,113.385l-25.909,31.442
		l-31.044-25.583l25.911-31.441L122.866,113.385z"/>
	<g>
		<path fill="#FFFFFF" d="M77.625,122.679c0.95-1.357,1.848-2.748,2.935-4.006c0.744-0.862,1.519-1.681,2.457-2.332
			c2.235-1.551,4.641-1.847,7.139-0.799c2.437,1.022,4.339,2.734,5.678,5.009c1.706,2.899,1.352,5.765-0.328,8.549
			c-0.968,1.605-2.212,2.991-3.524,4.321c-0.197,0.2-0.369,0.424-0.554,0.638C86.826,130.266,82.227,126.473,77.625,122.679z
			 M86.427,126.034c1.502,1.238,3.016,2.461,4.498,3.725c0.371,0.317,0.578,0.289,0.851-0.076c0.366-0.486,0.786-0.931,1.142-1.421
			c1.453-2.003,1.49-4.211,0.141-6.279c-0.755-1.159-1.782-2.039-2.887-2.834c-2.095-1.507-4.464-1.51-6.412-0.008
			c-0.841,0.65-1.494,1.47-2.062,2.372c-0.22,0.347-0.163,0.5,0.126,0.735C83.367,123.498,84.894,124.77,86.427,126.034z"/>
		<path fill="#FFFFFF" d="M101.481,101.972c0.584,1.145,1.415,2.125,2.141,3.174c1.674,2.422,3.383,4.819,5.084,7.222
			c0.199,0.281,0.238,0.489-0.027,0.771c-0.497,0.53-0.86,1.392-1.448,1.575c-0.587,0.183-1.298-0.486-1.951-0.787
			c-2.088-0.968-4.194-1.895-6.191-3.047c-0.073-0.043-0.14-0.071-0.255,0.04c1.276,1.387,2.341,2.936,3.424,4.473
			c0.603,0.857,1.188,1.729,1.814,2.568c0.222,0.296,0.261,0.485-0.006,0.77c-0.414,0.445-0.799,0.919-1.161,1.407
			c-0.215,0.29-0.387,0.286-0.704,0.138c-3.873-1.813-7.754-3.605-11.632-5.405c-0.034-0.016-0.057-0.055-0.121-0.12
			c0.562-0.682,1.133-1.363,1.689-2.056c0.173-0.216,0.301-0.153,0.508-0.043c2.627,1.382,5.25,2.773,7.816,4.269
			c0.209,0.121,0.401,0.27,0.696,0.32c-1.996-2.513-3.829-5.098-5.732-7.628c-0.262-0.346-0.343-0.578-0.003-0.91
			c0.331-0.327,0.627-0.694,0.888-1.079c0.21-0.308,0.414-0.293,0.704-0.153c2.809,1.373,5.65,2.684,8.39,4.195
			c0.047,0.026,0.101,0.037,0.313,0.112c-0.684-0.8-1.286-1.468-1.847-2.169c-1.44-1.795-2.853-3.612-4.297-5.403
			c-0.195-0.242-0.14-0.366,0.021-0.559c0.539-0.633,1.067-1.272,1.601-1.911C101.294,101.817,101.388,101.894,101.481,101.972z"/>
	</g>
</g>
<g>
	<path fill="#FFFFFF" d="M272.608,88.976l5.368-5.559c-0.834,0.352-1.619,0.542-2.521,0.397c-3.177-0.51-5.229-3.638-4.733-6.72
		c0.533-3.32,3.705-5.656,7.025-5.123c3.367,0.541,5.526,3.758,4.996,7.054c-0.259,1.612-0.928,2.6-2.015,3.763l-6.059,6.52
		L272.608,88.976z M281.104,78.641c0.377-2.348-1.252-4.628-3.6-5.006c-2.396-0.385-4.715,1.188-5.104,3.607
		c-0.396,2.466,1.181,4.763,3.671,5.163C278.538,82.802,280.716,81.06,281.104,78.641z"/>
	<path fill="#FFFFFF" d="M286.251,77.814c0.411-2.562,2.788-4.028,5.302-3.624c2.3,0.369,3.991,2.562,3.617,4.886
		c-0.266,1.66-1.31,2.854-2.894,3.33c1.818,0.949,2.915,3.047,2.588,5.087c-0.479,2.987-3.312,4.868-6.253,4.396
		c-2.939-0.472-5.063-3.003-4.583-5.991c0.335-2.086,1.984-3.719,4.035-4.07C286.696,80.951,285.984,79.474,286.251,77.814z
		 M293.101,87.257c0.328-2.039-1.089-3.97-3.128-4.297c-2.016-0.324-3.946,1.093-4.271,3.108c-0.335,2.087,1.063,3.99,3.126,4.321
		C290.891,90.722,292.774,89.296,293.101,87.257z M293.595,79.042c0.259-1.612-0.809-3.146-2.422-3.405
		c-1.612-0.259-3.127,0.837-3.386,2.448c-0.259,1.613,0.809,3.146,2.422,3.406C291.822,81.75,293.34,80.63,293.595,79.042z"/>
	<path fill="#FFFFFF" d="M298.63,79.364c0.347-2.157,2.443-3.548,4.554-3.209c2.134,0.343,3.604,2.403,3.261,4.537
		c-0.351,2.182-2.363,3.658-4.546,3.309C299.671,83.642,298.28,81.545,298.63,79.364z M305.096,80.452
		c0.217-1.352-0.759-2.7-2.109-2.917c-1.376-0.222-2.757,0.651-2.981,2.051c-0.232,1.446,0.667,2.808,2.138,3.044
		C303.566,82.858,304.868,81.875,305.096,80.452z M300.762,93.5L311,77.776l1.352,0.217L302.137,93.72L300.762,93.5z
		 M306.621,90.646c0.347-2.158,2.442-3.549,4.554-3.21c2.157,0.347,3.63,2.384,3.284,4.542c-0.347,2.157-2.363,3.657-4.545,3.307
		C307.684,94.927,306.27,92.828,306.621,90.646z M313.088,91.733c0.221-1.376-0.735-2.696-2.11-2.918
		c-1.376-0.221-2.732,0.656-2.957,2.056c-0.232,1.446,0.672,2.783,2.118,3.016C311.561,94.115,312.859,93.156,313.088,91.733z"/>
</g>
<g>
	<path fill="#FFFFFF" d="M400.159,155.188l7.724-0.244c-0.843-0.329-1.539-0.739-2.084-1.472c-1.922-2.58-1.215-6.253,1.289-8.119
		c2.696-2.009,6.6-1.474,8.609,1.224c2.037,2.735,1.343,6.546-1.334,8.541c-1.31,0.976-2.478,1.217-4.068,1.294l-8.888,0.452
		L400.159,155.188z M413.456,153.698c1.906-1.42,2.327-4.191,0.906-6.098c-1.447-1.946-4.208-2.434-6.174-0.971
		c-2.002,1.492-2.472,4.238-0.965,6.261C408.716,154.893,411.49,155.162,413.456,153.698z"/>
	<path fill="#FFFFFF" d="M418.225,169.467c-1.349,1.004-2.661,1.533-4.371,1.37c-1.671-0.193-3.229-1.039-4.249-2.406
		c-0.947-1.271-1.33-2.871-1.119-4.438c0.251-1.833,1.148-3.041,2.594-4.118l4.293-3.2c1.349-1.004,2.662-1.534,4.367-1.335
		c1.689,0.177,3.248,1.024,4.252,2.372c0.947,1.272,1.347,2.892,1.12,4.438c-0.251,1.834-1.148,3.041-2.592,4.118L418.225,169.467z
		 M412.098,161.243c-0.926,0.688-1.609,1.377-1.931,2.515c-0.393,1.282-0.099,2.681,0.689,3.739
		c0.818,1.098,2.142,1.789,3.501,1.765c1.139-0.04,1.942-0.488,2.849-1.164l4.274-3.185c0.925-0.688,1.624-1.359,1.944-2.496
		c0.392-1.281,0.1-2.68-0.705-3.759c-0.803-1.078-2.127-1.769-3.506-1.73c-1.119,0.025-1.936,0.455-2.841,1.13L412.098,161.243z"/>
	<path fill="#FFFFFF" d="M417.196,178.055l18.3-4.14l0.817,1.097l-18.285,4.16L417.196,178.055z M423.385,180.092
		c1.753-1.306,4.225-0.841,5.503,0.872c1.306,1.753,0.942,4.24-0.811,5.546s-4.245,0.977-5.564-0.796
		C421.164,183.903,421.614,181.412,423.385,180.092z M427.264,185.379c1.118-0.832,1.353-2.446,0.521-3.563
		s-2.417-1.433-3.552-0.587c-1.176,0.876-1.459,2.464-0.585,3.639C424.51,186.023,426.108,186.239,427.264,185.379z
		 M425.519,166.433c1.752-1.306,4.226-0.842,5.502,0.873c1.29,1.732,0.908,4.234-0.826,5.525c-1.771,1.32-4.242,0.977-5.564-0.795
		C423.283,170.226,423.747,167.752,425.519,166.433z M429.397,171.719c1.099-0.818,1.339-2.465,0.521-3.562
		c-0.832-1.118-2.431-1.454-3.568-0.607c-1.174,0.875-1.478,2.479-0.587,3.672C426.625,172.379,428.242,172.58,429.397,171.719z"/>
</g>
<g>
	<path fill="#FFFFFF" d="M108.124,147.633l2.117,7.48c0.098-0.98,0.324-1.667,0.97-2.442c2.028-2.437,5.642-2.648,8.022-0.666
		c2.604,2.166,3.098,5.889,0.9,8.529c-2.213,2.659-6.044,2.907-8.666,0.725c-1.144-0.953-1.68-2.148-2.099-3.56l-2.46-8.609
		L108.124,147.633z M118.3,153.353c-1.865-1.552-4.662-1.381-6.246,0.521c-1.551,1.864-1.279,4.652,0.566,6.189
		c1.865,1.552,4.643,1.332,6.209-0.55C120.366,157.666,120.163,154.905,118.3,153.353z"/>
	<path fill="#FFFFFF" d="M128.005,141.241c1.293,1.076,2.114,2.228,2.355,3.928c0.203,1.67-0.252,3.382-1.344,4.694
		c-1.014,1.218-2.48,1.966-4.053,2.127c-1.842,0.186-3.225-0.404-4.609-1.557l-4.116-3.426c-1.292-1.075-2.114-2.227-2.321-3.931
		c-0.223-1.685,0.234-3.398,1.31-4.69c1.015-1.219,2.496-1.985,4.052-2.128c1.842-0.186,3.227,0.404,4.611,1.557L128.005,141.241z
		 M121.445,149.123c0.886,0.738,1.716,1.242,2.897,1.287c1.338,0.082,2.629-0.531,3.474-1.545c0.876-1.052,1.237-2.501,0.896-3.817
		c-0.305-1.098-0.93-1.774-1.797-2.496l-4.099-3.411c-0.886-0.738-1.701-1.26-2.882-1.306c-1.338-0.082-2.629,0.53-3.49,1.565
		c-0.859,1.034-1.222,2.481-0.861,3.813c0.287,1.082,0.896,1.776,1.764,2.499L121.445,149.123z"/>
	<path fill="#FFFFFF" d="M123.348,134.86c-1.68-1.398-1.809-3.911-0.44-5.554c1.382-1.661,3.903-1.875,5.565-0.492
		c1.697,1.413,1.943,3.897,0.529,5.596C127.559,136.145,125.046,136.273,123.348,134.86z M127.579,129.851
		c-1.053-0.875-2.709-0.724-3.584,0.328c-0.893,1.071-0.845,2.704,0.244,3.61c1.126,0.937,2.756,0.856,3.709-0.289
		C128.87,132.393,128.686,130.773,127.579,129.851z M136.596,140.23l-8.311-16.822l0.875-1.052l8.326,16.804L136.596,140.23z
		 M137.127,133.735c-1.68-1.398-1.808-3.91-0.44-5.553c1.398-1.68,3.901-1.909,5.581-0.511c1.681,1.398,1.942,3.897,0.529,5.596
		C141.352,135.002,138.825,135.148,137.127,133.735z M141.358,128.726c-1.07-0.891-2.695-0.743-3.586,0.328
		s-0.828,2.685,0.262,3.591c1.125,0.937,2.736,0.841,3.674-0.285C142.63,131.253,142.466,129.648,141.358,128.726z"/>
</g>
<g>
	<path fill="#FFFFFF" d="M449.857,332.181l5.947-4.937c-0.868,0.26-1.668,0.362-2.549,0.12c-3.102-0.857-4.8-4.191-3.968-7.201
		c0.894-3.24,4.305-5.214,7.547-4.319c3.286,0.907,5.079,4.342,4.191,7.561c-0.435,1.573-1.208,2.481-2.417,3.519l-6.738,5.813
		L449.857,332.181z M459.437,322.842c0.634-2.293-0.734-4.737-3.027-5.371c-2.338-0.646-4.817,0.664-5.469,3.025
		c-0.665,2.406,0.649,4.863,3.082,5.534C456.429,326.694,458.785,325.202,459.437,322.842z"/>
	<path fill="#FFFFFF" d="M462.607,330.867c-0.167,2.047,1.193,3.893,3.16,4.435c2.27,0.627,4.782-0.622,5.42-2.938
		c0.659-2.385-0.658-4.741-3.065-5.406c-1.389-0.383-2.835-0.11-3.93,0.784l-1.363-0.751l3.843-7.959l8.171,2.257l-0.395,1.436
		l-6.854-1.892l-2.512,5.037c1.197-0.542,2.516-0.627,3.789-0.275c3.079,0.851,4.86,4.058,4.017,7.114
		c-0.914,3.31-4.271,4.999-7.513,4.105c-2.941-0.813-4.794-3.393-4.481-6.42L462.607,330.867z"/>
	<path fill="#FFFFFF" d="M476.778,325.485c0.581-2.106,2.818-3.259,4.879-2.689c2.084,0.575,3.317,2.784,2.742,4.868
		c-0.588,2.13-2.75,3.376-4.882,2.788C477.343,329.853,476.19,327.615,476.778,325.485z M483.086,327.276
		c0.364-1.32-0.456-2.768-1.776-3.131c-1.343-0.371-2.811,0.345-3.188,1.711c-0.39,1.412,0.355,2.864,1.792,3.26
		C481.302,329.5,482.703,328.666,483.086,327.276z M477.345,339.769l11.901-14.504l1.319,0.365l-11.879,14.51L477.345,339.769z
		 M483.483,337.577c0.581-2.107,2.816-3.26,4.877-2.69c2.106,0.581,3.347,2.768,2.766,4.874c-0.582,2.106-2.751,3.378-4.881,2.789
		C484.069,341.948,482.894,339.707,483.483,337.577z M489.789,339.368c0.371-1.344-0.434-2.762-1.776-3.132
		c-1.343-0.371-2.788,0.352-3.164,1.718c-0.391,1.411,0.36,2.84,1.772,3.229C488.01,341.567,489.406,340.756,489.789,339.368z"/>
</g>
<g>
	<path fill="#FFFFFF" d="M36.885,324.439c0.536,1.981,2.44,3.258,4.475,3.102c2.348-0.18,4.288-2.206,4.105-4.601
		c-0.188-2.467-2.227-4.238-4.718-4.048c-1.436,0.109-2.704,0.857-3.43,2.069l-1.537-0.244l0.918-8.79l8.453-0.646l0.113,1.485
		l-7.088,0.542l-0.656,5.59c0.942-0.915,2.154-1.44,3.471-1.542c3.185-0.243,5.948,2.171,6.189,5.332
		c0.263,3.425-2.323,6.151-5.676,6.408c-3.042,0.232-5.661-1.566-6.392-4.522L36.885,324.439z"/>
	<path fill="#FFFFFF" d="M50.778,323.377c0.537,1.982,2.441,3.258,4.477,3.103c2.347-0.18,4.288-2.207,4.105-4.602
		c-0.189-2.467-2.228-4.237-4.718-4.048c-1.437,0.11-2.706,0.857-3.431,2.069l-1.537-0.243l0.918-8.791l8.453-0.646l0.113,1.484
		l-7.088,0.542l-0.655,5.591c0.941-0.915,2.153-1.441,3.471-1.542c3.185-0.243,5.947,2.17,6.188,5.332
		c0.262,3.424-2.324,6.15-5.675,6.407c-3.042,0.232-5.662-1.566-6.392-4.521L50.778,323.377z"/>
	<path fill="#FFFFFF" d="M67.66,326.76l6.284-17.68l1.364-0.104l-6.26,17.677L67.66,326.76z M62.287,313.514
		c-0.167-2.18,1.547-4.021,3.679-4.185c2.154-0.165,4.065,1.496,4.229,3.651c0.168,2.203-1.444,4.108-3.647,4.276
		C64.297,317.429,62.456,315.717,62.287,313.514z M68.828,313.061c-0.104-1.365-1.367-2.449-2.731-2.345
		c-1.39,0.106-2.529,1.278-2.421,2.69c0.112,1.461,1.304,2.574,2.789,2.461C67.903,315.757,68.937,314.497,68.828,313.061z
		 M72.691,322.617c-0.167-2.179,1.546-4.021,3.678-4.184c2.179-0.166,4.087,1.47,4.253,3.649c0.167,2.179-1.444,4.109-3.647,4.277
		C74.724,326.532,72.86,324.82,72.691,322.617z M79.233,322.165c-0.107-1.389-1.344-2.45-2.732-2.345
		c-1.39,0.107-2.504,1.276-2.396,2.688c0.112,1.462,1.303,2.551,2.764,2.438C78.304,324.837,79.343,323.602,79.233,322.165z"/>
</g>
<g>
	<path fill="#FFFFFF" d="M372.123,422.476c-1.908-1.757-1.819-4.548-0.096-6.42c1.577-1.714,4.34-1.915,6.072-0.32
		c1.236,1.138,1.656,2.667,1.179,4.25c1.794-0.991,4.15-0.749,5.671,0.648c2.227,2.05,2.231,5.449,0.215,7.641
		s-5.299,2.566-7.526,0.517c-1.555-1.431-2.006-3.707-1.167-5.611C374.985,423.836,373.361,423.614,372.123,422.476z
		 M377.201,417.03c-1.202-1.107-3.07-1.063-4.177,0.139c-1.105,1.202-1.028,3.069,0.174,4.174c1.201,1.107,3.07,1.064,4.176-0.139
		C378.48,420.003,378.385,418.119,377.201,417.03z M383.78,421.975c-1.521-1.398-3.912-1.282-5.311,0.237
		c-1.382,1.503-1.266,3.895,0.237,5.276c1.555,1.432,3.912,1.316,5.327-0.221S385.301,423.373,383.78,421.975z"/>
	<path fill="#FFFFFF" d="M392.774,419.508l-1.674-7.545c-0.167,0.891-0.441,1.649-1.06,2.321c-2.18,2.368-5.92,2.354-8.217,0.239
		c-2.475-2.276-2.671-6.212-0.395-8.687c2.309-2.509,6.183-2.534,8.641-0.273c1.2,1.106,1.655,2.208,2.024,3.757l2.094,8.649
		L392.774,419.508z M388.843,406.719c-1.75-1.61-4.55-1.511-6.16,0.239c-1.643,1.785-1.61,4.588,0.191,6.247
		c1.839,1.691,4.623,1.644,6.332-0.212C390.897,411.155,390.645,408.378,388.843,406.719z"/>
	<path fill="#FFFFFF" d="M389.683,402.756c-1.608-1.479-1.611-3.995-0.163-5.569c1.463-1.59,3.992-1.679,5.582-0.215
		c1.626,1.496,1.748,3.989,0.25,5.615C393.825,404.249,391.309,404.252,389.683,402.756z M394.157,397.963
		c-1.006-0.927-2.67-0.857-3.596,0.149c-0.943,1.024-0.977,2.658,0.065,3.617c1.078,0.992,2.71,0.994,3.719-0.103
		C395.321,400.566,395.218,398.938,394.157,397.963z M402.648,408.777l-7.464-17.214l0.926-1.008l7.48,17.197L402.648,408.777z
		 M403.501,402.317c-1.608-1.48-1.611-3.996-0.163-5.568c1.479-1.609,3.991-1.713,5.599-0.233c1.608,1.479,1.747,3.99,0.251,5.616
		C407.658,403.793,405.127,403.813,403.501,402.317z M407.976,397.524c-1.026-0.943-2.654-0.875-3.598,0.149
		c-0.943,1.026-0.96,2.642,0.082,3.601c1.078,0.992,2.692,0.976,3.685-0.103C409.121,400.111,409.036,398.501,407.976,397.524z"/>
</g>
<g>
	<path fill="#FFFFFF" d="M245.478,457.944c0.347,2.023,2.122,3.475,4.162,3.512c2.354,0.044,4.479-1.791,4.522-4.191
		c0.046-2.474-1.816-4.43-4.314-4.477c-1.439-0.025-2.772,0.598-3.61,1.735l-1.507-0.388l1.746-8.664l8.477,0.156l-0.027,1.489
		l-7.108-0.131l-1.183,5.503c1.024-0.822,2.28-1.231,3.601-1.207c3.194,0.059,5.716,2.724,5.657,5.894
		c-0.063,3.435-2.895,5.904-6.257,5.843c-3.05-0.057-5.487-2.096-5.936-5.106L245.478,457.944z"/>
	<path fill="#FFFFFF" d="M269.734,457.095c-0.03,1.682-0.416,3.043-1.592,4.295c-1.176,1.203-2.797,1.918-4.503,1.887
		c-1.585-0.029-3.085-0.705-4.193-1.831c-1.298-1.321-1.703-2.77-1.67-4.571l0.1-5.354c0.03-1.681,0.415-3.044,1.616-4.271
		c1.175-1.228,2.798-1.941,4.479-1.91c1.586,0.029,3.109,0.705,4.193,1.83c1.298,1.32,1.703,2.771,1.67,4.571L269.734,457.095z
		 M259.481,456.905c-0.021,1.153,0.105,2.117,0.809,3.066c0.771,1.096,2.058,1.719,3.378,1.744c1.369,0.024,2.725-0.6,3.538-1.689
		c0.666-0.924,0.803-1.834,0.823-2.963l0.099-5.331c0.021-1.152-0.081-2.115-0.784-3.065c-0.771-1.095-2.057-1.719-3.402-1.744
		c-1.345-0.024-2.702,0.6-3.515,1.713c-0.665,0.9-0.825,1.811-0.847,2.939L259.481,456.905z"/>
	<path fill="#FFFFFF" d="M271.801,449.47c0.04-2.185,1.921-3.855,4.059-3.816c2.161,0.04,3.904,1.874,3.864,4.035
		c-0.041,2.209-1.825,3.953-4.035,3.913C273.431,453.56,271.76,451.679,271.801,449.47z M278.354,449.64
		c0.025-1.369-1.129-2.567-2.497-2.593c-1.394-0.026-2.638,1.032-2.664,2.449c-0.026,1.465,1.056,2.687,2.545,2.714
		C277.179,452.235,278.328,451.08,278.354,449.64z M275.896,463.166l7.929-17.005l1.368,0.025l-7.904,17.005L275.896,463.166z
		 M281.297,459.519c0.04-2.186,1.92-3.856,4.057-3.816c2.186,0.039,3.931,1.85,3.89,4.035c-0.04,2.185-1.826,3.953-4.036,3.912
		C282.95,463.608,281.256,461.728,281.297,459.519z M287.851,459.688c0.025-1.394-1.106-2.567-2.499-2.593
		c-1.394-0.025-2.612,1.033-2.639,2.449c-0.027,1.465,1.055,2.662,2.52,2.689C286.675,462.26,287.825,461.128,287.851,459.688z"/>
</g>
<g>
	<path fill="#FFFFFF" d="M125.203,400.531c-1.063,1.757-0.67,4.015,0.848,5.38c1.75,1.572,4.557,1.576,6.162-0.209
		c1.654-1.84,1.527-4.537-0.331-6.207c-1.071-0.963-2.487-1.364-3.865-1.053l-0.885-1.279l6.991-5.406l6.305,5.667l-0.996,1.108
		l-5.288-4.753l-4.496,3.386c1.313,0.049,2.529,0.563,3.512,1.445c2.375,2.135,2.538,5.801,0.418,8.158
		c-2.296,2.555-6.054,2.568-8.555,0.32c-2.269-2.04-2.776-5.176-1.144-7.746L125.203,400.531z"/>
	<path fill="#FFFFFF" d="M144.094,415.769c-1.124,1.251-2.307,2.027-4.015,2.204c-1.676,0.14-3.37-0.382-4.639-1.521
		c-1.179-1.06-1.871-2.554-1.971-4.13c-0.116-1.848,0.527-3.208,1.731-4.548l3.581-3.983c1.124-1.25,2.306-2.027,4.017-2.17
		c1.692-0.158,3.386,0.365,4.636,1.488c1.18,1.061,1.889,2.569,1.972,4.13c0.116,1.848-0.527,3.208-1.731,4.548L144.094,415.769z
		 M136.468,408.913c-0.771,0.857-1.306,1.668-1.396,2.847c-0.133,1.333,0.431,2.647,1.413,3.53c1.019,0.914,2.452,1.332,3.78,1.04
		c1.108-0.263,1.808-0.862,2.562-1.701l3.564-3.966c0.771-0.857,1.324-1.651,1.414-2.83c0.134-1.332-0.429-2.646-1.43-3.546
		c-1-0.899-2.434-1.315-3.778-1.007c-1.092,0.246-1.809,0.828-2.563,1.668L136.468,408.913z"/>
	<path fill="#FFFFFF" d="M144.778,424.392l17.125-7.664l1.019,0.916l-17.108,7.68L144.778,424.392z M150.648,411.358
		c1.461-1.626,3.977-1.658,5.567-0.229c1.607,1.445,1.725,3.973,0.28,5.58c-1.477,1.643-3.969,1.793-5.612,0.315
		C149.203,415.517,149.171,413.001,150.648,411.358z M151.248,425.17c1.461-1.626,3.976-1.658,5.565-0.229
		c1.625,1.461,1.759,3.972,0.298,5.598c-1.461,1.625-3.969,1.793-5.613,0.314C149.82,429.344,149.771,426.813,151.248,425.17z
		 M155.492,415.776c0.915-1.018,0.827-2.68-0.19-3.595c-1.036-0.932-2.67-0.946-3.618,0.108c-0.979,1.089-0.96,2.721,0.147,3.717
		C152.903,416.97,154.529,416.849,155.492,415.776z M156.092,429.589c0.932-1.036,0.845-2.664-0.191-3.596
		c-1.037-0.932-2.652-0.93-3.599,0.124c-0.979,1.089-0.945,2.703,0.145,3.683C153.518,430.763,155.128,430.66,156.092,429.589z"/>
</g>
</svg>
